<?xml version="1.0" standalone="no"?>
<!DOCTYPE svg PUBLIC "-//W3C//DTD SVG 1.1//EN" "http://www.w3.org/Graphics/SVG/1.1/DTD/svg11.dtd" >
<svg>
<metadata>
Created by FontForge 20110222 at Mon Aug 26 07:29:52 2013
 By www-data
Copyright (c) 2011 by Tyler Finck. All rights reserved.
</metadata>
<defs>
<font id="OstrichSansInline" horiz-adv-x="391" >
  <font-face 
    font-family="Ostrich Sans Inline"
    font-weight="400"
    font-stretch="normal"
    units-per-em="1000"
    panose-1="2 0 5 8 2 0 0 2 0 4"
    ascent="800"
    descent="-200"
    x-height="674"
    cap-height="674"
    bbox="-86 -139 685 847"
    underline-thickness="50"
    underline-position="0"
    stemh="18"
    stemv="18"
    unicode-range="U+0020-20AC"
  />
    <missing-glyph />
    <glyph glyph-name="space" unicode=" " horiz-adv-x="241" 
 />
    <glyph glyph-name="dollar" unicode="$" horiz-adv-x="340" 
d="M248 201c0 -54 -21 -99 -79 -106v223c35 -29 79 -68 79 -117zM77 477c0 45 28 91 73 102v-224c-37 31 -73 71 -73 122zM150 28h19v48c66 4 97 64 97 124c0 61 -52 107 -97 140v240c69 -1 78 -75 78 -129h18v6c0 66 -17 140 -96 142v48h-19v-49c-56 -10 -92 -66 -92 -120
c0 -64 45 -108 92 -145v-238c-67 4 -79 83 -79 135h-18v-14c0 -66 22 -132 97 -140v-48zM122 0v54c-75 20 -96 90 -96 162v41h72c0 -42 4 -100 24 -121v183c-49 39 -92 88 -92 159c0 57 37 118 92 141v56h74v-51c83 -13 97 -94 97 -167v-34h-74c0 46 -1 100 -23 119v-188
c46 -36 98 -90 98 -154c0 -66 -32 -131 -98 -148v-52h-74zM105 477c0 -21 4 -36 17 -54v107c-10 -15 -17 -35 -17 -53zM220 201c0 18 -11 39 -24 54v-120c17 15 24 39 24 66z" />
    <glyph glyph-name="percent" unicode="%" horiz-adv-x="469" 
d="M320 647l-247 -619h18l248 619h-19zM376 150c0 -32 -19 -63 -54 -63s-53 30 -53 63v81c0 32 18 62 53 62s54 -31 54 -62v-81zM322 309c-45 0 -70 -36 -70 -78v-81c0 -42 25 -81 70 -81s70 39 70 81v81c0 42 -25 78 -70 78zM40 443v80c0 33 18 62 53 62
c36 0 53 -28 53 -62v-80c0 -33 -17 -63 -53 -63c-35 0 -53 31 -53 63zM164 443v80c0 43 -26 81 -71 81c-44 0 -71 -39 -71 -81v-80c0 -42 27 -80 71 -80c45 0 71 37 71 80zM192 443c0 -57 -37 -108 -99 -108s-99 52 -99 108v80c0 56 37 109 99 109s99 -52 99 -109v-80z
M68 443c0 -19 8 -35 25 -35s25 16 25 35v80c0 19 -8 34 -25 34s-25 -16 -25 -34v-80zM322 337c63 0 98 -50 98 -106v-81c0 -55 -35 -109 -98 -109c-62 0 -98 54 -98 109v81c0 56 36 106 98 106zM348 150v81c0 17 -9 34 -26 34c-16 0 -25 -16 -25 -34v-81c0 -19 8 -35 25 -35
s26 16 26 35zM301 674h78l-270 -674h-77z" />
    <glyph glyph-name="ampersand" unicode="&#x26;" horiz-adv-x="446" 
d="M291 118c-29 -48 -77 -72 -133 -72c-71 0 -118 61 -118 128c0 57 73 124 116 155zM93 548c0 46 27 79 74 79c58 0 65 -48 65 -97c0 -68 -24 -124 -71 -173c-37 56 -68 122 -68 191zM158 28c60 0 107 23 143 73l43 -73h19l-40 68h1l-12 22c29 58 30 126 30 191h-18
c0 -61 0 -115 -25 -172l-128 204c51 49 80 117 80 189c0 59 -12 117 -84 117c-59 0 -93 -43 -93 -99c0 -72 36 -144 74 -204c-51 -40 -126 -102 -126 -171c0 -79 54 -145 136 -145zM158 0c-99 0 -164 79 -164 173c0 75 65 135 118 178c-37 60 -65 125 -65 197
s44 126 120 126c95 0 111 -72 111 -144c0 -71 -27 -141 -72 -194c35 -58 44 -69 83 -132c7 40 7 83 7 132h74c0 -75 -2 -159 -27 -218l4 -8l62 -110h-80l-33 53c-36 -36 -81 -53 -138 -53zM120 548c0 -51 18 -100 44 -145c28 37 41 77 41 127c0 35 -5 70 -38 70
c-29 0 -47 -21 -47 -52zM258 119l-109 170c-36 -31 -81 -79 -81 -115c0 -52 36 -101 90 -101c40 0 76 16 100 46z" />
    <glyph glyph-name="parenleft" unicode="(" horiz-adv-x="186" 
d="M120 46c-64 79 -75 206 -75 293c0 81 17 215 74 286l-10 19c-73 -88 -86 -217 -86 -305c0 -87 12 -219 84 -306zM157 44l-50 -50c-92 90 -108 253 -108 345c0 93 18 259 119 350l35 -70c-69 -63 -85 -204 -85 -280c0 -102 20 -218 89 -295z" />
    <glyph glyph-name="parenright" unicode=")" horiz-adv-x="178" 
d="M33 46l13 -13c72 87 84 219 84 306c0 88 -13 217 -86 305l-10 -19c57 -71 74 -205 74 -286c0 -87 -11 -214 -75 -293zM46 -6l-50 50c69 77 89 193 89 295c0 76 -16 217 -85 280l35 70c101 -91 119 -257 119 -350c0 -92 -16 -255 -108 -345z" />
    <glyph glyph-name="asterisk" unicode="*" horiz-adv-x="315" 
d="M247 559l-6 19l-93 -34v99h-19v-99l-91 34l-6 -17c29 -11 59 -23 89 -34l-67 -78l15 -12l70 82l71 -83l15 14c-23 26 -47 51 -69 77zM281 543l-78 -28l19 -21l41 -45l-55 -53l-69 80l-67 -77l-58 47l61 70c-6 3 -10 4 -16 6l-61 23l24 68l80 -30v87h73v-88l83 31z" />
    <glyph glyph-name="plus" unicode="+" horiz-adv-x="346" 
d="M268 344h-110v118h-18v-118h-108v-18h108v-118h18v118h110v18zM295 372v-74h-109v-117h-74v117h-108v74h108v117h74v-117h109z" />
    <glyph glyph-name="comma" unicode="," horiz-adv-x="99" 
d="M15 -31l30 68h-22l-24 -68h16zM34 -59h-75l45 123h82z" />
    <glyph glyph-name="hyphen" unicode="-" horiz-adv-x="319" 
d="M249 325v18h-216v-18h216zM276 298h-271v73h271v-73z" />
    <glyph glyph-name="period" unicode="." horiz-adv-x="127" 
d="M47 28v21h-19v-21h19zM72 0h-68v76h68v-76z" />
    <glyph glyph-name="slash" unicode="/" horiz-adv-x="388" 
d="M291 647l-247 -619h19l248 619h-20zM272 674h79l-270 -674h-78z" />
    <glyph glyph-name="zero" unicode="0" horiz-adv-x="354" 
d="M151 633c80 0 101 -69 101 -137v-317c0 -69 -22 -138 -102 -138s-104 70 -104 139v317c0 70 25 136 105 136zM150 23c84 0 120 68 120 144v341c0 75 -36 143 -119 143c-87 0 -122 -64 -122 -143v-341c0 -75 37 -144 121 -144zM150 -5c-104 0 -149 82 -149 172v341
c0 94 43 171 150 171c103 0 147 -81 147 -171v-341c0 -91 -44 -172 -148 -172zM151 605c-59 0 -77 -52 -77 -108v-317c0 -55 17 -111 76 -111c58 0 74 55 74 110v317c0 54 -15 109 -73 109z" />
    <glyph glyph-name="one" unicode="1" horiz-adv-x="214" 
d="M118 647l-89 -119l11 -11l79 101v-590h19v619h-20zM105 674h60v-674h-73v538l-50 -61l-49 48l38 53z" />
    <glyph glyph-name="two" unicode="2" horiz-adv-x="338" 
d="M254 28v17h-203c2 247 203 245 203 464c0 73 -27 143 -112 143c-93 0 -112 -87 -110 -163h18c0 64 10 145 92 145c72 0 94 -63 94 -123c0 -218 -204 -194 -204 -483h222zM282 0h-277c0 193 62 262 120 326c43 48 84 94 84 185c0 46 -16 95 -67 95c-57 0 -65 -81 -65 -145
h-71c-3 102 19 219 136 219c106 0 140 -84 140 -171c0 -117 -51 -175 -104 -235c-45 -51 -91 -102 -99 -201h203v-73z" />
    <glyph glyph-name="three" unicode="3" horiz-adv-x="324" 
d="M252 185c0 64 -18 132 -87 150c65 19 87 93 87 154c0 71 -22 162 -110 162c-90 0 -110 -99 -112 -171h18c2 62 15 153 95 153c76 0 90 -85 90 -144c0 -79 -37 -139 -119 -146v-17c86 -5 119 -58 119 -141c0 -62 -13 -144 -91 -144c-84 0 -92 86 -94 152h-18
c0 -81 13 -170 112 -170c93 0 110 85 110 162zM280 185c0 -89 -22 -190 -138 -190c-124 0 -139 118 -139 225h71c2 -66 9 -151 68 -151c54 0 64 66 64 116c0 67 -33 110 -120 114v70c83 7 120 55 120 120c0 48 -10 116 -63 116c-57 0 -67 -91 -69 -152h-72
c3 94 27 226 140 226c110 0 138 -107 138 -190c0 -54 -15 -114 -57 -152c41 -36 57 -96 57 -152z" />
    <glyph glyph-name="four" unicode="4" horiz-adv-x="344" 
d="M250 268h-200l200 342v-342zM250 647l-220 -379v-20h220v-220h18v619h-18zM234 674h62v-674h-73v220h-221v56zM223 296v213l-125 -213h125z" />
    <glyph glyph-name="five" unicode="5" horiz-adv-x="330" 
d="M232 647h-203v-348h17c11 45 43 91 93 91c82 0 93 -72 93 -138v-78c0 -60 -20 -134 -93 -134c-89 0 -93 87 -92 155h-18v-22c0 -76 21 -150 110 -150c83 0 112 78 112 149v87c0 76 -22 150 -112 150c-37 0 -74 -23 -92 -55v275h185v18zM260 674v-72h-186v-184
c20 12 42 18 65 18c113 0 139 -87 139 -177v-87c0 -84 -36 -177 -139 -177c-111 0 -137 89 -137 178v49h72c-1 -68 2 -154 65 -154c52 0 66 58 66 106v78c0 53 -8 111 -66 111c-35 0 -61 -46 -72 -91h-65v402h258z" />
    <glyph glyph-name="six" unicode="6" horiz-adv-x="332" 
d="M47 278c0 57 29 121 94 121c78 0 91 -67 91 -131v-87c0 -58 -21 -140 -92 -140s-93 58 -93 119v118zM140 23c80 0 111 85 111 153v92c0 75 -20 149 -110 149c-39 0 -78 -25 -94 -60v107c0 65 14 170 99 170c84 0 87 -75 86 -138h20v22c0 70 -26 133 -106 133
c-99 0 -117 -109 -117 -187v-309c0 -73 30 -132 111 -132zM140 -5c-101 0 -138 71 -138 160v309c0 89 21 215 144 215c101 0 133 -77 133 -161v-50h-74c1 64 -1 138 -59 138c-62 0 -72 -88 -72 -142v-39c21 12 44 19 67 19c113 0 137 -87 137 -176v-92
c0 -80 -37 -181 -138 -181zM74 278v-118c0 -47 16 -91 66 -91s65 65 65 112v87c0 51 -9 104 -64 104c-46 0 -67 -50 -67 -94z" />
    <glyph glyph-name="seven" unicode="7" horiz-adv-x="277" 
d="M18 28h18l190 600v19h-201v-19h179v-2zM-20 0l186 601h-168v73h253v-73l-194 -601h-77z" />
    <glyph glyph-name="eight" unicode="8" horiz-adv-x="352" 
d="M148 39c-80 0 -105 72 -105 140c0 67 24 148 105 148c87 0 106 -76 106 -148c0 -67 -28 -140 -106 -140zM50 489c0 66 15 144 98 144c82 0 98 -78 98 -144c0 -69 -12 -146 -98 -146c-84 0 -98 79 -98 146zM265 492c0 77 -25 159 -117 159c-94 0 -116 -81 -116 -159
c0 -58 7 -125 62 -157c-52 -29 -69 -98 -69 -154c0 -81 29 -160 123 -160c90 0 124 82 124 160c0 58 -11 128 -72 154c61 27 65 100 65 157zM292 492c0 -50 -4 -115 -43 -156c41 -39 51 -103 51 -155c0 -92 -42 -187 -152 -187c-115 0 -150 92 -150 187c0 51 13 114 52 154
c-41 42 -45 103 -45 157c0 92 27 187 143 187c114 0 144 -96 144 -187zM77 489c0 -55 11 -118 71 -118c62 0 71 62 71 118c0 53 -12 116 -71 116c-60 0 -71 -63 -71 -116zM148 67c58 0 78 58 78 112c0 58 -14 120 -78 120c-60 0 -77 -66 -77 -120s18 -112 77 -112z" />
    <glyph glyph-name="nine" unicode="9" horiz-adv-x="328" 
d="M233 396c0 -57 -29 -121 -94 -121c-78 0 -91 68 -91 131v87c0 58 21 140 92 140s93 -58 93 -119v-118zM140 651c-80 0 -110 -85 -110 -153v-92c0 -75 19 -149 109 -149c39 0 77 24 94 60v-107c0 -65 -14 -170 -99 -170c-84 0 -87 75 -86 138h-19v-22
c0 -70 25 -133 105 -133c100 0 118 108 118 187v309c0 73 -31 132 -112 132zM140 679c101 0 139 -71 139 -160v-309c0 -91 -21 -215 -145 -215c-101 0 -132 77 -132 161v50h73c-1 -64 1 -138 59 -138c62 0 72 88 72 142v38c-20 -11 -44 -18 -67 -18c-113 0 -136 87 -136 176
v92c0 80 36 181 137 181zM206 396v118c0 47 -16 91 -66 91s-65 -65 -65 -112v-87c0 -51 9 -104 64 -104c46 0 67 50 67 94z" />
    <glyph glyph-name="colon" unicode=":" horiz-adv-x="133" 
d="M30 161h18v41h-18v-41zM30 478v-41h18v41h-18zM2 505h74v-95h-74v95zM2 133v97h74v-97h-74z" />
    <glyph glyph-name="semicolon" unicode=";" horiz-adv-x="117" 
d="M16 142l29 67h-21l-25 -67h17zM32 478v-41h23v41h-23zM5 505h77v-95h-77v95zM30 115h-66l45 122h74z" />
    <glyph glyph-name="equal" unicode="=" horiz-adv-x="332" 
d="M249 261h-216v-18h216v18zM249 457h-216v-17h216v17zM276 485v-73h-271v73h271zM276 288v-72h-271v72h271z" />
    <glyph glyph-name="question" unicode="?" horiz-adv-x="346" 
d="M107 124v43c0 149 40 165 76 214v-1c23 31 43 59 43 118c0 58 -15 108 -77 108c-63 0 -78 -94 -78 -163h-73c0 105 31 237 152 237c111 0 150 -82 150 -178c0 -81 -38 -141 -83 -197c-34 -46 -37 -81 -37 -142v-39h-73zM180 0h-73v84h73v-84zM153 28v29h-19v-29h19z
M134 152h19c0 48 0 106 43 170v0c47 58 76 102 76 180c0 81 -31 150 -122 150c-99 0 -124 -101 -124 -182h17c0 69 20 164 106 164c84 0 105 -64 105 -136c0 -151 -120 -126 -120 -331v-15z" />
    <glyph glyph-name="at" unicode="@" horiz-adv-x="667" 
d="M268 180c-54 0 -75 51 -75 97c0 64 53 213 131 213c45 0 62 -29 62 -71c0 -22 -6 -43 -11 -65c-12 -64 -20 -174 -107 -174zM524 120c-58 -38 -127 -60 -195 -60c-150 0 -267 93 -267 249c0 163 118 299 285 299c131 0 208 -85 208 -214c0 -107 -52 -228 -175 -228
c-17 0 -18 20 -18 31c0 45 53 247 66 303h-20l-9 -39c-6 26 -30 48 -58 48c-110 0 -168 -139 -168 -233c0 -63 30 -115 99 -115c26 0 54 7 71 28c1 -19 13 -40 35 -40c134 0 197 122 197 242c0 138 -83 234 -225 234c-182 0 -306 -142 -306 -319c0 -165 128 -264 285 -264
c77 0 151 25 214 69zM522 152l74 -37c-91 -64 -184 -100 -267 -100c-171 0 -313 109 -313 291c0 193 135 347 334 347c159 0 252 -107 252 -262c0 -134 -71 -270 -224 -270c-20 0 -37 10 -48 24c-17 -8 -39 -12 -58 -12c-89 0 -126 65 -126 143c0 105 67 260 195 260
c16 0 32 -5 44 -13c0 0 1 3 1 4h76l-20 -86c-21 -80 -53 -211 -53 -244c0 0 -1 -3 -6 -3c102 2 145 107 145 200c0 112 -67 186 -181 186c-151 0 -257 -123 -257 -271c0 -138 104 -222 239 -222c63 0 132 24 193 65zM268 208c53 0 66 72 75 126l6 27l3 13c3 14 7 28 7 45
c0 25 -10 44 -35 44c-62 0 -104 -131 -104 -186c0 -34 14 -69 48 -69z" />
    <glyph glyph-name="backslash" unicode="\" horiz-adv-x="400" 
d="M64 647h-19l247 -619h20zM82 674l270 -674h-79l-269 674h78z" />
    <glyph glyph-name="underscore" unicode="_" horiz-adv-x="481" 
d="M408 -2v18h-366v-18h366zM435 -29h-420v72h420v-72z" />
    <glyph glyph-name="quoteleft" unicode="&#x2018;" horiz-adv-x="101" 
d="M26 647v-71h18v71h-18zM-1 674h73v-126h-73v126z" />
    <glyph glyph-name="quotedblleft" unicode="&#x201c;" horiz-adv-x="212" 
d="M26 647v-71h18v71h-18zM-1 674h73v-126h-73v126zM126 647v-71h18v71h-18zM99 674h73v-126h-73v126z" />
    <glyph glyph-name="quotedblright" unicode="&#x201d;" horiz-adv-x="191" 
d="M36 647v-71h18v71h-18zM9 674h73v-126h-73v126zM136 647v-71h18v71h-18zM109 674h73v-126h-73v126z" />
    <glyph glyph-name="quoteright" unicode="&#x2019;" horiz-adv-x="101" 
d="M26 647v-71h18v71h-18zM-1 674h73v-126h-73v126z" />
    <glyph glyph-name="quotesingle" unicode="'" horiz-adv-x="101" 
d="M26 576h18v71h-18v-71zM-2 548v126h74v-126h-74z" />
    <glyph glyph-name="a" unicode="a" horiz-adv-x="435" 
d="M193 601l83 -363h-166zM63 28l43 192h174l43 -192h18l-141 619h-14l-142 -619h19zM85 0h-75l154 674h58l153 -674h-75l-42 193h-128zM193 479l-48 -214h96z" />
    <glyph glyph-name="b" unicode="b" horiz-adv-x="349" 
d="M140 46h-91v281h84c93 0 125 -53 125 -141c0 -84 -25 -140 -118 -140zM49 629h69c91 0 130 -53 130 -141c0 -83 -33 -144 -123 -144h-76v285zM266 488c0 103 -45 159 -150 159h-86v-619h113c103 0 134 64 134 158c0 67 -22 137 -94 152c65 25 83 85 83 150zM294 488
c0 -57 -11 -111 -53 -146c48 -34 64 -96 64 -156c0 -111 -38 -186 -162 -186h-140v674h113c125 0 178 -66 178 -186zM76 602v-230h49c70 0 95 49 95 116c0 70 -30 114 -102 114h-42zM140 73c71 0 90 45 90 113c0 70 -24 113 -97 113h-57v-226h64z" />
    <glyph glyph-name="c" unicode="c" horiz-adv-x="381" 
d="M167 21c113 0 137 86 137 182h-18c0 -82 -18 -164 -119 -164c-85 0 -120 68 -120 144v309c0 76 36 144 121 144c101 0 118 -81 118 -164h18c0 111 -38 181 -136 181c-97 0 -139 -70 -139 -161v-309c0 -91 41 -162 138 -162zM167 -6c-116 0 -166 82 -166 189v309
c0 107 51 189 167 189c134 0 164 -82 164 -237h-74c0 83 -4 164 -90 164c-66 0 -93 -54 -93 -116v-309c0 -62 26 -117 92 -117c79 0 91 71 91 165h74c0 -126 -15 -237 -165 -237z" />
    <glyph glyph-name="d" unicode="d" horiz-adv-x="378" 
d="M49 45v584h92c95 0 129 -66 129 -152v-280c0 -86 -34 -152 -129 -152h-92zM148 28c103 0 139 70 139 164v290c0 92 -37 165 -139 165h-116v-619h116zM148 0h-144v674h144c122 0 167 -84 167 -192v-290c0 -109 -44 -192 -167 -192zM77 73h64c75 0 101 54 101 124v280
c0 70 -26 125 -101 125h-64v-529z" />
    <glyph glyph-name="f" unicode="f" horiz-adv-x="310" 
d="M241 629v18h-215l1 -619h17v299h132v17h-132v285h197zM269 602h-198v-230h133v-73h-133v-299h-71l-1 674h270v-72z" />
    <glyph glyph-name="g" unicode="g" 
d="M169 21c95 0 138 75 138 161v162h-127v-17h109v-145c0 -74 -38 -143 -120 -143c-84 0 -120 66 -120 143v302c0 80 33 152 122 152c88 0 115 -77 115 -155h18c0 98 -38 172 -133 172s-140 -72 -140 -160v-311c0 -88 43 -161 138 -161zM169 -6c-115 0 -166 85 -166 188v311
c0 104 53 188 168 188c125 0 160 -87 160 -224h-73c0 77 -13 151 -87 151c-69 0 -95 -59 -95 -124v-302c0 -63 28 -116 93 -116c63 0 92 56 92 116v117h-108v73h181v-190c0 -101 -51 -188 -165 -188z" />
    <glyph glyph-name="h" unicode="h" horiz-adv-x="348" 
d="M260 647v-304h-212v304h-17v-619h17v298h212v-298h19v619h-19zM233 674h73v-674h-73v298h-157v-298h-73v674h73v-303h157v303z" />
    <glyph glyph-name="j" unicode="j" horiz-adv-x="355" 
d="M144 21c95 0 125 73 125 156v473h-18v-464c0 -70 -21 -147 -107 -147c-92 0 -105 81 -105 159h-19c0 -119 35 -177 124 -177zM144 -6c-120 0 -151 81 -151 232h73c0 -74 3 -160 78 -160c64 0 79 63 79 120v492h74v-501c0 -98 -37 -183 -153 -183z" />
    <glyph glyph-name="k" unicode="k" horiz-adv-x="337" 
d="M262 647h-22l-190 -340v340h-19v-619h19v247l40 66l167 -313h21l-176 333zM311 675l-178 -315l192 -360h-85l-152 287l-11 -19v-268h-73v675h73v-267l147 267h87z" />
    <glyph glyph-name="l" unicode="l" horiz-adv-x="281" 
d="M195 28v17h-153v602h-18v-619h171zM222 0h-225v674h72v-601h153v-73z" />
    <glyph glyph-name="m" unicode="m" horiz-adv-x="427" 
d="M46 28v534l137 -534h17l135 535v-535h19v619h-17l-147 -573l-146 573h-16v-619h18zM74 0h-74v674h65l125 -488l126 488h65v-674h-73v348l-87 -348h-59l-88 343v-343z" />
    <glyph glyph-name="n" unicode="n" horiz-adv-x="385" 
d="M49 590c76 -188 149 -375 225 -562h15v619h-17v-562l-226 562h-16v-619h19v562zM76 446v-446h-73v674h61l180 -446v446h73v-674h-61c-39 94 -83 205 -180 446z" />
    <glyph glyph-name="o" unicode="o" 
d="M169 635c91 0 119 -74 119 -153v-294c0 -80 -29 -148 -119 -148s-120 72 -120 151v292c0 76 32 152 120 152zM169 21c99 0 137 70 137 162v309c0 87 -41 163 -137 163c-95 0 -138 -76 -138 -163v-309c0 -90 41 -162 138 -162zM169 -6c-116 0 -166 83 -166 189v309
c0 102 52 189 166 189c115 0 165 -87 165 -189v-309c0 -108 -47 -189 -165 -189zM169 607c-68 0 -93 -61 -93 -124v-292c0 -64 24 -124 93 -124c70 0 91 56 91 121v294c0 64 -21 125 -91 125z" />
    <glyph glyph-name="p" unicode="p" horiz-adv-x="343" 
d="M48 628h80c95 0 133 -49 133 -140c0 -94 -40 -144 -137 -144h-76v284zM48 326c133 0 232 -5 232 162c0 93 -41 159 -142 159h-107v-619h17v298zM76 298v-298h-73v674h135c121 0 169 -76 169 -186c0 -172 -96 -190 -231 -190zM76 601v-229h48c78 0 110 40 110 116
c0 73 -30 113 -106 113h-52z" />
    <glyph glyph-name="q" unicode="q" horiz-adv-x="393" 
d="M165 39c-85 0 -119 81 -119 155v296c0 78 34 146 119 146s120 -68 120 -145v-304c0 -39 -3 -82 -29 -114l-43 50h-21l52 -62c-23 -14 -52 -22 -79 -22zM322 -8l-55 65c33 35 35 83 35 129v309c0 87 -42 158 -137 158c-93 0 -137 -71 -137 -158v-309
c0 -86 43 -165 137 -165c32 0 64 9 90 27l45 -56h22zM379 -36h-92l-39 48c-26 -13 -54 -18 -83 -18c-113 0 -165 91 -165 192v309c0 103 53 186 165 186c114 0 165 -83 165 -186v-309c0 -44 -2 -90 -27 -129zM165 66c12 0 23 1 34 5l-65 80h93l24 -30c5 20 6 45 6 66v304
c0 62 -26 117 -92 117s-91 -55 -91 -118v-296c0 -61 25 -128 91 -128z" />
    <glyph glyph-name="r" unicode="r" horiz-adv-x="346" 
d="M124 344h-85v284h94c98 0 117 -58 117 -143c0 -95 -25 -141 -126 -141zM268 485c0 95 -25 162 -131 162h-117v-619h19v298h96c84 0 111 -35 111 -116v-182h19v185c0 53 -13 108 -73 122c66 20 76 90 76 150zM296 485c0 -51 -9 -111 -46 -148c31 -29 42 -79 42 -124v-213
h-73v210c0 62 -21 88 -84 88h-69v-298h-73v674h144c129 0 159 -77 159 -189zM124 372c79 0 98 37 98 113c0 69 -14 116 -89 116h-67v-229h58z" />
    <glyph glyph-name="u" unicode="u" horiz-adv-x="387" 
d="M165 22c91 0 139 61 139 149v476h-18v-471c0 -78 -38 -137 -121 -137c-82 0 -120 59 -120 137v471h-18l1 -476c0 -88 46 -149 137 -149zM165 -6c-109 0 -165 72 -165 177l-1 504h74v-499c0 -62 29 -109 92 -109c64 0 93 47 93 109v499h74v-504c0 -105 -57 -177 -167 -177
z" />
    <glyph glyph-name="v" unicode="v" horiz-adv-x="394" 
d="M305 647l-130 -576l-133 576h-19l144 -619h15l142 619h-19zM283 675h75l-154 -674h-59l-157 674h76l111 -480z" />
    <glyph glyph-name="w" unicode="w" horiz-adv-x="589" 
d="M502 647l-121 -565l-99 565h-15l-98 -565l-125 565h-17l135 -619h14l99 555l98 -555h15l133 619h-19zM480 674h75l-145 -674h-61l-74 420c-25 -141 -52 -286 -75 -420h-60l-147 674h73l99 -448c26 151 54 304 78 448h63l78 -448z" />
    <glyph glyph-name="x" unicode="x" horiz-adv-x="350" 
d="M19 28h19l110 281l111 -281h19l-120 306l117 313h-19l-108 -288l-107 288h-20c38 -105 78 -209 117 -313zM-22 0l131 335c-65 170 -102 273 -126 339h77l88 -237l88 237h78l-126 -339c15 -39 30 -80 130 -335h-78l-92 234l-91 -234h-79z" />
    <glyph glyph-name="y" unicode="y" horiz-adv-x="353" 
d="M276 647l-117 -310l-117 310h-19c40 -113 84 -223 126 -335v-284h19v284l127 335h-19zM257 674h78l-140 -367v-307h-74v307c-78 205 -116 306 -138 367h78l98 -258c33 86 68 176 98 258z" />
    <glyph glyph-name="z" unicode="z" horiz-adv-x="355" 
d="M45 48l234 576v23h-239v-19h220v-1l-235 -576v-23h257v18h-237v2zM306 618l-221 -545h225v-73h-312v57l222 544h-208v73h294v-56z" />
    <glyph glyph-name="bar" unicode="|" horiz-adv-x="109" 
d="M57 28v625h-18v-625h18zM84 0h-72v681h72v-681z" />
    <glyph glyph-name="endash" unicode="&#x2013;" horiz-adv-x="319" 
d="M249 326v18h-216v-18h216zM276 298h-271v74h271v-74z" />
    <glyph glyph-name="emdash" unicode="&#x2014;" horiz-adv-x="319" 
d="M249 326v18h-216v-18h216zM276 298h-271v74h271v-74z" />
    <glyph glyph-name="t" unicode="t" horiz-adv-x="347" 
d="M268 647h-242v-18h111v-601h19v601h112v18zM295 675v-73h-112v-601h-73v601h-112v73h297z" />
    <glyph glyph-name="s" unicode="s" horiz-adv-x="363" 
d="M160 22c90 0 133 51 133 140c0 146 -239 213 -239 349c0 68 38 125 111 125c97 0 103 -86 104 -155h17c0 104 -21 173 -121 173c-80 0 -128 -61 -128 -138c0 -81 71 -151 133 -196h-1c47 -39 106 -103 106 -159c0 -76 -38 -122 -115 -122c-99 0 -111 95 -111 163h-19
c0 -110 29 -180 130 -180zM160 -6c-125 0 -157 82 -157 236h73c0 -93 10 -163 84 -163c58 0 87 36 87 94c0 53 -53 103 -95 138l1 -1c-67 48 -144 126 -144 218c0 93 59 165 156 165c135 0 149 -101 149 -227h-73c0 78 -5 154 -76 154c-55 0 -83 -44 -83 -97
c0 -55 54 -101 108 -149v1c65 -58 130 -118 130 -201c0 -106 -52 -168 -160 -168z" />
    <glyph glyph-name="e" unicode="e" horiz-adv-x="323" 
d="M244 629v18h-215l1 -619h214v17h-197v282h132v17h-132v285h197zM272 602h-198v-230h132v-73h-132v-226h198v-73h-269l-1 674h270v-72z" />
    <glyph glyph-name="i" unicode="i" horiz-adv-x="144" 
d="M53 28v619h-19v-619h19zM80 0h-73v674h73v-674z" />
    <glyph glyph-name="greater" unicode="&#x3e;" horiz-adv-x="257" 
d="M42 647l125 -310l-125 -309h20l123 309l-123 310h-20zM1 674h80l133 -337l-133 -337h-80l136 337c-41 102 -96 238 -136 337z" />
    <glyph glyph-name="asciitilde" unicode="~" horiz-adv-x="320" 
d="M249 346c-9 -3 -21 -9 -30 -9c-43 0 -79 40 -128 40c-24 0 -46 -15 -64 -28l15 -15c14 14 31 23 51 23c43 0 77 -39 124 -39c16 0 33 6 48 12zM255 381l56 -63c-34 -13 -73 -28 -94 -28c-31 0 -54 11 -77 23c-17 8 -32 17 -47 17c-12 0 -30 -14 -51 -34l-57 57
c34 24 74 51 106 51c31 0 56 -12 80 -23h-1c18 -8 34 -16 49 -16c4 0 14 3 22 7z" />
    <glyph glyph-name="tilde" unicode="&#x2dc;" horiz-adv-x="317" 
d="M249 647c-9 -3 -21 -9 -30 -9c-43 0 -79 40 -128 40c-24 0 -46 -15 -64 -28l15 -15c14 14 31 23 51 23c43 0 77 -39 124 -39c16 0 33 6 48 12zM255 682l56 -63c-34 -13 -73 -28 -94 -28c-31 0 -54 11 -77 23c-17 8 -32 17 -47 17c-12 0 -30 -14 -51 -34l-57 57
c34 24 74 51 106 51c31 0 56 -12 80 -23h-1c18 -8 34 -16 49 -16c4 0 14 3 22 7z" />
    <glyph glyph-name="ellipsis" unicode="&#x2026;" horiz-adv-x="335" 
d="M260 28v29h-18v-29h18zM155 28v29h-20v-29h20zM48 28v29h-18v-29h18zM76 0h-73v84h73v-84zM182 0h-74v84h74v-84zM288 0h-74v84h74v-84z" />
    <glyph glyph-name="Euro" unicode="&#x20ac;" horiz-adv-x="386" 
d="M216 242h-151v151h151v18h-151v75c0 77 37 143 121 143c30 0 64 -13 87 -33l13 13c-23 26 -67 38 -100 38c-145 0 -139 -128 -139 -236h-56v-18h56v-151h-56v-18h56c0 -102 16 -196 139 -196c39 0 85 19 109 50c-7 0 -13 3 -19 6c-19 -27 -59 -38 -90 -38
c-109 0 -121 93 -121 178h151v18zM244 270v-73h-152c3 -64 20 -124 94 -124c25 0 59 13 82 45c13 -6 70 -32 69 -30c-50 -66 -105 -88 -151 -88c-136 0 -163 91 -167 197h-56v73h56v96h-56v72h56c0 115 6 236 167 236c40 0 98 -21 138 -66l-50 -50c-29 27 -64 44 -88 44
c-65 0 -94 -54 -94 -116v-48h152v-72h-152v-96h152z" />
    <glyph glyph-name="grave" unicode="`" horiz-adv-x="166" 
d="M93 571l-47 76h-21l50 -76h18zM142 544h-81l-88 131h88z" />
    <glyph glyph-name="acute" unicode="&#xb4;" horiz-adv-x="217" 
d="M109 572l48 75h-19l-42 -75h13zM123 545h-74l73 130h85z" />
    <glyph glyph-name="circumflex" unicode="&#x2c6;" horiz-adv-x="186" 
d="M46 563l39 65h6l42 -65h13l-43 84h-29l-43 -84h15zM61 535h-74l70 140h63l74 -140h-74l-31 44z" />
    <glyph glyph-name="dieresis" unicode="&#xa8;" horiz-adv-x="226" 
d="M193 647h-18v-29h18v29zM48 647h-19v-29h19v29zM75 675v-84h-73v84h73zM221 675v-84h-74v84h74z" />
    <glyph glyph-name="zcaron" unicode="&#x17e;" horiz-adv-x="355" 
d="M101 797l42 -84h29l42 84h-12l-40 -65h-8l-39 65h-14zM45 48l234 576v23h-239v-19h220v-1l-235 -576v-23h257v18h-237v2zM306 618l-221 -545h225v-73h-312v57l222 544h-208v73h294v-56zM56 824h75l27 -45l31 45h73l-75 -138h-62z" />
    <glyph glyph-name="less" unicode="&#x3c;" horiz-adv-x="257" 
d="M164 647l-124 -310l124 -309h20l-124 309l124 310h-20zM146 674h78l-134 -337l134 -337h-78l-135 337z" />
    <glyph glyph-name="guilsinglright" unicode="&#x203a;" horiz-adv-x="395" 
d="M48 647l244 -310l-244 -309h20l244 309l-244 310h-20zM-10 674h92l266 -337l-266 -337h-92l266 337c-79 102 -190 240 -266 337z" />
    <glyph glyph-name="exclamdown" unicode="&#xa1;" horiz-adv-x="113" 
d="M43 648h-18v-30h18v30zM25 535v-506h18v506h-18zM71 1h-74v561h74v-561zM-3 591v84h74v-84h-74z" />
    <glyph glyph-name="guilsinglleft" unicode="&#x2039;" horiz-adv-x="395" 
d="M288 647l-244 -310l244 -309h22l-245 309l245 310h-22zM274 674h93l-266 -337l266 -337h-92l-267 337z" />
    <glyph glyph-name="A" unicode="A" horiz-adv-x="435" 
d="M193 601l83 -363h-166zM63 28l43 192h174l43 -192h18l-141 619h-14l-142 -619h19zM85 0h-75l154 674h58l153 -674h-75l-42 193h-128zM193 479l-48 -214h96z" />
    <glyph glyph-name="B" unicode="B" horiz-adv-x="349" 
d="M140 46h-91v281h84c93 0 125 -53 125 -141c0 -84 -25 -140 -118 -140zM49 629h69c91 0 130 -53 130 -141c0 -83 -33 -144 -123 -144h-76v285zM266 488c0 103 -45 159 -150 159h-86v-619h113c103 0 134 64 134 158c0 67 -22 137 -94 152c65 25 83 85 83 150zM294 488
c0 -57 -11 -111 -53 -146c48 -34 64 -96 64 -156c0 -111 -38 -186 -162 -186h-140v674h113c125 0 178 -66 178 -186zM76 602v-230h49c70 0 95 49 95 116c0 70 -30 114 -102 114h-42zM140 73c71 0 90 45 90 113c0 70 -24 113 -97 113h-57v-226h64z" />
    <glyph glyph-name="C" unicode="C" horiz-adv-x="381" 
d="M167 21c113 0 137 86 137 182h-18c0 -82 -18 -164 -119 -164c-85 0 -120 68 -120 144v309c0 76 36 144 121 144c101 0 118 -81 118 -164h18c0 111 -38 181 -136 181c-97 0 -139 -70 -139 -161v-309c0 -91 41 -162 138 -162zM167 -6c-116 0 -166 82 -166 189v309
c0 107 51 189 167 189c134 0 164 -82 164 -237h-74c0 83 -4 164 -90 164c-66 0 -93 -54 -93 -116v-309c0 -62 26 -117 92 -117c79 0 91 71 91 165h74c0 -126 -15 -237 -165 -237z" />
    <glyph glyph-name="D" unicode="D" horiz-adv-x="378" 
d="M49 45v584h92c95 0 129 -66 129 -152v-280c0 -86 -34 -152 -129 -152h-92zM148 28c103 0 139 70 139 164v290c0 92 -37 165 -139 165h-116v-619h116zM148 0h-144v674h144c122 0 167 -84 167 -192v-290c0 -109 -44 -192 -167 -192zM77 73h64c75 0 101 54 101 124v280
c0 70 -26 125 -101 125h-64v-529z" />
    <glyph glyph-name="E" unicode="E" horiz-adv-x="323" 
d="M244 629v18h-215l1 -619h214v17h-197v282h132v17h-132v285h197zM272 602h-198v-230h132v-73h-132v-226h198v-73h-269l-1 674h270v-72z" />
    <glyph glyph-name="F" unicode="F" horiz-adv-x="310" 
d="M241 629v18h-215l1 -619h17v299h132v17h-132v285h197zM269 602h-198v-230h133v-73h-133v-299h-71l-1 674h270v-72z" />
    <glyph glyph-name="G" unicode="G" 
d="M169 21c95 0 138 75 138 161v162h-127v-17h109v-145c0 -74 -38 -143 -120 -143c-84 0 -120 66 -120 143v302c0 80 33 152 122 152c88 0 115 -77 115 -155h18c0 98 -38 172 -133 172s-140 -72 -140 -160v-311c0 -88 43 -161 138 -161zM169 -6c-115 0 -166 85 -166 188v311
c0 104 53 188 168 188c125 0 160 -87 160 -224h-73c0 77 -13 151 -87 151c-69 0 -95 -59 -95 -124v-302c0 -63 28 -116 93 -116c63 0 92 56 92 116v117h-108v73h181v-190c0 -101 -51 -188 -165 -188z" />
    <glyph glyph-name="H" unicode="H" horiz-adv-x="348" 
d="M260 647v-304h-212v304h-17v-619h17v298h212v-298h19v619h-19zM233 674h73v-674h-73v298h-157v-298h-73v674h73v-303h157v303z" />
    <glyph glyph-name="I" unicode="I" horiz-adv-x="144" 
d="M53 28v619h-19v-619h19zM80 0h-73v674h73v-674z" />
    <glyph glyph-name="J" unicode="J" horiz-adv-x="355" 
d="M144 21c95 0 125 73 125 156v473h-18v-464c0 -70 -21 -147 -107 -147c-92 0 -105 81 -105 159h-19c0 -119 35 -177 124 -177zM144 -6c-120 0 -151 81 -151 232h73c0 -74 3 -160 78 -160c64 0 79 63 79 120v492h74v-501c0 -98 -37 -183 -153 -183z" />
    <glyph glyph-name="K" unicode="K" horiz-adv-x="334" 
d="M262 647h-22l-190 -340v340h-19v-619h19v247l40 66l167 -313h21l-176 333zM311 675l-178 -315l192 -360h-85l-152 287l-11 -19v-268h-73v675h73v-267l147 267h87z" />
    <glyph glyph-name="L" unicode="L" horiz-adv-x="281" 
d="M195 28v17h-153v602h-18v-619h171zM222 0h-225v674h72v-601h153v-73z" />
    <glyph glyph-name="M" unicode="M" horiz-adv-x="427" 
d="M46 28v534l137 -534h17l135 535v-535h19v619h-17l-147 -573l-146 573h-16v-619h18zM74 0h-74v674h65l125 -488l126 488h65v-674h-73v348l-87 -348h-59l-88 343v-343z" />
    <glyph glyph-name="N" unicode="N" horiz-adv-x="385" 
d="M49 590c76 -188 149 -375 225 -562h15v619h-17v-562l-226 562h-16v-619h19v562zM76 446v-446h-73v674h61l180 -446v446h73v-674h-61c-39 94 -83 205 -180 446z" />
    <glyph glyph-name="O" unicode="O" 
d="M169 635c91 0 119 -74 119 -153v-294c0 -80 -29 -148 -119 -148s-120 72 -120 151v292c0 76 32 152 120 152zM169 21c99 0 137 70 137 162v309c0 87 -41 163 -137 163c-95 0 -138 -76 -138 -163v-309c0 -90 41 -162 138 -162zM169 -6c-116 0 -166 83 -166 189v309
c0 102 52 189 166 189c115 0 165 -87 165 -189v-309c0 -108 -47 -189 -165 -189zM169 607c-68 0 -93 -61 -93 -124v-292c0 -64 24 -124 93 -124c70 0 91 56 91 121v294c0 64 -21 125 -91 125z" />
    <glyph glyph-name="P" unicode="P" horiz-adv-x="343" 
d="M48 628h80c95 0 133 -49 133 -140c0 -94 -40 -144 -137 -144h-76v284zM48 326c133 0 232 -5 232 162c0 93 -41 159 -142 159h-107v-619h17v298zM76 298v-298h-73v674h135c121 0 169 -76 169 -186c0 -172 -96 -190 -231 -190zM76 601v-229h48c78 0 110 40 110 116
c0 73 -30 113 -106 113h-52z" />
    <glyph glyph-name="Q" unicode="Q" horiz-adv-x="393" 
d="M165 39c-85 0 -119 81 -119 155v296c0 78 34 146 119 146s120 -68 120 -145v-304c0 -39 -3 -82 -29 -114l-43 50h-21l52 -62c-23 -14 -52 -22 -79 -22zM322 -8l-55 65c33 35 35 83 35 129v309c0 87 -42 158 -137 158c-93 0 -137 -71 -137 -158v-309
c0 -86 43 -165 137 -165c32 0 64 9 90 27l45 -56h22zM379 -36h-92l-39 48c-26 -13 -54 -18 -83 -18c-113 0 -165 91 -165 192v309c0 103 53 186 165 186c114 0 165 -83 165 -186v-309c0 -44 -2 -90 -27 -129zM165 66c12 0 23 1 34 5l-65 80h93l24 -30c5 20 6 45 6 66v304
c0 62 -26 117 -92 117s-91 -55 -91 -118v-296c0 -61 25 -128 91 -128z" />
    <glyph glyph-name="R" unicode="R" horiz-adv-x="346" 
d="M124 344h-85v284h94c98 0 117 -58 117 -143c0 -95 -25 -141 -126 -141zM268 485c0 95 -25 162 -131 162h-117v-619h19v298h96c84 0 111 -35 111 -116v-182h19v185c0 53 -13 108 -73 122c66 20 76 90 76 150zM296 485c0 -51 -9 -111 -46 -148c31 -29 42 -79 42 -124v-213
h-73v210c0 62 -21 88 -84 88h-69v-298h-73v674h144c129 0 159 -77 159 -189zM124 372c79 0 98 37 98 113c0 69 -14 116 -89 116h-67v-229h58z" />
    <glyph glyph-name="S" unicode="S" horiz-adv-x="363" 
d="M160 22c90 0 133 51 133 140c0 146 -239 213 -239 349c0 68 38 125 111 125c97 0 103 -86 104 -155h17c0 104 -21 173 -121 173c-80 0 -128 -61 -128 -138c0 -81 71 -151 133 -196h-1c47 -39 106 -103 106 -159c0 -76 -38 -122 -115 -122c-99 0 -111 95 -111 163h-19
c0 -110 29 -180 130 -180zM160 -6c-125 0 -157 82 -157 236h73c0 -93 10 -163 84 -163c58 0 87 36 87 94c0 53 -53 103 -95 138l1 -1c-67 48 -144 126 -144 218c0 93 59 165 156 165c135 0 149 -101 149 -227h-73c0 78 -5 154 -76 154c-55 0 -83 -44 -83 -97
c0 -55 54 -101 108 -149v1c65 -58 130 -118 130 -201c0 -106 -52 -168 -160 -168z" />
    <glyph glyph-name="T" unicode="T" horiz-adv-x="347" 
d="M268 647h-242v-18h111v-601h19v601h112v18zM295 675v-73h-112v-601h-73v601h-112v73h297z" />
    <glyph glyph-name="U" unicode="U" horiz-adv-x="387" 
d="M165 22c91 0 139 61 139 149v476h-18v-471c0 -78 -38 -137 -121 -137c-82 0 -120 59 -120 137v471h-18l1 -476c0 -88 46 -149 137 -149zM165 -6c-109 0 -165 72 -165 177l-1 504h74v-499c0 -62 29 -109 92 -109c64 0 93 47 93 109v499h74v-504c0 -105 -57 -177 -167 -177
z" />
    <glyph glyph-name="V" unicode="V" horiz-adv-x="394" 
d="M305 647l-130 -576l-133 576h-19l144 -619h15l142 619h-19zM283 675h75l-154 -674h-59l-157 674h76l111 -480z" />
    <glyph glyph-name="W" unicode="W" horiz-adv-x="588" 
d="M502 647l-121 -565l-99 565h-15l-98 -565l-125 565h-17l135 -619h14l99 555l98 -555h15l133 619h-19zM480 674h75l-145 -674h-61l-74 420c-25 -141 -52 -286 -75 -420h-60l-147 674h73l99 -448c26 151 54 304 78 448h63l78 -448z" />
    <glyph glyph-name="X" unicode="X" horiz-adv-x="350" 
d="M19 28h19l110 281l111 -281h19l-120 306l117 313h-19l-108 -288l-107 288h-20c38 -105 78 -209 117 -313zM-22 0l131 335c-65 170 -102 273 -126 339h77l88 -237l88 237h78l-126 -339c15 -39 30 -80 130 -335h-78l-92 234l-91 -234h-79z" />
    <glyph glyph-name="Y" unicode="Y" horiz-adv-x="353" 
d="M276 647l-117 -310l-117 310h-19c40 -113 84 -223 126 -335v-284h19v284l127 335h-19zM257 674h78l-140 -367v-307h-74v307c-78 205 -116 306 -138 367h78l98 -258c33 86 68 176 98 258z" />
    <glyph glyph-name="Z" unicode="Z" horiz-adv-x="355" 
d="M45 48l234 576v23h-239v-19h220v-1l-235 -576v-23h257v18h-237v2zM306 618l-221 -545h225v-73h-312v57l222 544h-208v73h294v-56z" />
    <glyph glyph-name="Zcaron" unicode="&#x17d;" horiz-adv-x="355" 
d="M101 797l42 -84h29l42 84h-12l-40 -65h-8l-39 65h-14zM45 48l234 576v23h-239v-19h220v-1l-235 -576v-23h257v18h-237v2zM306 618l-221 -545h225v-73h-312v57l222 544h-208v73h294v-56zM56 824h75l27 -45l31 45h73l-75 -138h-62z" />
    <glyph glyph-name="oe" unicode="&#x153;" horiz-adv-x="619" 
d="M172 636c88 0 121 -66 121 -146v-293c0 -78 -34 -152 -121 -152s-122 68 -122 146v299c0 77 36 146 122 146zM511 636v17h-217v-69c-19 51 -72 69 -122 69c-97 0 -140 -74 -140 -163v-299c0 -93 41 -163 140 -163c57 0 101 26 122 80v-80h217v17h-200v287h124v18h-124
v286h200zM538 608h-199v-231h124v-73h-124v-231h199v-73h-272v28c-26 -19 -58 -28 -94 -28c-119 0 -167 83 -167 191v299c0 103 51 191 167 191c32 0 67 -8 94 -23v23h272v-73zM172 608c-66 0 -94 -56 -94 -118v-299c0 -63 27 -118 94 -118s93 60 93 124v293
c0 65 -25 118 -93 118z" />
    <glyph glyph-name="guillemotleft" unicode="&#xab;" horiz-adv-x="486" 
d="M443 647l-242 -310l243 -309h21c-82 102 -162 206 -243 309l243 310h-22zM289 647l-243 -310l244 -309h21c-82 101 -162 206 -244 309l244 310h-22zM276 674h92l-266 -337l85 -107c48 -64 133 -170 181 -230h-91l-267 337zM429 674h94l-266 -336l108 -139
c40 -51 116 -148 157 -199h-92l-265 337z" />
    <glyph glyph-name="guillemotright" unicode="&#xbb;" horiz-adv-x="509" 
d="M213 647c81 -104 162 -207 244 -310l-244 -309h20l244 309l-244 310h-20zM49 647c81 -104 163 -207 244 -310l-244 -309h21l245 309l-245 310h-21zM-7 674h91l266 -337l-266 -337h-93l267 337c-81 102 -189 239 -265 337zM157 674h90l266 -337l-266 -337h-92l266 337
c-81 102 -188 239 -264 337z" />
    <glyph glyph-name="ordmasculine" unicode="&#xba;" horiz-adv-x="232" 
d="M45 607c0 28 22 51 50 51c29 0 50 -23 50 -51s-22 -49 -50 -49s-50 21 -50 49zM28 607c0 -36 31 -67 67 -67c37 0 68 31 68 67c0 37 -31 67 -68 67c-36 0 -67 -30 -67 -67zM1 607c0 51 43 94 94 94s95 -43 95 -94s-44 -94 -95 -94s-94 43 -94 94zM72 607
c0 -12 11 -22 23 -22c13 0 23 10 23 22c0 14 -9 24 -23 24c-13 0 -23 -10 -23 -24z" />
    <glyph glyph-name="questiondown" unicode="&#xbf;" horiz-adv-x="346" 
d="M191 551v-43c0 -149 -40 -165 -76 -214v1c-23 -31 -43 -59 -43 -118c0 -58 15 -108 77 -108c63 0 78 94 78 163h73c0 -105 -31 -237 -152 -237c-111 0 -150 82 -150 178c0 81 38 141 83 197c34 46 37 81 37 142v39h73zM118 675h73v-84h-73v84zM164 647h-19v-29h19v29z
M164 508v15h-19c0 -48 0 -106 -43 -170v0c-47 -58 -76 -102 -76 -180c0 -81 31 -150 122 -150c99 0 124 101 124 182h-17c0 -69 -20 -164 -106 -164c-84 0 -105 64 -105 136c0 151 120 126 120 331z" />
    <glyph glyph-name="AE" unicode="&#xc6;" horiz-adv-x="569" 
d="M486 629v18h-225l-234 -619h22l119 301h102v-301h216v17h-198v284h123v17h-123v283h198zM513 602h-197v-228h122v-73h-122v-228h197v-73h-271v301h-56l-118 -301h-82l256 674h271v-72zM259 575l11 30v-76v-183h-101zM209 374h33v83z" />
    <glyph glyph-name="OE" unicode="&#x152;" horiz-adv-x="592" 
d="M172 636c88 0 121 -66 121 -146v-293c0 -78 -34 -152 -121 -152s-122 68 -122 146v299c0 77 36 146 122 146zM511 636v17h-217v-69c-19 51 -72 69 -122 69c-97 0 -140 -74 -140 -163v-299c0 -93 41 -163 140 -163c57 0 101 26 122 80v-80h217v17h-200v287h124v18h-124
v286h200zM538 608h-199v-231h124v-73h-124v-231h199v-73h-272v28c-26 -19 -58 -28 -94 -28c-119 0 -167 83 -167 191v299c0 103 51 191 167 191c32 0 67 -8 94 -23v23h272v-73zM172 608c-66 0 -94 -56 -94 -118v-299c0 -63 27 -118 94 -118s93 60 93 124v293
c0 65 -25 118 -93 118z" />
    <glyph glyph-name="Eth" unicode="&#xd0;" horiz-adv-x="375" 
d="M146 0h-144v300h-88v73h88v301h144c122 0 167 -84 167 -192v-290c0 -109 -44 -192 -167 -192zM75 73h65c74 0 100 55 100 124v280c0 69 -26 125 -100 125h-65v-229h80v-73h-80v-227zM146 28c103 0 140 70 140 164v290c0 92 -38 165 -140 165h-116v-302h-89v-17h89v-300
h116zM48 45v283h79v17h-79v284h92c94 0 127 -67 127 -152v-280c0 -85 -33 -152 -127 -152h-92z" />
    <glyph glyph-name="multiply" unicode="&#xd7;" horiz-adv-x="377" 
d="M71 429l94 -94l-94 -93l15 -12l93 92l93 -93l13 13l-93 93l93 94l-13 13l-93 -94l-93 93zM31 431l57 47l91 -91l93 93l52 -51l-94 -94l94 -93l-52 -52l-93 94l-91 -91l-58 46l96 96z" />
    <glyph glyph-name="Oslash" unicode="&#xd8;" 
d="M288 486v-297c0 -77 -35 -144 -120 -144c-34 0 -66 14 -89 39l193 481c8 -25 16 -53 16 -79zM168 629c36 0 70 -13 93 -42c-63 -162 -129 -323 -195 -484c-10 27 -18 57 -18 86v297c0 74 36 143 120 143zM285 647c-5 -14 -10 -28 -16 -41c-29 25 -64 41 -101 41
c-96 0 -137 -74 -137 -161v-297c0 -37 5 -77 25 -109l-19 -52h19c4 11 10 23 14 34c28 -23 62 -34 98 -34c98 0 138 69 138 161v297c0 35 -8 70 -26 100l25 61h-20zM264 674h83l-36 -86c16 -32 23 -66 23 -102v-297c0 -107 -49 -189 -166 -189c-30 0 -59 7 -85 21l-7 -21
h-77l27 77c-17 35 -23 75 -23 112v297c0 102 50 188 165 188c32 0 61 -9 88 -25zM168 602c-65 0 -92 -56 -92 -116v-287c53 132 101 249 153 382c-16 15 -38 21 -61 21zM76 199v0zM168 73c66 0 92 54 92 116v272l-149 -370c16 -11 36 -18 57 -18zM260 461v0z" />
    <glyph glyph-name="quotesinglbase" unicode="&#x201a;" horiz-adv-x="99" 
d="M13 -11l30 68h-22l-24 -68h16zM32 -39h-75l45 123h82z" />
    <glyph glyph-name="quotedblbase" unicode="&#x201e;" horiz-adv-x="248" 
d="M147 -11l29 68h-21l-24 -68h16zM15 -11l29 68h-21l-25 -68h17zM33 -39h-74l45 123h81zM165 -39h-71l42 123h82z" />
    <glyph glyph-name="germandbls" unicode="&#xdf;" horiz-adv-x="346" 
d="M40 27v409c0 60 7 179 92 179s99 -55 99 -128c0 -67 -18 -146 -100 -149v-17c82 -6 133 -59 133 -142c0 -94 -38 -135 -133 -135v-17c105 0 150 48 150 152c0 73 -35 133 -109 146v12c60 12 77 100 77 150c0 79 -24 145 -114 145c-93 0 -113 -91 -113 -168v-437h18zM67 0
h-72v464c0 90 25 195 140 195c112 0 141 -79 141 -172c0 -44 -12 -114 -52 -151c56 -30 84 -89 84 -157c0 -123 -61 -179 -203 -179v71c94 0 132 33 132 108c0 67 -51 111 -132 117v68c81 3 100 68 100 123c0 58 -11 101 -73 101c-60 0 -65 -101 -65 -152v-436z" />
    <glyph glyph-name="Thorn" unicode="&#xde;" horiz-adv-x="348" 
d="M155 501c80 0 103 -67 103 -135v-45c0 -69 -23 -136 -103 -136s-103 67 -103 136v45c0 68 23 135 103 135zM155 167c84 0 121 68 121 144v64c0 75 -38 144 -121 144c-53 0 -92 -29 -105 -65v193h-17v-619h17v203c21 -50 61 -64 105 -64zM155 140c-30 0 -55 8 -77 23v-163
h-73v674h73v-152c23 15 47 24 77 24c103 0 149 -81 149 -171v-64c0 -91 -45 -171 -149 -171zM155 473c-59 0 -76 -52 -76 -107v-45c0 -56 17 -109 76 -109s75 53 75 109v45c0 55 -16 107 -75 107z" />
    <glyph glyph-name="cedilla" unicode="&#xb8;" horiz-adv-x="184" 
d="M85 -48c0 -13 -14 -27 -25 -33l2 -7c21 5 42 26 42 49c0 17 -10 28 -24 31c-3 1 -7 1 -11 1c-5 0 -10 -1 -14 -2c-3 -1 -5 -2 -8 -3c17 -4 38 -15 38 -36zM58 -48c0 5 -12 9 -22 10v53v26h35v-22c29 0 60 -24 60 -58c0 -36 -41 -70 -83 -81l-25 51c14 7 35 18 35 21z" />
    <glyph glyph-name="bracketleft" unicode="[" horiz-adv-x="196" 
d="M40 647v-619h96v17h-79v584h79v18h-96zM12 674h152v-72h-79v-529h79v-73h-152v674z" />
    <glyph glyph-name="bracketright" unicode="]" horiz-adv-x="196" 
d="M34 647v-18h78v-584h-78v-17h97v619h-97zM7 674h151v-674h-151v73h78v529h-78v72z" />
    <glyph glyph-name="asciicircum" unicode="^" horiz-adv-x="380" 
d="M21 591l141 87l141 -87v18l-141 85c-47 -28 -94 -57 -141 -85v-18zM-7 541v83l169 103l169 -103v-83l-169 105c-49 -31 -125 -79 -169 -105z" />
    <glyph glyph-name="bullet" unicode="&#x2022;" horiz-adv-x="180" 
d="M61 332c0 -9 7 -15 15 -15s14 7 14 15c0 7 -6 15 -14 15s-15 -7 -15 -15zM33 332c0 22 20 43 43 43c25 0 41 -23 41 -43c0 -22 -16 -43 -41 -43c-23 0 -43 19 -43 43z" />
    <glyph glyph-name="degree" unicode="&#xb0;" horiz-adv-x="232" 
d="M46 620c0 29 21 51 49 51c29 0 53 -21 53 -51c0 -29 -24 -50 -53 -50c-28 0 -49 22 -49 50zM27 619c0 -36 31 -68 68 -68c38 0 70 30 70 68c0 39 -32 69 -70 69c-37 0 -68 -32 -68 -69zM0 619c0 52 42 97 95 97s98 -42 98 -97c0 -54 -45 -96 -98 -96s-95 45 -95 96z
M73 620c0 -13 10 -23 22 -23c14 0 25 10 25 23c0 14 -11 23 -25 23c-12 0 -22 -10 -22 -23z" />
    <glyph glyph-name="plusminus" unicode="&#xb1;" horiz-adv-x="346" 
d="M268 419h-110v116h-18v-116h-108v-20h108v-117h18v117h110v20zM295 446v-74h-109v-118h-74v118h-108v74h108v117h74v-117h109zM259 169v17h-226v-17h226zM286 141h-281v73h281v-73z" />
    <glyph glyph-name="copyright" unicode="&#xa9;" horiz-adv-x="751" 
d="M345 130c72 0 90 54 90 117h-17c0 -49 -14 -101 -73 -101c-52 0 -73 43 -73 89v205c0 46 21 88 73 88c60 0 73 -51 73 -101h17v13c0 59 -27 104 -90 104s-90 -44 -90 -104v-205c0 -61 26 -105 90 -105zM55 340c0 162 129 293 292 293c162 0 295 -130 295 -293
c0 -164 -132 -295 -295 -295c-164 0 -292 132 -292 295zM38 340c0 -170 139 -310 309 -310c171 0 310 139 310 310s-139 309 -310 309s-309 -138 -309 -309zM11 340c0 186 149 337 336 337c186 0 338 -151 338 -337c0 -187 -152 -337 -338 -337s-336 152 -336 337zM82 340
c0 -147 117 -267 265 -267s267 119 267 267s-120 265 -267 265s-265 -118 -265 -265zM345 103c-84 0 -118 56 -118 132v205c0 75 35 131 118 131s117 -57 117 -131v-41h-71c0 50 -8 102 -46 102c-32 0 -45 -30 -45 -61v-205c0 -32 13 -61 45 -61c37 0 46 52 46 101h71
c0 -94 -23 -172 -117 -172z" />
    <glyph glyph-name="registered" unicode="&#xae;" horiz-adv-x="751" 
d="M346 358h-47v168h47c50 0 64 -28 64 -75c0 -44 -10 -93 -64 -93zM425 451c0 54 -15 90 -75 90h-66v-381h15v183h47c40 0 61 -11 61 -54v-129h16v133c0 26 -15 47 -38 58c30 23 40 64 40 100zM55 340c0 162 129 293 292 293c162 0 295 -130 295 -293
c0 -164 -132 -295 -295 -295c-164 0 -292 132 -292 295zM38 340c0 -170 139 -310 309 -310c171 0 310 139 310 310s-139 309 -310 309s-309 -138 -309 -309zM11 340c0 186 149 337 336 337c186 0 338 -151 338 -337c0 -187 -152 -337 -338 -337s-336 152 -336 337zM82 340
c0 -147 117 -267 265 -267s267 119 267 267s-120 265 -267 265s-265 -118 -265 -265zM452 451c0 -31 -8 -68 -26 -96c14 -16 24 -38 24 -62v-161h-70v157c0 21 -12 27 -34 27h-19v-184h-70v436h93c82 0 102 -46 102 -117zM346 386c31 0 37 34 37 65c0 29 -9 48 -37 48h-19
v-113h19z" />
    <glyph glyph-name="braceleft" unicode="{" horiz-adv-x="216" 
d="M155 647c-177 0 -41 -269 -131 -308v-26c89 -46 -39 -286 131 -285v18c-143 0 -29 228 -112 277v6c89 65 -39 299 112 299v19zM182 674v-73c-68 0 -80 -35 -80 -78c0 -14 1 -28 2 -43s2 -33 2 -47c0 -40 -5 -78 -26 -106c22 -27 24 -65 24 -107v-29c0 -10 -1 -20 -1 -30
c0 -47 10 -88 79 -88v-73c-135 -2 -150 73 -150 154v59c0 36 -4 67 -35 83v60c29 13 35 43 35 77c0 12 -1 24 -1 37c-1 13 -1 32 -1 44c0 84 18 160 152 160z" />
    <glyph glyph-name="braceright" unicode="}" horiz-adv-x="220" 
d="M36 628c149 0 25 -229 112 -299v-6c-87 -49 33 -277 -112 -277v-18c170 -1 41 239 130 285v26c-90 39 46 308 -130 308v-19zM8 601v73c134 0 153 -76 153 -160c0 -13 0 -30 -1 -44c0 -13 -1 -25 -1 -37c0 -34 5 -64 35 -77v-60c-31 -16 -35 -47 -35 -83v-59
c0 -81 -16 -156 -151 -154v73c69 0 78 38 78 82v34c0 12 -1 24 -1 36c0 40 4 77 26 103c-21 30 -25 69 -25 111v41c1 14 1 27 1 40c0 44 -10 81 -79 81z" />
    <glyph glyph-name="numbersign" unicode="#" horiz-adv-x="562" 
d="M190 416h143l-30 -159h-144zM95 28h17l43 211h144l-41 -211h18l40 211h124v18h-118c9 53 20 106 30 159h118v18h-114l41 213h-18c-13 -71 -29 -142 -42 -213h-144l42 213h-18l-42 -213h-142v-18h138l-30 -159h-136v-18h131zM62 0l41 211h-126v74h142l19 103h-132v74h146
l43 212h74l-43 -212h88l17 84c7 34 17 92 24 128h75l-41 -212h108v-74h-123c-3 -11 -4 -22 -6 -34c-7 -33 -8 -34 -13 -69h113v-74h-128c-12 -64 -30 -152 -41 -211h-75l42 211h-88l-44 -211h-72zM212 388l-20 -103h88l20 103h-88z" />
    <glyph glyph-name="exclam" unicode="!" horiz-adv-x="130" 
d="M25 28h18v30h-18v-30zM25 647v-506h18v506h-18zM-3 675h74v-561h-74v561zM-3 1v84h74v-84h-74z" />
    <glyph glyph-name="quotedbl" unicode="&#x22;" horiz-adv-x="201" 
d="M122 647v-71h18v71h-18zM27 576h18v71h-18v-71zM-1 548v126h74v-126h-74zM95 674h73v-126h-73v126z" />
    <glyph glyph-name="scaron" unicode="&#x161;" horiz-adv-x="363" 
d="M160 22c90 0 133 51 133 140c0 146 -239 213 -239 349c0 68 38 125 111 125c97 0 103 -86 104 -155h17c0 104 -21 173 -121 173c-80 0 -128 -61 -128 -138c0 -81 71 -151 133 -196h-1c47 -39 106 -103 106 -159c0 -76 -38 -122 -115 -122c-99 0 -111 95 -111 163h-19
c0 -110 29 -180 130 -180zM160 -6c-125 0 -157 82 -157 236h73c0 -93 10 -163 84 -163c58 0 87 36 87 94c0 53 -53 103 -95 138l1 -1c-67 48 -144 126 -144 218c0 93 59 165 156 165c135 0 149 -101 149 -227h-73c0 78 -5 154 -76 154c-55 0 -83 -44 -83 -97
c0 -55 54 -101 108 -149v1c65 -58 130 -118 130 -201c0 -106 -52 -168 -160 -168zM108 818l44 -84h28l43 84h-14l-39 -65h-7l-40 65h-15zM64 846h75l27 -45l29 45h77l-74 -140h-62z" />
    <glyph glyph-name="Ydieresis" unicode="&#x178;" horiz-adv-x="353" 
d="M276 647l-117 -310l-117 310h-19c40 -113 84 -223 126 -335v-284h19v284l127 335h-19zM257 674h78l-140 -367v-307h-74v307c-78 205 -116 306 -138 367h78l98 -258c33 86 68 176 98 258zM244 760h-18v-29h18v29zM99 760h-19v-29h19v29zM126 788v-84h-73v84h73zM272 788
v-84h-74v84h74z" />
    <glyph glyph-name="thorn" unicode="&#xfe;" horiz-adv-x="348" 
d="M155 501c80 0 103 -67 103 -135v-45c0 -69 -23 -136 -103 -136s-103 67 -103 136v45c0 68 23 135 103 135zM155 167c84 0 121 68 121 144v64c0 75 -38 144 -121 144c-53 0 -92 -29 -105 -65v193h-17v-619h17v203c21 -50 61 -64 105 -64zM155 140c-30 0 -55 8 -77 23v-163
h-73v674h73v-152c23 15 47 24 77 24c103 0 149 -81 149 -171v-64c0 -91 -45 -171 -149 -171zM155 473c-59 0 -76 -52 -76 -107v-45c0 -56 17 -109 76 -109s75 53 75 109v45c0 55 -16 107 -75 107z" />
    <glyph glyph-name="Scaron" unicode="&#x160;" horiz-adv-x="363" 
d="M160 22c90 0 133 51 133 140c0 146 -239 213 -239 349c0 68 38 125 111 125c97 0 103 -86 104 -155h17c0 104 -21 173 -121 173c-80 0 -128 -61 -128 -138c0 -81 71 -151 133 -196h-1c47 -39 106 -103 106 -159c0 -76 -38 -122 -115 -122c-99 0 -111 95 -111 163h-19
c0 -110 29 -180 130 -180zM160 -6c-125 0 -157 82 -157 236h73c0 -93 10 -163 84 -163c58 0 87 36 87 94c0 53 -53 103 -95 138l1 -1c-67 48 -144 126 -144 218c0 93 59 165 156 165c135 0 149 -101 149 -227h-73c0 78 -5 154 -76 154c-55 0 -83 -44 -83 -97
c0 -55 54 -101 108 -149v1c65 -58 130 -118 130 -201c0 -106 -52 -168 -160 -168zM105 819l44 -84h28l43 84h-14l-39 -65h-7l-40 65h-15zM61 847h75l27 -45l29 45h77l-74 -140h-62z" />
    <glyph glyph-name="periodcentered" unicode="&#xb7;" horiz-adv-x="155" 
d="M61 332c0 -9 7 -15 15 -15s14 7 14 15c0 7 -6 15 -14 15s-15 -7 -15 -15zM33 332c0 22 20 43 43 43c25 0 41 -23 41 -43c0 -22 -16 -43 -41 -43c-23 0 -43 19 -43 43z" />
    <glyph glyph-name="ae" unicode="&#xe6;" horiz-adv-x="569" 
d="M486 629v18h-225l-234 -619h22l119 301h102v-301h216v17h-198v284h123v17h-123v283h198zM513 602h-197v-228h122v-73h-122v-228h197v-73h-271v301h-56l-118 -301h-82l256 674h271v-72zM259 575l11 30v-76v-183h-101zM209 374h33v83z" />
    <glyph glyph-name="Agrave" unicode="&#xc0;" horiz-adv-x="435" 
d="M193 601l83 -363h-166zM63 28l43 192h174l43 -192h18l-141 619h-14l-142 -619h19zM85 0h-75l154 674h58l153 -674h-75l-42 193h-128zM193 479l-48 -214h96zM235 733l-47 76h-21l50 -76h18zM284 706h-81l-88 131h88z" />
    <glyph glyph-name="agrave" unicode="&#xe0;" horiz-adv-x="435" 
d="M193 601l83 -363h-166zM63 28l43 192h174l43 -192h18l-141 619h-14l-142 -619h19zM85 0h-75l154 674h58l153 -674h-75l-42 193h-128zM193 479l-48 -214h96zM235 733l-47 76h-21l50 -76h18zM284 706h-81l-88 131h88z" />
    <glyph glyph-name="Aacute" unicode="&#xc1;" horiz-adv-x="435" 
d="M193 601l83 -363h-166zM63 28l43 192h174l43 -192h18l-141 619h-14l-142 -619h19zM85 0h-75l154 674h58l153 -674h-75l-42 193h-128zM193 479l-48 -214h96zM173 734l48 75h-19l-42 -75h13zM187 707h-74l73 130h85z" />
    <glyph glyph-name="aacute" unicode="&#xe1;" horiz-adv-x="435" 
d="M193 601l83 -363h-166zM63 28l43 192h174l43 -192h18l-141 619h-14l-142 -619h19zM85 0h-75l154 674h58l153 -674h-75l-42 193h-128zM193 479l-48 -214h96zM173 734l48 75h-19l-42 -75h13zM187 707h-74l73 130h85z" />
    <glyph glyph-name="Acircumflex" unicode="&#xc2;" horiz-adv-x="435" 
d="M193 601l83 -363h-166zM63 28l43 192h174l43 -192h18l-141 619h-14l-142 -619h19zM85 0h-75l154 674h58l153 -674h-75l-42 193h-128zM193 479l-48 -214h96zM149 728l39 65h6l42 -65h13l-43 84h-29l-43 -84h15zM164 700h-74l70 140h63l74 -140h-74l-31 44z" />
    <glyph glyph-name="acircumflex" unicode="&#xe2;" horiz-adv-x="435" 
d="M193 601l83 -363h-166zM63 28l43 192h174l43 -192h18l-141 619h-14l-142 -619h19zM85 0h-75l154 674h58l153 -674h-75l-42 193h-128zM193 479l-48 -214h96zM149 728l39 65h6l42 -65h13l-43 84h-29l-43 -84h15zM164 700h-74l70 140h63l74 -140h-74l-31 44z" />
    <glyph glyph-name="Atilde" unicode="&#xc3;" horiz-adv-x="435" 
d="M193 601l83 -363h-166zM63 28l43 192h174l43 -192h18l-141 619h-14l-142 -619h19zM85 0h-75l154 674h58l153 -674h-75l-42 193h-128zM193 479l-48 -214h96zM297 773c-9 -3 -21 -9 -30 -9c-43 0 -79 40 -128 40c-24 0 -46 -15 -64 -28l15 -15c14 14 31 23 51 23
c43 0 77 -39 124 -39c16 0 33 6 48 12zM303 808l56 -63c-34 -13 -73 -28 -94 -28c-31 0 -54 11 -77 23c-17 8 -32 17 -47 17c-12 0 -30 -14 -51 -34l-57 57c34 24 74 51 106 51c31 0 56 -12 80 -23h-1c18 -8 34 -16 49 -16c4 0 14 3 22 7z" />
    <glyph glyph-name="atilde" unicode="&#xe3;" horiz-adv-x="435" 
d="M193 601l83 -363h-166zM63 28l43 192h174l43 -192h18l-141 619h-14l-142 -619h19zM85 0h-75l154 674h58l153 -674h-75l-42 193h-128zM193 479l-48 -214h96zM297 773c-9 -3 -21 -9 -30 -9c-43 0 -79 40 -128 40c-24 0 -46 -15 -64 -28l15 -15c14 14 31 23 51 23
c43 0 77 -39 124 -39c16 0 33 6 48 12zM303 808l56 -63c-34 -13 -73 -28 -94 -28c-31 0 -54 11 -77 23c-17 8 -32 17 -47 17c-12 0 -30 -14 -51 -34l-57 57c34 24 74 51 106 51c31 0 56 -12 80 -23h-1c18 -8 34 -16 49 -16c4 0 14 3 22 7z" />
    <glyph glyph-name="Adieresis" unicode="&#xc4;" horiz-adv-x="435" 
d="M193 601l83 -363h-166zM63 28l43 192h174l43 -192h18l-141 619h-14l-142 -619h19zM85 0h-75l154 674h58l153 -674h-75l-42 193h-128zM193 479l-48 -214h96zM274 774h-18v-29h18v29zM129 774h-19v-29h19v29zM156 802v-84h-73v84h73zM302 802v-84h-74v84h74z" />
    <glyph glyph-name="adieresis" unicode="&#xe4;" horiz-adv-x="435" 
d="M193 601l83 -363h-166zM63 28l43 192h174l43 -192h18l-141 619h-14l-142 -619h19zM85 0h-75l154 674h58l153 -674h-75l-42 193h-128zM193 479l-48 -214h96zM274 774h-18v-29h18v29zM129 774h-19v-29h19v29zM156 802v-84h-73v84h73zM302 802v-84h-74v84h74z" />
    <glyph glyph-name="Aring" unicode="&#xc5;" horiz-adv-x="435" 
d="M193 601l83 -363h-166zM63 28l43 192h174l43 -192h18l-141 619h-14l-142 -619h19zM85 0h-75l154 674h58l153 -674h-75l-42 193h-128zM193 479l-48 -214h96zM148 750c0 27 18 45 45 45c25 0 46 -20 46 -46s-21 -44 -46 -44c-28 0 -45 18 -45 45zM129 749
c0 -35 29 -62 64 -62s64 27 64 62s-29 65 -64 65s-64 -30 -64 -65zM102 749c0 50 40 92 91 92c49 0 92 -42 92 -92s-43 -90 -92 -90c-51 0 -91 40 -91 90zM175 750c0 -11 7 -17 18 -17c10 0 18 6 18 16s-8 19 -18 19s-18 -8 -18 -18z" />
    <glyph glyph-name="aring" unicode="&#xe5;" horiz-adv-x="435" 
d="M193 601l83 -363h-166zM63 28l43 192h174l43 -192h18l-141 619h-14l-142 -619h19zM85 0h-75l154 674h58l153 -674h-75l-42 193h-128zM193 479l-48 -214h96zM148 750c0 27 18 45 45 45c25 0 46 -20 46 -46s-21 -44 -46 -44c-28 0 -45 18 -45 45zM129 749
c0 -35 29 -62 64 -62s64 27 64 62s-29 65 -64 65s-64 -30 -64 -65zM102 749c0 50 40 92 91 92c49 0 92 -42 92 -92s-43 -90 -92 -90c-51 0 -91 40 -91 90zM175 750c0 -11 7 -17 18 -17c10 0 18 6 18 16s-8 19 -18 19s-18 -8 -18 -18z" />
    <glyph glyph-name="Egrave" unicode="&#xc8;" horiz-adv-x="323" 
d="M244 629v18h-215l1 -619h214v17h-197v282h132v17h-132v285h197zM272 602h-198v-230h132v-73h-132v-226h198v-73h-269l-1 674h270v-72zM169 736l-47 76h-21l50 -76h18zM218 709h-81l-88 131h88z" />
    <glyph glyph-name="egrave" unicode="&#xe8;" horiz-adv-x="323" 
d="M244 629v18h-215l1 -619h214v17h-197v282h132v17h-132v285h197zM272 602h-198v-230h132v-73h-132v-226h198v-73h-269l-1 674h270v-72zM169 736l-47 76h-21l50 -76h18zM218 709h-81l-88 131h88z" />
    <glyph glyph-name="Eacute" unicode="&#xc9;" horiz-adv-x="323" 
d="M244 629v18h-215l1 -619h214v17h-197v282h132v17h-132v285h197zM272 602h-198v-230h132v-73h-132v-226h198v-73h-269l-1 674h270v-72zM127 744l48 75h-19l-42 -75h13zM141 717h-74l73 130h85z" />
    <glyph glyph-name="eacute" unicode="&#xe9;" horiz-adv-x="323" 
d="M244 629v18h-215l1 -619h214v17h-197v282h132v17h-132v285h197zM272 602h-198v-230h132v-73h-132v-226h198v-73h-269l-1 674h270v-72zM127 744l48 75h-19l-42 -75h13zM141 717h-74l73 130h85z" />
    <glyph glyph-name="Ecircumflex" unicode="&#xca;" horiz-adv-x="323" 
d="M244 629v18h-215l1 -619h214v17h-197v282h132v17h-132v285h197zM272 602h-198v-230h132v-73h-132v-226h198v-73h-269l-1 674h270v-72zM100 728l39 65h6l42 -65h13l-43 84h-29l-43 -84h15zM115 700h-74l70 140h63l74 -140h-74l-31 44z" />
    <glyph glyph-name="Edieresis" unicode="&#xcb;" horiz-adv-x="323" 
d="M244 629v18h-215l1 -619h214v17h-197v282h132v17h-132v285h197zM272 602h-198v-230h132v-73h-132v-226h198v-73h-269l-1 674h270v-72zM221 777h-18v-29h18v29zM76 777h-19v-29h19v29zM103 805v-84h-73v84h73zM249 805v-84h-74v84h74z" />
    <glyph glyph-name="edieresis" unicode="&#xeb;" horiz-adv-x="323" 
d="M244 629v18h-215l1 -619h214v17h-197v282h132v17h-132v285h197zM272 602h-198v-230h132v-73h-132v-226h198v-73h-269l-1 674h270v-72zM221 777h-18v-29h18v29zM76 777h-19v-29h19v29zM103 805v-84h-73v84h73zM249 805v-84h-74v84h74z" />
    <glyph glyph-name="Igrave" unicode="&#xcc;" horiz-adv-x="144" 
d="M53 28v619h-19v-619h19zM80 0h-73v674h73v-674zM71 740l-47 76h-21l50 -76h18zM120 713h-81l-88 131h88z" />
    <glyph glyph-name="igrave" unicode="&#xec;" horiz-adv-x="144" 
d="M53 28v619h-19v-619h19zM80 0h-73v674h73v-674zM71 740l-47 76h-21l50 -76h18zM120 713h-81l-88 131h88z" />
    <glyph glyph-name="Iacute" unicode="&#xcd;" horiz-adv-x="144" 
d="M53 28v619h-19v-619h19zM80 0h-73v674h73v-674zM24 742l48 75h-19l-42 -75h13zM38 715h-74l73 130h85z" />
    <glyph glyph-name="iacute" unicode="&#xed;" horiz-adv-x="144" 
d="M53 28v619h-19v-619h19zM80 0h-73v674h73v-674zM24 742l48 75h-19l-42 -75h13zM38 715h-74l73 130h85z" />
    <glyph glyph-name="Icircumflex" unicode="&#xce;" horiz-adv-x="144" 
d="M53 28v619h-19v-619h19zM80 0h-73v674h73v-674zM0 728l39 65h6l42 -65h13l-43 84h-29l-43 -84h15zM15 700h-74l70 140h63l74 -140h-74l-31 44z" />
    <glyph glyph-name="icircumflex" unicode="&#xee;" horiz-adv-x="144" 
d="M53 28v619h-19v-619h19zM80 0h-73v674h73v-674zM0 728l39 65h6l42 -65h13l-43 84h-29l-43 -84h15zM15 700h-74l70 140h63l74 -140h-74l-31 44z" />
    <glyph glyph-name="Idieresis" unicode="&#xcf;" horiz-adv-x="144" 
d="M53 28v619h-19v-619h19zM80 0h-73v674h73v-674zM125 777h-18v-29h18v29zM-20 777h-19v-29h19v29zM7 805v-84h-73v84h73zM153 805v-84h-74v84h74z" />
    <glyph glyph-name="idieresis" unicode="&#xef;" horiz-adv-x="144" 
d="M53 28v619h-19v-619h19zM80 0h-73v674h73v-674zM125 777h-18v-29h18v29zM-20 777h-19v-29h19v29zM7 805v-84h-73v84h73zM153 805v-84h-74v84h74z" />
    <glyph glyph-name="Ntilde" unicode="&#xd1;" horiz-adv-x="385" 
d="M49 590c76 -188 149 -375 225 -562h15v619h-17v-562l-226 562h-16v-619h19v562zM76 446v-446h-73v674h61l180 -446v446h73v-674h-61c-39 94 -83 205 -180 446zM254 766c-9 -3 -21 -9 -30 -9c-43 0 -79 40 -128 40c-24 0 -46 -15 -64 -28l15 -15c14 14 31 23 51 23
c43 0 77 -39 124 -39c16 0 33 6 48 12zM260 801l56 -63c-34 -13 -73 -28 -94 -28c-31 0 -54 11 -77 23c-17 8 -32 17 -47 17c-12 0 -30 -14 -51 -34l-57 57c34 24 74 51 106 51c31 0 56 -12 80 -23h-1c18 -8 34 -16 49 -16c4 0 14 3 22 7z" />
    <glyph glyph-name="ntilde" unicode="&#xf1;" horiz-adv-x="385" 
d="M49 590c76 -188 149 -375 225 -562h15v619h-17v-562l-226 562h-16v-619h19v562zM76 446v-446h-73v674h61l180 -446v446h73v-674h-61c-39 94 -83 205 -180 446zM254 766c-9 -3 -21 -9 -30 -9c-43 0 -79 40 -128 40c-24 0 -46 -15 -64 -28l15 -15c14 14 31 23 51 23
c43 0 77 -39 124 -39c16 0 33 6 48 12zM260 801l56 -63c-34 -13 -73 -28 -94 -28c-31 0 -54 11 -77 23c-17 8 -32 17 -47 17c-12 0 -30 -14 -51 -34l-57 57c34 24 74 51 106 51c31 0 56 -12 80 -23h-1c18 -8 34 -16 49 -16c4 0 14 3 22 7z" />
    <glyph glyph-name="Ograve" unicode="&#xd2;" 
d="M169 635c91 0 119 -74 119 -153v-294c0 -80 -29 -148 -119 -148s-120 72 -120 151v292c0 76 32 152 120 152zM169 21c99 0 137 70 137 162v309c0 87 -41 163 -137 163c-95 0 -138 -76 -138 -163v-309c0 -90 41 -162 138 -162zM169 -6c-116 0 -166 83 -166 189v309
c0 102 52 189 166 189c115 0 165 -87 165 -189v-309c0 -108 -47 -189 -165 -189zM169 607c-68 0 -93 -61 -93 -124v-292c0 -64 24 -124 93 -124c70 0 91 56 91 121v294c0 64 -21 125 -91 125zM192 733l-47 76h-21l50 -76h18zM241 706h-81l-88 131h88z" />
    <glyph glyph-name="ograve" unicode="&#xf2;" 
d="M169 635c91 0 119 -74 119 -153v-294c0 -80 -29 -148 -119 -148s-120 72 -120 151v292c0 76 32 152 120 152zM169 21c99 0 137 70 137 162v309c0 87 -41 163 -137 163c-95 0 -138 -76 -138 -163v-309c0 -90 41 -162 138 -162zM169 -6c-116 0 -166 83 -166 189v309
c0 102 52 189 166 189c115 0 165 -87 165 -189v-309c0 -108 -47 -189 -165 -189zM169 607c-68 0 -93 -61 -93 -124v-292c0 -64 24 -124 93 -124c70 0 91 56 91 121v294c0 64 -21 125 -91 125zM192 733l-47 76h-21l50 -76h18zM241 706h-81l-88 131h88z" />
    <glyph glyph-name="Ugrave" unicode="&#xd9;" horiz-adv-x="387" 
d="M165 22c91 0 139 61 139 149v476h-18v-471c0 -78 -38 -137 -121 -137c-82 0 -120 59 -120 137v471h-18l1 -476c0 -88 46 -149 137 -149zM165 -6c-109 0 -165 72 -165 177l-1 504h74v-499c0 -62 29 -109 92 -109c64 0 93 47 93 109v499h74v-504c0 -105 -57 -177 -167 -177
zM192 733l-47 76h-21l50 -76h18zM241 706h-81l-88 131h88z" />
    <glyph glyph-name="ugrave" unicode="&#xf9;" horiz-adv-x="387" 
d="M165 22c91 0 139 61 139 149v476h-18v-471c0 -78 -38 -137 -121 -137c-82 0 -120 59 -120 137v471h-18l1 -476c0 -88 46 -149 137 -149zM165 -6c-109 0 -165 72 -165 177l-1 504h74v-499c0 -62 29 -109 92 -109c64 0 93 47 93 109v499h74v-504c0 -105 -57 -177 -167 -177
zM192 733l-47 76h-21l50 -76h18zM241 706h-81l-88 131h88z" />
    <glyph glyph-name="Oacute" unicode="&#xd3;" 
d="M169 635c91 0 119 -74 119 -153v-294c0 -80 -29 -148 -119 -148s-120 72 -120 151v292c0 76 32 152 120 152zM169 21c99 0 137 70 137 162v309c0 87 -41 163 -137 163c-95 0 -138 -76 -138 -163v-309c0 -90 41 -162 138 -162zM169 -6c-116 0 -166 83 -166 189v309
c0 102 52 189 166 189c115 0 165 -87 165 -189v-309c0 -108 -47 -189 -165 -189zM169 607c-68 0 -93 -61 -93 -124v-292c0 -64 24 -124 93 -124c70 0 91 56 91 121v294c0 64 -21 125 -91 125zM173 734l48 75h-19l-42 -75h13zM187 707h-74l73 130h85z" />
    <glyph glyph-name="oacute" unicode="&#xf3;" 
d="M169 635c91 0 119 -74 119 -153v-294c0 -80 -29 -148 -119 -148s-120 72 -120 151v292c0 76 32 152 120 152zM169 21c99 0 137 70 137 162v309c0 87 -41 163 -137 163c-95 0 -138 -76 -138 -163v-309c0 -90 41 -162 138 -162zM169 -6c-116 0 -166 83 -166 189v309
c0 102 52 189 166 189c115 0 165 -87 165 -189v-309c0 -108 -47 -189 -165 -189zM169 607c-68 0 -93 -61 -93 -124v-292c0 -64 24 -124 93 -124c70 0 91 56 91 121v294c0 64 -21 125 -91 125zM173 734l48 75h-19l-42 -75h13zM187 707h-74l73 130h85z" />
    <glyph glyph-name="ecircumflex" unicode="&#xea;" horiz-adv-x="323" 
d="M244 629v18h-215l1 -619h214v17h-197v282h132v17h-132v285h197zM272 602h-198v-230h132v-73h-132v-226h198v-73h-269l-1 674h270v-72zM100 728l39 65h6l42 -65h13l-43 84h-29l-43 -84h15zM115 700h-74l70 140h63l74 -140h-74l-31 44z" />
    <glyph glyph-name="Ocircumflex" unicode="&#xd4;" 
d="M169 635c91 0 119 -74 119 -153v-294c0 -80 -29 -148 -119 -148s-120 72 -120 151v292c0 76 32 152 120 152zM169 21c99 0 137 70 137 162v309c0 87 -41 163 -137 163c-95 0 -138 -76 -138 -163v-309c0 -90 41 -162 138 -162zM169 -6c-116 0 -166 83 -166 189v309
c0 102 52 189 166 189c115 0 165 -87 165 -189v-309c0 -108 -47 -189 -165 -189zM169 607c-68 0 -93 -61 -93 -124v-292c0 -64 24 -124 93 -124c70 0 91 56 91 121v294c0 64 -21 125 -91 125zM121 728l39 65h6l42 -65h13l-43 84h-29l-43 -84h15zM136 700h-74l70 140h63
l74 -140h-74l-31 44z" />
    <glyph glyph-name="ocircumflex" unicode="&#xf4;" 
d="M169 635c91 0 119 -74 119 -153v-294c0 -80 -29 -148 -119 -148s-120 72 -120 151v292c0 76 32 152 120 152zM169 21c99 0 137 70 137 162v309c0 87 -41 163 -137 163c-95 0 -138 -76 -138 -163v-309c0 -90 41 -162 138 -162zM169 -6c-116 0 -166 83 -166 189v309
c0 102 52 189 166 189c115 0 165 -87 165 -189v-309c0 -108 -47 -189 -165 -189zM169 607c-68 0 -93 -61 -93 -124v-292c0 -64 24 -124 93 -124c70 0 91 56 91 121v294c0 64 -21 125 -91 125zM121 728l39 65h6l42 -65h13l-43 84h-29l-43 -84h15zM136 700h-74l70 140h63
l74 -140h-74l-31 44z" />
    <glyph glyph-name="Otilde" unicode="&#xd5;" 
d="M169 635c91 0 119 -74 119 -153v-294c0 -80 -29 -148 -119 -148s-120 72 -120 151v292c0 76 32 152 120 152zM169 21c99 0 137 70 137 162v309c0 87 -41 163 -137 163c-95 0 -138 -76 -138 -163v-309c0 -90 41 -162 138 -162zM169 -6c-116 0 -166 83 -166 189v309
c0 102 52 189 166 189c115 0 165 -87 165 -189v-309c0 -108 -47 -189 -165 -189zM169 607c-68 0 -93 -61 -93 -124v-292c0 -64 24 -124 93 -124c70 0 91 56 91 121v294c0 64 -21 125 -91 125zM264 766c-9 -3 -21 -9 -30 -9c-43 0 -79 40 -128 40c-24 0 -46 -15 -64 -28
l15 -15c14 14 31 23 51 23c43 0 77 -39 124 -39c16 0 33 6 48 12zM270 801l56 -63c-34 -13 -73 -28 -94 -28c-31 0 -54 11 -77 23c-17 8 -32 17 -47 17c-12 0 -30 -14 -51 -34l-57 57c34 24 74 51 106 51c31 0 56 -12 80 -23h-1c18 -8 34 -16 49 -16c4 0 14 3 22 7z" />
    <glyph glyph-name="otilde" unicode="&#xf5;" 
d="M169 635c91 0 119 -74 119 -153v-294c0 -80 -29 -148 -119 -148s-120 72 -120 151v292c0 76 32 152 120 152zM169 21c99 0 137 70 137 162v309c0 87 -41 163 -137 163c-95 0 -138 -76 -138 -163v-309c0 -90 41 -162 138 -162zM169 -6c-116 0 -166 83 -166 189v309
c0 102 52 189 166 189c115 0 165 -87 165 -189v-309c0 -108 -47 -189 -165 -189zM169 607c-68 0 -93 -61 -93 -124v-292c0 -64 24 -124 93 -124c70 0 91 56 91 121v294c0 64 -21 125 -91 125zM264 766c-9 -3 -21 -9 -30 -9c-43 0 -79 40 -128 40c-24 0 -46 -15 -64 -28
l15 -15c14 14 31 23 51 23c43 0 77 -39 124 -39c16 0 33 6 48 12zM270 801l56 -63c-34 -13 -73 -28 -94 -28c-31 0 -54 11 -77 23c-17 8 -32 17 -47 17c-12 0 -30 -14 -51 -34l-57 57c34 24 74 51 106 51c31 0 56 -12 80 -23h-1c18 -8 34 -16 49 -16c4 0 14 3 22 7z" />
    <glyph glyph-name="Odieresis" unicode="&#xd6;" 
d="M169 635c91 0 119 -74 119 -153v-294c0 -80 -29 -148 -119 -148s-120 72 -120 151v292c0 76 32 152 120 152zM169 21c99 0 137 70 137 162v309c0 87 -41 163 -137 163c-95 0 -138 -76 -138 -163v-309c0 -90 41 -162 138 -162zM169 -6c-116 0 -166 83 -166 189v309
c0 102 52 189 166 189c115 0 165 -87 165 -189v-309c0 -108 -47 -189 -165 -189zM169 607c-68 0 -93 -61 -93 -124v-292c0 -64 24 -124 93 -124c70 0 91 56 91 121v294c0 64 -21 125 -91 125zM249 774h-18v-29h18v29zM104 774h-19v-29h19v29zM131 802v-84h-73v84h73z
M277 802v-84h-74v84h74z" />
    <glyph glyph-name="odieresis" unicode="&#xf6;" 
d="M169 635c91 0 119 -74 119 -153v-294c0 -80 -29 -148 -119 -148s-120 72 -120 151v292c0 76 32 152 120 152zM169 21c99 0 137 70 137 162v309c0 87 -41 163 -137 163c-95 0 -138 -76 -138 -163v-309c0 -90 41 -162 138 -162zM169 -6c-116 0 -166 83 -166 189v309
c0 102 52 189 166 189c115 0 165 -87 165 -189v-309c0 -108 -47 -189 -165 -189zM169 607c-68 0 -93 -61 -93 -124v-292c0 -64 24 -124 93 -124c70 0 91 56 91 121v294c0 64 -21 125 -91 125zM249 774h-18v-29h18v29zM104 774h-19v-29h19v29zM131 802v-84h-73v84h73z
M277 802v-84h-74v84h74z" />
    <glyph glyph-name="Udieresis" unicode="&#xdc;" horiz-adv-x="387" 
d="M165 22c91 0 139 61 139 149v476h-18v-471c0 -78 -38 -137 -121 -137c-82 0 -120 59 -120 137v471h-18l1 -476c0 -88 46 -149 137 -149zM165 -6c-109 0 -165 72 -165 177l-1 504h74v-499c0 -62 29 -109 92 -109c64 0 93 47 93 109v499h74v-504c0 -105 -57 -177 -167 -177
zM250 774h-18v-29h18v29zM105 774h-19v-29h19v29zM132 802v-84h-73v84h73zM278 802v-84h-74v84h74z" />
    <glyph glyph-name="udieresis" unicode="&#xfc;" horiz-adv-x="387" 
d="M165 22c91 0 139 61 139 149v476h-18v-471c0 -78 -38 -137 -121 -137c-82 0 -120 59 -120 137v471h-18l1 -476c0 -88 46 -149 137 -149zM165 -6c-109 0 -165 72 -165 177l-1 504h74v-499c0 -62 29 -109 92 -109c64 0 93 47 93 109v499h74v-504c0 -105 -57 -177 -167 -177
zM250 774h-18v-29h18v29zM105 774h-19v-29h19v29zM132 802v-84h-73v84h73zM278 802v-84h-74v84h74z" />
    <glyph glyph-name="Uacute" unicode="&#xda;" horiz-adv-x="387" 
d="M165 22c91 0 139 61 139 149v476h-18v-471c0 -78 -38 -137 -121 -137c-82 0 -120 59 -120 137v471h-18l1 -476c0 -88 46 -149 137 -149zM165 -6c-109 0 -165 72 -165 177l-1 504h74v-499c0 -62 29 -109 92 -109c64 0 93 47 93 109v499h74v-504c0 -105 -57 -177 -167 -177
zM163 734l48 75h-19l-42 -75h13zM177 707h-74l73 130h85z" />
    <glyph glyph-name="uacute" unicode="&#xfa;" horiz-adv-x="387" 
d="M165 22c91 0 139 61 139 149v476h-18v-471c0 -78 -38 -137 -121 -137c-82 0 -120 59 -120 137v471h-18l1 -476c0 -88 46 -149 137 -149zM165 -6c-109 0 -165 72 -165 177l-1 504h74v-499c0 -62 29 -109 92 -109c64 0 93 47 93 109v499h74v-504c0 -105 -57 -177 -167 -177
zM163 734l48 75h-19l-42 -75h13zM177 707h-74l73 130h85z" />
    <glyph glyph-name="Ucircumflex" unicode="&#xdb;" horiz-adv-x="387" 
d="M165 22c91 0 139 61 139 149v476h-18v-471c0 -78 -38 -137 -121 -137c-82 0 -120 59 -120 137v471h-18l1 -476c0 -88 46 -149 137 -149zM165 -6c-109 0 -165 72 -165 177l-1 504h74v-499c0 -62 29 -109 92 -109c64 0 93 47 93 109v499h74v-504c0 -105 -57 -177 -167 -177
zM120 728l39 65h6l42 -65h13l-43 84h-29l-43 -84h15zM135 700h-74l70 140h63l74 -140h-74l-31 44z" />
    <glyph glyph-name="ucircumflex" unicode="&#xfb;" horiz-adv-x="387" 
d="M165 22c91 0 139 61 139 149v476h-18v-471c0 -78 -38 -137 -121 -137c-82 0 -120 59 -120 137v471h-18l1 -476c0 -88 46 -149 137 -149zM165 -6c-109 0 -165 72 -165 177l-1 504h74v-499c0 -62 29 -109 92 -109c64 0 93 47 93 109v499h74v-504c0 -105 -57 -177 -167 -177
zM120 728l39 65h6l42 -65h13l-43 84h-29l-43 -84h15zM135 700h-74l70 140h63l74 -140h-74l-31 44z" />
    <glyph glyph-name="Yacute" unicode="&#xdd;" horiz-adv-x="353" 
d="M276 647l-117 -310l-117 310h-19c40 -113 84 -223 126 -335v-284h19v284l127 335h-19zM257 674h78l-140 -367v-307h-74v307c-78 205 -116 306 -138 367h78l98 -258c33 86 68 176 98 258zM153 734l48 75h-19l-42 -75h13zM167 707h-74l73 130h85z" />
    <glyph glyph-name="yacute" unicode="&#xfd;" horiz-adv-x="353" 
d="M276 647l-117 -310l-117 310h-19c40 -113 84 -223 126 -335v-284h19v284l127 335h-19zM257 674h78l-140 -367v-307h-74v307c-78 205 -116 306 -138 367h78l98 -258c33 86 68 176 98 258zM153 734l48 75h-19l-42 -75h13zM167 707h-74l73 130h85z" />
    <glyph glyph-name="ydieresis" unicode="&#xff;" horiz-adv-x="353" 
d="M276 647l-117 -310l-117 310h-19c40 -113 84 -223 126 -335v-284h19v284l127 335h-19zM257 674h78l-140 -367v-307h-74v307c-78 205 -116 306 -138 367h78l98 -258c33 86 68 176 98 258zM243 777h-18v-29h18v29zM98 777h-19v-29h19v29zM125 805v-84h-73v84h73zM271 805
v-84h-74v84h74z" />
    <glyph glyph-name="Ccedilla" unicode="&#xc7;" horiz-adv-x="381" 
d="M181 12v9c100 8 123 82 123 182h-18c0 -82 -18 -164 -119 -164c-85 0 -120 68 -120 144v309c0 76 36 144 121 144c101 0 118 -81 118 -164h18c0 111 -38 181 -136 181c-97 0 -139 -70 -139 -161v-309c0 -91 46 -162 132 -162v0v-9v-52c17 0 37 -1 39 -17s-23 -32 -34 -38
l10 -18c20 9 48 33 48 58c0 15 -15 31 -43 32v35zM171 -65c0 5 -20 6 -30 7v54c-98 10 -140 88 -140 187v309c0 107 51 189 167 189c134 0 164 -82 164 -237h-74c0 83 -4 164 -90 164c-66 0 -93 -54 -93 -116v-309c0 -62 26 -117 92 -117c79 0 91 71 91 165h74
c0 -116 -13 -219 -131 -234c23 -7 44 -25 44 -53c0 -36 -41 -68 -79 -83l-26 51c-1 0 31 11 31 23z" />
    <glyph glyph-name="ccedilla" unicode="&#xe7;" horiz-adv-x="381" 
d="M181 12v9c100 8 123 82 123 182h-18c0 -82 -18 -164 -119 -164c-85 0 -120 68 -120 144v309c0 76 36 144 121 144c101 0 118 -81 118 -164h18c0 111 -38 181 -136 181c-97 0 -139 -70 -139 -161v-309c0 -91 46 -162 132 -162v0v-9v-52c17 0 37 -1 39 -17s-23 -32 -34 -38
l10 -18c20 9 48 33 48 58c0 15 -15 31 -43 32v35zM171 -65c0 5 -20 6 -30 7v54c-98 10 -140 88 -140 187v309c0 107 51 189 167 189c134 0 164 -82 164 -237h-74c0 83 -4 164 -90 164c-66 0 -93 -54 -93 -116v-309c0 -62 26 -117 92 -117c79 0 91 71 91 165h74
c0 -116 -13 -219 -131 -234c23 -7 44 -25 44 -53c0 -36 -41 -68 -79 -83l-26 51c-1 0 31 11 31 23z" />
    <glyph glyph-name="eth" unicode="&#xf0;" horiz-adv-x="375" 
d="M146 0h-144v300h-88v73h88v301h144c122 0 167 -84 167 -192v-290c0 -109 -44 -192 -167 -192zM75 73h65c74 0 100 55 100 124v280c0 69 -26 125 -100 125h-65v-229h80v-73h-80v-227zM146 28c103 0 140 70 140 164v290c0 92 -38 165 -140 165h-116v-302h-89v-17h89v-300
h116zM48 45v283h79v17h-79v284h92c94 0 127 -67 127 -152v-280c0 -85 -33 -152 -127 -152h-92z" />
    <glyph glyph-name="oslash" unicode="&#xf8;" 
d="M288 486v-297c0 -77 -35 -144 -120 -144c-34 0 -66 14 -89 39l193 481c8 -25 16 -53 16 -79zM168 629c36 0 70 -13 93 -42c-63 -162 -129 -323 -195 -484c-10 27 -18 57 -18 86v297c0 74 36 143 120 143zM285 647c-5 -14 -10 -28 -16 -41c-29 25 -64 41 -101 41
c-96 0 -137 -74 -137 -161v-297c0 -37 5 -77 25 -109l-19 -52h19c4 11 10 23 14 34c28 -23 62 -34 98 -34c98 0 138 69 138 161v297c0 35 -8 70 -26 100l25 61h-20zM264 674h83l-36 -86c16 -32 23 -66 23 -102v-297c0 -107 -49 -189 -166 -189c-30 0 -59 7 -85 21l-7 -21
h-77l27 77c-17 35 -23 75 -23 112v297c0 102 50 188 165 188c32 0 61 -9 88 -25zM168 602c-65 0 -92 -56 -92 -116v-287c53 132 101 249 153 382c-16 15 -38 21 -61 21zM76 199v0zM168 73c66 0 92 54 92 116v272l-149 -370c16 -11 36 -18 57 -18zM260 461v0z" />
  </font>
</defs>
</svg>
