<!-- Generator: Adobe Illustrator 19.1.0, SVG Export Plug-In  -->
<svg version="1.1"
	 xmlns="http://www.w3.org/2000/svg" xmlns:xlink="http://www.w3.org/1999/xlink" xmlns:a="http://ns.adobe.com/AdobeSVGViewerExtensions/3.0/"
	 x="0px" y="0px" width="28.6px" height="28.6px" viewBox="0 0 28.6 28.6" style="enable-background:new 0 0 28.6 28.6;"
	 xml:space="preserve">
<style type="text/css">
	.st0{fill:#b6b6b8;}
	.st1{fill:none;stroke:#b6b6b8;stroke-width:1.5;stroke-linecap:round;stroke-linejoin:round;stroke-miterlimit:10;}
</style>
<defs>
</defs>
<path class="st0" d="M28.6,14.3c0,7.9-6.4,14.3-14.3,14.3C6.4,28.6,0,22.2,0,14.3C0,6.4,6.4,0,14.3,0C22.2,0,28.6,6.4,28.6,14.3
	L28.6,14.3z M27.1,14.3c0-7.1-5.7-12.8-12.8-12.8C7.2,1.5,1.5,7.2,1.5,14.3c0,7.1,5.7,12.8,12.8,12.8C21.4,27.1,27.1,21.4,27.1,14.3
	L27.1,14.3z M27.1,14.3"/>
<g>
	<g>
		<line class="st1" x1="7.4" y1="14.6" x2="21.3" y2="14.6"/>
	</g>
	<g>
		<line class="st1" x1="14.3" y1="21.3" x2="14.3" y2="7.4"/>
	</g>
</g>
</svg>
