<?xml version="1.0" encoding="utf-8"?>
<!-- Generator: Adobe Illustrator 17.0.0, SVG Export Plug-In . SVG Version: 6.00 Build 0)  -->
<!DOCTYPE svg PUBLIC "-//W3C//DTD SVG 1.1//EN" "http://www.w3.org/Graphics/SVG/1.1/DTD/svg11.dtd">
<svg version="1.1" id="Camada_1" xmlns="http://www.w3.org/2000/svg" xmlns:xlink="http://www.w3.org/1999/xlink" x="0px" y="0px"
	 width="197.25px" height="151px" viewBox="0 0 197.25 151" enable-background="new 0 0 197.25 151" xml:space="preserve">
<g>
	<g>
		<polygon fill="#FFFFFF" points="64.376,129.007 64.375,129.005 64.375,129.005 		"/>
	</g>
	<g>
		<path fill="#FFFFFF" d="M67.744,132.394c-0.127-0.324-0.386-0.572-0.711-0.68c-0.195-0.065-0.599-0.2-3.354,0.176
			c-3.042,0.416-3.145,0.621-3.37,1.07c-0.251,0.503-0.048,1.115,0.456,1.367c0.271,0.135,0.573,0.139,0.833,0.035
			c0.224-0.09,0.09-0.053,0.078-0.049c0.432-0.158,2.484-0.455,3.794-0.583c0.046-0.005-0.008,0.054-0.03,0.117
			c-0.094,0.281-0.192,0.661-0.287,0.778c-0.062,0.076-0.118,0.164-0.292,0.231c-1.051,0.405-2.959,1.072-3.904,1.107
			c-1.09,0.04-1.976-0.506-2.432-1.501c-0.137-0.298-0.215-0.75,0.241-1.844c0.399-0.958,1.873-2.23,2.502-2.773
			c0.116-0.1,0.216-0.187,0.295-0.258c1.111-1,1.926-1.436,2.352-1.53c0.147,0.174,0.354,0.593,0.46,0.945
			c0.158,0.54,0.724,0.85,1.264,0.691c0.54-0.158,0.85-0.724,0.691-1.264c-0.173-0.59-0.856-2.509-2.39-2.429
			c-1.015,0.053-2.273,0.75-3.741,2.071c-0.063,0.056-0.156,0.137-0.263,0.229c-0.863,0.744-2.468,2.13-3.052,3.532
			c-0.594,1.427-0.66,2.499-0.212,3.476c0.804,1.754,2.434,2.759,4.36,2.688c1.01-0.037,2.527-0.507,3.641-0.901v2.316
			c0,0.563,0.456,1.019,1.019,1.019c0.563,0,1.019-0.456,1.019-1.019v-3.536C68.094,133.309,67.86,132.692,67.744,132.394z"/>
	</g>
	<g>
		<polygon fill="#FFFFFF" points="69.306,131.609 69.306,131.609 69.306,131.609 		"/>
	</g>
	<g>
		<path fill="#FFFFFF" d="M73.548,133.426l-0.053-0.046c0.379-0.211,0.714-0.429,0.911-0.603c0.971-0.863,1.133-2.648,1.076-3.566
			c-0.091-1.449-1.575-2.926-2.941-2.926c-0.795,0-2.375,0.41-2.683,0.493c-0.634,0.169-1.011,0.821-0.842,1.455
			c0.13,0.489,0.548,0.822,1.024,0.873c-0.072,0.439-0.145,0.799-0.198,0.933c-0.122,0.304-0.233,0.822-0.374,1.585
			c-0.054-0.005-0.108-0.009-0.161-0.014c-0.654-0.057-1.231,0.426-1.288,1.08c-0.055,0.627,0.388,1.177,1,1.274
			c-0.128,0.827-0.119,2.598-0.099,3.66c0.011,0.563,0.475,1.01,1.037,1c0.563-0.01,1.01-0.475,1-1.037
			c-0.019-1.027-0.009-2.235,0.031-2.894l1.095,0.609l2.565,2.237c0.495,0.432,1.245,0.38,1.677-0.114
			c0.431-0.495,0.38-1.245-0.114-1.677L73.548,133.426z M73.109,129.358c0.046,0.742-0.162,1.481-0.295,1.65
			c-0.225,0.193-0.874,0.517-1.287,0.684c0.078-0.406,0.155-0.77,0.205-0.898c0.179-0.448,0.332-1.391,0.428-2.092
			c0.142-0.022,0.256-0.035,0.34-0.038C72.718,128.736,73.095,129.133,73.109,129.358z"/>
	</g>
	<g>
		<path fill="#FFFFFF" d="M84.058,129.475c0.73-0.172,1.183-0.903,1.011-1.634c-0.172-0.73-0.903-1.183-1.633-1.011l-5.094,1.359
			c-0.73,0.172-1.183,0.903-1.011,1.633c0.061,0.259,0.195,0.48,0.371,0.654c-0.034,0.671-0.08,1.269-0.129,1.544
			c-0.106,0.18-0.162,0.391-0.16,0.613c-0.018,0.062-0.036,0.126-0.054,0.19c-0.436,1.526-0.57,2.111-0.504,2.572
			c0.134,0.938,1.453,2.187,2.304,2.4c0.516,0.129,2.271,0.298,3.01,0.113c0.637-0.159,1.024-0.804,0.865-1.441
			c-0.159-0.637-0.804-1.024-1.441-0.864c0.013-0.004,0.02-0.005,0.02-0.005c-0.294,0.051-1.437-0.022-1.819-0.098
			c-0.147-0.084-0.402-0.324-0.548-0.506c0.061-0.309,0.207-0.837,0.321-1.239l3.689-0.227c0.655-0.04,1.154-0.604,1.113-1.26
			c-0.04-0.655-0.604-1.154-1.259-1.113l-3.076,0.19c0.02-0.27,0.036-0.546,0.049-0.809L84.058,129.475z"/>
	</g>
	<g>
		<path fill="#FFFFFF" d="M93.729,127.841c-0.172-0.73-0.903-1.183-1.633-1.011l-5.773,1.359c-0.73,0.172-1.183,0.903-1.011,1.633
			c0.061,0.259,0.195,0.481,0.371,0.654c-0.034,0.671-0.08,1.269-0.13,1.544c-0.106,0.18-0.162,0.391-0.16,0.614
			c-0.018,0.062-0.036,0.125-0.054,0.19c-0.436,1.526-0.57,2.111-0.505,2.572c0.134,0.938,1.453,2.187,2.303,2.4
			c0.517,0.129,2.271,0.298,3.01,0.113c0.637-0.159,1.024-0.804,0.865-1.441c-0.159-0.637-0.804-1.024-1.441-0.864
			c0.013-0.004,0.02-0.005,0.02-0.005c-0.295,0.051-1.446-0.023-1.823-0.099c-0.204-0.111-0.384-0.294-0.487-0.394
			c-0.065-0.063-0.057-0.124-0.021-0.279c0.067-0.287,0.173-0.674,0.263-0.995c0.007-0.026,0.014-0.05,0.022-0.076l0.056-0.003
			l3.634-0.224c0.655-0.04,1.154-0.604,1.113-1.26c-0.04-0.655-0.604-1.154-1.259-1.113l-3.076,0.19
			c0.019-0.258,0.035-0.521,0.047-0.774l4.659-1.096C93.449,129.303,93.901,128.572,93.729,127.841z"/>
	</g>
	<g>
		<path fill="#FFFFFF" d="M96.552,126.827c0.004,0.01,0.014,0.032,0.025,0.065c0.001,0.002,0.002,0.003,0.002,0.005L96.552,126.827z
			"/>
	</g>
	<g>
		<path fill="#FFFFFF" d="M100.471,126.568c-0.562-0.015-1.031,0.429-1.045,0.991l-0.169,4.85c-0.009,0.199-0.022,0.459-0.037,0.748
			c-0.106-0.219-0.197-0.4-0.258-0.512c-0.083-0.152-0.211-0.33-0.45-0.658c-0.343-0.473-0.862-1.187-1.179-1.807
			c-0.198-0.387-0.369-0.849-0.504-1.262c-0.002-1.206-0.18-1.83-0.251-2.026c-0.226-0.613-0.906-0.929-1.521-0.706
			c-0.617,0.224-0.935,0.906-0.711,1.523l-0.01-0.029c0.002,0.005,0.154,0.517,0.109,1.671c-0.054,1.42-0.221,3.391-0.422,4.245
			c-0.238,1.012-0.466,2.822-0.475,2.898c-0.081,0.651,0.381,1.245,1.032,1.327c0.651,0.082,1.245-0.38,1.327-1.031
			c0.002-0.018,0.221-1.76,0.43-2.649c0.084-0.357,0.159-0.84,0.224-1.375c0.108,0.151,0.211,0.293,0.302,0.418
			c0.123,0.169,0.276,0.379,0.313,0.442c0.261,0.478,1.288,2.725,1.661,3.549c0.037,0.082,0.086,0.154,0.141,0.221
			c0.01,0.526,0.417,0.965,0.95,0.999c0.562,0.035,1.045-0.392,1.08-0.954v0.001c0.009-0.149,0.228-3.647,0.284-4.944l0.17-4.885
			C101.478,127.051,101.034,126.583,100.471,126.568z"/>
	</g>
	<g>
		<path fill="#FFFFFF" d="M110.621,131.888c1.203-0.722,1.264-2.56,1.19-3.147c-0.15-1.201-1.804-2.075-2.89-2.219
			c-0.842-0.112-2.424-0.258-3.558,0.025c-0.955,0.239-2.813,0.913-2.892,0.942c-0.617,0.224-0.935,0.906-0.711,1.523
			c0.224,0.617,0.906,0.935,1.524,0.711c0.305-0.111,0.96-0.342,1.583-0.546l-0.134,2.137c-0.237,0.053-0.4,0.09-0.422,0.095
			c-0.64,0.146-1.04,0.783-0.894,1.424c0.127,0.553,0.62,0.925,1.164,0.922l-0.004,0.064c-0.058,1.144-0.058,3.734-0.058,3.843
			c0,0.563,0.457,1.019,1.019,1.019c0.563,0,1.019-0.456,1.019-1.019c0-0.027,0.001-2.648,0.056-3.741l0.036-0.588
			c0.333-0.069,0.634-0.127,0.825-0.156C108.501,133.018,110.14,132.177,110.621,131.888z M106.802,130.879l0.132-2.119
			c0.489-0.002,1.065,0.036,1.673,0.117c0.282,0.038,0.747,0.216,0.817,0.356c0.066,0.132-0.014,0.496-0.109,0.663
			c-0.584,0.336-1.735,0.857-2.203,0.929C107.023,130.84,106.917,130.858,106.802,130.879z"/>
	</g>
	<g>
		<path fill="#FFFFFF" d="M116.634,135.335c-0.503-0.252-1.115-0.048-1.367,0.455c0.01-0.019,0.015-0.028,0.015-0.028
			c-0.037,0.062-0.248,0.371-0.802,0.371c-1.12,0-1.637-0.108-1.845-0.385c-0.163-0.217-0.168-0.866,0.077-1.617
			c0.38-0.053,0.869-0.093,1.12-0.051c0.652,0.108,1.692-0.041,3.054-0.299c0.095-0.018,0.185-0.035,0.223-0.041
			c0.479-0.08,1.072-0.364,1.242-0.449c0.587-0.293,0.825-1.007,0.531-1.595c-0.294-0.587-1.007-0.825-1.594-0.531l0.001-0.001
			c-0.201,0.1-0.48,0.213-0.575,0.232c-0.06,0.01-0.148,0.027-0.27,0.05c-1.586,0.3-2.074,0.31-2.224,0.289
			c-0.145-0.024-0.3-0.035-0.457-0.042c0.224-0.489,0.452-0.983,0.652-1.414c0.035-0.006,0.07-0.006,0.105-0.015l2.727-0.668
			c0.898-0.121,2.437-0.673,2.913-0.85c0.703-0.261,1.062-1.043,0.8-1.746c-0.261-0.703-1.043-1.062-1.746-0.8
			c-0.853,0.316-2.027,0.687-2.348,0.711l-0.111,0.009l-0.108,0.026l-2.774,0.679c-0.575,0.141-0.969,0.63-1.024,1.188
			c-0.318,0.682-1.102,2.365-1.603,3.506c-0.095,0.134-0.162,0.287-0.195,0.45c-0.079,0.186-0.143,0.343-0.186,0.459
			c-0.268,0.713-0.789,2.505,0.139,3.742c0.831,1.108,2.23,1.201,3.475,1.201c1.48,0,2.337-0.924,2.609-1.469
			C117.341,136.198,117.138,135.586,116.634,135.335z"/>
	</g>
	<g>
		<path fill="#FFFFFF" d="M125.264,126.874c-0.436-0.363-0.894-0.491-1.364-0.381c-0.847,0.199-1.455,1.049-2.598,3.639
			c-0.387,0.876-0.705,1.589-0.97,2.18c-0.577,0.186-0.979,0.74-0.939,1.373c0.01,0.159,0.052,0.307,0.111,0.446
			c-0.134,0.29-0.242,0.518-0.331,0.708l-0.112,0.24c-0.281,0.601-0.816,1.591-0.822,1.601c-0.267,0.495-0.084,1.113,0.411,1.381
			c0.495,0.269,1.113,0.085,1.381-0.411c0.023-0.042,0.57-1.053,0.877-1.71l0.111-0.237c0.097-0.207,0.214-0.458,0.365-0.783
			l2.907-0.182c-0.003,1.253-0.018,2.436-0.018,2.456c-0.007,0.562,0.443,1.024,1.005,1.031c0.563,0.008,1.025-0.443,1.032-1.005
			c0.002-0.134,0.042-3.307,0-4.797C126.183,127.998,125.743,127.273,125.264,126.874z M123.167,130.955
			c0.355-0.805,0.831-1.738,0.831-1.738l0.064,0.114c0,0,0.135,1.303,0.194,2.688l-1.605,0.101
			C122.808,131.765,122.979,131.381,123.167,130.955z"/>
	</g>
	<g>
		<path fill="#FFFFFF" d="M147.951,127.774c-0.084-0.746-0.756-1.282-1.502-1.199c-0.114,0.013-2.801,0.315-3.408,0.402
			l-1.252,0.183c-0.753,0.111-1.89,0.277-2.026,0.294c-0.38,0.044-1.062,0.161-1.428,0.225c-0.49-0.034-0.97,0.235-1.175,0.713
			c-0.001,0.002-0.002,0.004-0.003,0.006c-0.049,0.088-0.089,0.18-0.118,0.278c-0.347,0.824-0.444,1.115-0.478,1.253
			c-0.031,0.096-0.148,0.417-0.253,0.706c-0.198,0.544-0.396,1.092-0.571,1.601c-0.062,0.117-0.108,0.243-0.129,0.378
			c-0.187,0.558-0.338,1.05-0.413,1.401c-0.031,0.143-0.042,0.275-0.055,0.408c-0.069-0.043-0.141-0.081-0.221-0.11
			c-0.615-0.23-0.868-0.183-1.529,0.696l0.001-0.002c-0.004,0.012-0.841,0.377-1.669,0.207c-0.238-0.049-0.781-0.26-0.998-0.382
			c-0.339-0.191-0.95-0.446-1.4-0.87c-0.166-0.156-0.39-0.81-0.271-1.524c0.05-0.305,0.373-0.83,0.373-0.83
			c0.626-0.743,1.288-1.264,2.284-1.798c0.694-0.372,0.946-0.22,1.01-0.114c0.063,0.106-0.064,0.488-0.064,0.488
			c-0.064,0.913-0.141,1.045,0.23,1.586c0.371,0.541,1.111,0.678,1.653,0.307c0.331-0.227,0.638-0.684,0.967-1.437
			c0.339-0.774,0.271-1.779-0.167-2.502c-0.339-0.559-0.879-0.903-1.479-0.943c-0.073-0.005-0.159-0.014-0.25-0.023
			c-0.672-0.069-1.687-0.172-3.022,0.543c-1.236,0.662-2.115,1.354-2.923,2.298c-0.231,0.22-0.951,0.981-1.127,2.035
			c-0.145,0.874-0.227,2.494,0.868,3.523c0.663,0.624,1.544,1.118,2.323,1.554c0.215,0.12,0.418,0.234,0.606,0.345
			c0.951,0.559,1.941,0.738,3.212,0.579c0.97-0.122,1.582-1.088,1.919-1.843c0.109,0.211,0.216,0.364,0.286,0.451
			c0.857,1.284,2.52,1.288,3.633,1.288c1.558,0,2.758-0.918,2.89-1.022c0.514-0.408,0.6-1.156,0.191-1.67
			c-0.408-0.514-1.156-0.6-1.67-0.192l0.007-0.006c-0.186,0.143-0.802,0.512-1.419,0.512c-1.012,0-1.572-0.08-1.666-0.238
			l-0.061-0.104l-0.053-0.058c-0.025-0.034-0.171-0.257-0.086-0.651c0.032-0.145,0.088-0.344,0.156-0.568
			c0.172-0.008,0.336-0.017,0.45-0.027c0.341-0.029,1.855-0.109,2.052-0.109l2.029-0.028c0.657-0.01,1.18-0.551,1.17-1.207
			c-0.01-0.656-0.551-1.18-1.208-1.169l-1.99,0.028c-0.222,0-1.057,0.043-1.659,0.079c0.008-0.02,0.017-0.045,0.024-0.065
			c0.233-0.639,0.298-0.821,0.329-0.953c0.012-0.036,0.032-0.09,0.06-0.163c0.377-0.065,0.89-0.15,1.15-0.181
			c0.149-0.018,0.93-0.132,2.103-0.304l1.241-0.181c0.454-0.065,2.375-0.284,3.327-0.391
			C147.498,129.192,148.034,128.52,147.951,127.774z"/>
	</g>
</g>
<g>
	<path fill="#FFFFFF" d="M45.047,69.485h-9.045v36.067h-5.337V69.485H21.62v-5.337h23.427V69.485z"/>
	<path fill="#FFFFFF" d="M68.924,64.204v41.404h-5.337V87.575h-7.978v18.034h-5.281V64.204h5.281v18.034h7.978V64.204H68.924z"/>
	<path fill="#FFFFFF" d="M81.396,69.485v12.753h11.854v5.281H81.396v12.809h11.854v5.281H76.114V64.204h17.135v5.281H81.396z"/>
	<path fill="#FFFFFF" d="M115.776,105.552c-3.296,0-5.786-1.067-7.472-3.202c-1.611-1.985-2.416-4.832-2.416-8.54v-2.64h5.281v2.64
		c0,2.435,0.43,4.177,1.292,5.225c0.187,0.263,0.523,0.534,1.011,0.815c0.486,0.281,1.255,0.421,2.304,0.421
		c1.011,0,1.816-0.215,2.416-0.646c0.599-0.43,1.058-0.955,1.376-1.573c0.317-0.618,0.524-1.292,0.618-2.022
		c0.093-0.73,0.141-1.376,0.141-1.938c0-0.974-0.15-1.798-0.45-2.472s-0.693-1.245-1.18-1.713c-0.487-0.468-1.03-0.861-1.629-1.18
		c-0.6-0.318-1.199-0.608-1.798-0.871l-1.011-0.449c-0.6-0.262-1.358-0.627-2.275-1.096c-0.918-0.468-1.826-1.132-2.725-1.994
		c-2.247-2.172-3.371-4.944-3.371-8.314c0-1.76,0.233-3.371,0.702-4.832c0.468-1.461,1.143-2.706,2.022-3.736
		c0.88-1.03,1.929-1.835,3.146-2.416c1.217-0.58,2.556-0.871,4.017-0.871c2.022,0,3.623,0.356,4.804,1.067
		c1.18,0.712,2.068,1.442,2.668,2.191c1.61,2.06,2.416,4.925,2.416,8.596v2.64h-5.337v-2.64c0-1.61-0.16-2.865-0.478-3.764
		c-0.319-0.899-0.722-1.545-1.208-1.938c-0.487-0.393-0.993-0.626-1.517-0.702c-0.525-0.075-0.975-0.112-1.349-0.112
		c-1.087,0-1.93,0.263-2.528,0.787c-0.6,0.525-1.059,1.151-1.376,1.882c-0.319,0.73-0.516,1.461-0.59,2.191
		c-0.076,0.73-0.112,1.284-0.112,1.658c0,0.974,0.148,1.807,0.449,2.5c0.299,0.693,0.692,1.292,1.18,1.797
		c0.486,0.506,1.039,0.937,1.657,1.292c0.618,0.356,1.264,0.665,1.938,0.927l0.898,0.393c0.524,0.225,1.245,0.553,2.163,0.983
		c0.917,0.431,1.826,1.077,2.725,1.938c2.322,2.135,3.483,4.888,3.483,8.259c0,3.184-0.787,5.824-2.359,7.921
		C121.469,104.373,118.959,105.552,115.776,105.552z"/>
	<path fill="#FFFFFF" d="M140.27,105.552c-1.873,0-3.371-0.328-4.494-0.983c-1.124-0.655-1.967-1.357-2.528-2.106
		c-1.498-1.834-2.247-4.475-2.247-7.921V64.148h5.281v30.393c0,1.424,0.14,2.528,0.421,3.314c0.281,0.787,0.627,1.358,1.039,1.713
		c0.412,0.356,0.843,0.562,1.292,0.618c0.45,0.056,0.861,0.084,1.236,0.084c0.374,0,0.787-0.028,1.236-0.084
		s0.879-0.262,1.292-0.618c0.411-0.355,0.758-0.927,1.039-1.713c0.281-0.786,0.422-1.891,0.422-3.314V64.148h5.28v30.393
		c0,3.446-0.749,6.087-2.247,7.921c-0.562,0.75-1.404,1.452-2.528,2.106C143.641,105.225,142.142,105.552,140.27,105.552z"/>
	<path fill="#FFFFFF" d="M161.844,105.552h-5.281V64.148h4.438l10.112,25.056V64.148h5.337v41.404h-4.494l-10.112-25.056V105.552z"
		/>
</g>
<g>
	<path fill="#FFFFFF" d="M32.548,40.783h4.838v1.691H35.97v11.524h1.416v1.691h-4.838v-1.691h1.494V48.64h-8.623v5.358h1.495v1.691
		h-4.838v-1.691h1.416V42.474h-1.416v-1.691h4.838v1.691h-1.495v4.513h8.623v-4.513h-1.494V40.783z"/>
	<path fill="#FFFFFF" d="M42.212,40.783H52.89v4.218h-2.016v-2.517h-5.319v4.769h4.474v1.691h-4.474v5.054h5.319v-2.517h2.016v4.208
		H42.212v-1.691h1.416V42.484h-1.416V40.783z"/>
	<path fill="#FFFFFF" d="M56.87,40.783h6.204c0.662,0,1.273,0.087,1.834,0.26c0.561,0.174,1.046,0.43,1.455,0.767
		c0.41,0.338,0.729,0.759,0.959,1.264s0.344,1.085,0.344,1.74c0,0.374-0.067,0.742-0.201,1.106
		c-0.135,0.364-0.321,0.701-0.561,1.013c-0.239,0.311-0.522,0.588-0.851,0.831c-0.328,0.243-0.686,0.43-1.072,0.561
		c0.164,0.072,0.33,0.175,0.497,0.31c0.167,0.135,0.324,0.298,0.472,0.492s0.282,0.413,0.403,0.659
		c0.121,0.246,0.218,0.51,0.29,0.792l0.826,3.245h1.288l0.02,1.868h-2.9l-1.111-4.533c-0.203-0.813-0.513-1.411-0.93-1.794
		c-0.416-0.384-0.984-0.575-1.705-0.575h-1.918v5.211h1.495v1.691H56.87v-1.691h1.416V42.484H56.87V40.783z M60.213,42.484v4.69
		h2.861c0.374,0,0.716-0.049,1.027-0.147s0.58-0.246,0.807-0.442s0.403-0.441,0.531-0.732c0.128-0.292,0.191-0.631,0.191-1.018
		c0-0.741-0.223-1.317-0.669-1.73c-0.445-0.413-1.153-0.619-2.123-0.619H60.213z"/>
	<path fill="#FFFFFF" d="M73.22,40.783h10.678v4.218h-2.016v-2.517h-5.319v4.769h4.474v1.691h-4.474v5.054h5.319v-2.517h2.016v4.208
		H73.22v-1.691h1.416V42.484H73.22V40.783z"/>
	<path fill="#FFFFFF" d="M104.877,44.716c-0.439-0.748-1.021-1.334-1.745-1.76c-0.725-0.426-1.533-0.639-2.424-0.639
		c-0.761,0-1.456,0.161-2.085,0.482s-1.169,0.752-1.617,1.293c-0.449,0.541-0.799,1.167-1.048,1.878
		c-0.249,0.711-0.373,1.46-0.373,2.247c0,0.931,0.138,1.755,0.413,2.473s0.634,1.314,1.076,1.79c0.442,0.476,0.969,0.872,1.578,1.19
		c0.61,0.318,1.295,0.477,2.056,0.477c1.035,0,1.937-0.25,2.703-0.752c0.768-0.501,1.423-1.326,1.967-2.473l1.73,0.816
		c-0.249,0.708-0.672,1.391-1.269,2.05c-0.596,0.659-1.332,1.19-2.207,1.593c-0.875,0.403-1.844,0.604-2.905,0.604
		c-1.017,0-1.95-0.192-2.803-0.575s-1.611-0.929-2.276-1.637s-1.173-1.547-1.523-2.517c-0.352-0.97-0.526-1.983-0.526-3.038
		c0-1.062,0.175-2.065,0.526-3.009c0.351-0.944,0.842-1.765,1.475-2.463s1.387-1.249,2.262-1.652s1.823-0.604,2.847-0.604
		c0.911,0,1.697,0.129,2.359,0.388c0.662,0.259,1.225,0.567,1.687,0.924s0.86,0.746,1.194,1.165h1.042v1.75H104.877z"/>
	<path fill="#FFFFFF" d="M117.599,55.984c-1.029,0-1.97-0.192-2.822-0.575s-1.612-0.929-2.281-1.637
		c-0.668-0.708-1.177-1.547-1.523-2.517c-0.348-0.97-0.521-1.977-0.521-3.019c0-1.075,0.175-2.084,0.526-3.028
		c0.351-0.944,0.842-1.765,1.475-2.463s1.387-1.249,2.262-1.652s1.837-0.604,2.886-0.604c1.056,0,2.022,0.201,2.9,0.604
		c0.879,0.403,1.633,0.954,2.262,1.652s1.117,1.519,1.465,2.463c0.348,0.944,0.521,1.953,0.521,3.028s-0.176,2.083-0.526,3.023
		c-0.351,0.941-0.842,1.762-1.475,2.463c-0.633,0.701-1.387,1.253-2.262,1.657C119.609,55.783,118.647,55.984,117.599,55.984z
		 M117.599,54.156c0.78,0,1.486-0.161,2.119-0.482c0.632-0.321,1.171-0.752,1.617-1.293c0.445-0.541,0.79-1.168,1.032-1.883
		c0.242-0.714,0.364-1.468,0.364-2.261c0-0.813-0.133-1.598-0.398-2.355s-0.636-1.398-1.111-1.922s-1.027-0.929-1.656-1.214
		c-0.63-0.285-1.285-0.428-1.967-0.428c-0.78,0-1.488,0.161-2.124,0.482s-1.177,0.752-1.622,1.293
		c-0.446,0.541-0.79,1.17-1.033,1.888c-0.242,0.718-0.363,1.47-0.363,2.257c0,0.918,0.134,1.735,0.403,2.453
		c0.269,0.718,0.624,1.314,1.066,1.79c0.442,0.476,0.971,0.874,1.583,1.195C116.122,53.995,116.818,54.156,117.599,54.156z"/>
	<path fill="#FFFFFF" d="M128.865,53.998h1.416V42.661h-1.416v-1.878h4.72l4.729,12.871l4.788-12.871h4.475v1.878h-1.406v11.337
		h1.406v1.691h-4.838v-1.691h1.593V42.553l-5.212,13.137h-1.671l-5.28-13.166v11.475h1.534v1.691h-4.838V53.998z"/>
	<path fill="#FFFFFF" d="M152.402,40.783h10.678v4.218h-2.016v-2.517h-5.319v4.769h4.474v1.691h-4.474v5.054h5.319v-2.517h2.016
		v4.208h-10.678v-1.691h1.416V42.484h-1.416V40.783z"/>
	<path fill="#FFFFFF" d="M174.387,43.536c-0.21-0.288-0.441-0.509-0.693-0.664c-0.252-0.154-0.529-0.272-0.831-0.354
		c-0.301-0.082-0.603-0.123-0.904-0.123c-0.498,0-0.935,0.058-1.308,0.172c-0.374,0.115-0.684,0.27-0.93,0.467
		c-0.245,0.197-0.431,0.426-0.555,0.688c-0.125,0.262-0.188,0.538-0.188,0.826c0,0.433,0.077,0.782,0.231,1.047
		c0.153,0.266,0.349,0.479,0.585,0.639s0.496,0.287,0.781,0.378s0.56,0.184,0.821,0.275l1.986,0.649
		c0.597,0.19,1.122,0.407,1.578,0.649c0.455,0.243,0.837,0.529,1.146,0.86c0.308,0.331,0.542,0.713,0.703,1.146
		c0.16,0.433,0.241,0.934,0.241,1.504c0,0.616-0.127,1.187-0.379,1.711c-0.253,0.524-0.604,0.98-1.057,1.367
		c-0.453,0.387-0.992,0.69-1.618,0.91s-1.312,0.33-2.06,0.33c-0.767,0-1.423-0.087-1.967-0.261
		c-0.544-0.174-1.001-0.406-1.371-0.698c-0.371-0.292-0.668-0.625-0.891-0.998s-0.396-0.757-0.521-1.15h-0.748v-1.691h2.479
		c0,0.728,0.077,1.242,0.23,1.543c0.154,0.302,0.369,0.552,0.645,0.752c0.275,0.2,0.603,0.351,0.983,0.452
		c0.38,0.102,0.8,0.152,1.259,0.152c0.445,0,0.847-0.052,1.204-0.157s0.662-0.257,0.914-0.458c0.253-0.2,0.446-0.442,0.58-0.728
		c0.135-0.285,0.202-0.608,0.202-0.968c0-0.4-0.084-0.739-0.251-1.018c-0.167-0.279-0.382-0.517-0.644-0.713
		c-0.263-0.197-0.55-0.357-0.86-0.482c-0.312-0.125-0.611-0.233-0.9-0.325l-2.153-0.609c-0.472-0.144-0.902-0.328-1.293-0.551
		c-0.39-0.223-0.725-0.495-1.003-0.816s-0.493-0.697-0.644-1.126c-0.151-0.429-0.227-0.926-0.227-1.49
		c0-0.57,0.111-1.104,0.334-1.603c0.224-0.498,0.551-0.934,0.983-1.308c0.433-0.374,0.962-0.667,1.588-0.88
		c0.626-0.213,1.343-0.319,2.148-0.319c0.531,0,1.021,0.062,1.471,0.187c0.448,0.125,0.855,0.3,1.219,0.526
		c0.364,0.226,0.686,0.498,0.964,0.816s0.513,0.667,0.703,1.047h0.737v1.691h-2.409C174.701,44.257,174.597,43.825,174.387,43.536z"
		/>
</g>
<g>
	<g>
		<g>
			<path fill="#FFFFFF" d="M113.117,28.762c0-6.83-5.537-12.367-12.367-12.367c-6.83,0-12.367,5.537-12.367,12.367
				c0,0.059,0.004,0.118,0.004,0.177h24.725C113.114,28.88,113.117,28.821,113.117,28.762z"/>
		</g>
		<g>
			<g>
				<path fill="#FFFFFF" d="M111.708,11.319l-1.363-0.782l-2.593,4.702c0.439,0.25,0.863,0.516,1.273,0.796L111.708,11.319z"/>
			</g>
			<g>
				<path fill="#FFFFFF" d="M112.001,18.594l3.838-3.882l-1.112-1.105l-3.789,3.935C111.31,17.88,111.665,18.231,112.001,18.594z"/>
			</g>
			<g>
				<path fill="#FFFFFF" d="M114.301,21.766l4.64-2.719l-0.785-1.352l-4.638,2.8C113.801,20.908,114.061,21.332,114.301,21.766z"/>
			</g>
			<g>
				<path fill="#FFFFFF" d="M115.74,25.43l5.063-1.402l-0.405-1.507l-5.088,1.48C115.478,24.471,115.622,24.948,115.74,25.43z"/>
			</g>
			<g>
				<path fill="#FFFFFF" d="M86.216,23.817l-5.108-1.295l-0.411,1.505l5.076,1.216C85.897,24.762,86.043,24.285,86.216,23.817z"/>
			</g>
			<g>
				<path fill="#FFFFFF" d="M87.618,21.025c0.152-0.233,0.305-0.465,0.459-0.697l-4.726-2.631l-0.791,1.349l4.711,2.543
					C87.382,21.399,87.496,21.211,87.618,21.025z"/>
			</g>
			<g>
				<path fill="#FFFFFF" d="M90.452,17.164L86.78,13.61l-1.117,1.1l3.828,3.609C89.797,17.92,90.117,17.535,90.452,17.164z"/>
			</g>
			<g>
				<path fill="#FFFFFF" d="M93.529,14.686c0.029-0.016,0.057-0.029,0.086-0.044L91.16,10.54l-1.366,0.777l2.545,4.128
					C92.713,15.171,93.107,14.915,93.529,14.686z"/>
			</g>
			<g>
				<path fill="#FFFFFF" d="M97.501,13.317l-1.306-4.62l-1.523,0.4l1.347,4.533C96.5,13.488,96.993,13.385,97.501,13.317z"/>
			</g>
			<g>
				<path fill="#FFFFFF" d="M101.596,13.2l-0.056-4.994l-1.576-0.003l0.122,4.984C100.583,13.176,101.093,13.177,101.596,13.2z"/>
			</g>
			<g>
				<path fill="#FFFFFF" d="M106.831,9.1l-1.521-0.407l-1.21,4.945c0.486,0.156,0.96,0.328,1.423,0.517L106.831,9.1z"/>
			</g>
		</g>
		<g>
			<g>
				<line fill="#FFFFFF" x1="24.306" y1="28.284" x2="177.195" y2="28.284"/>
			</g>
			<g>
				<rect x="24.305" y="27.377" fill="#FFFFFF" width="152.89" height="1.814"/>
			</g>
		</g>
	</g>
</g>
<g>
	<g>
		<g>
			<g>
				<line fill="#FFFFFF" x1="24.306" y1="116.758" x2="177.195" y2="116.758"/>
			</g>
			<g>
				<rect x="24.305" y="115.851" fill="#FFFFFF" width="152.89" height="1.814"/>
			</g>
		</g>
	</g>
</g>
<g>
	<g>
		<path fill="#FFFFFF" d="M16.252,91.094c-1.546,0-2.804-1.258-2.804-2.804s1.258-2.804,2.804-2.804s2.803,1.258,2.803,2.804
			S17.798,91.094,16.252,91.094z M16.252,86.986c-0.719,0-1.304,0.585-1.304,1.304s0.585,1.304,1.304,1.304s1.303-0.585,1.303-1.304
			S16.971,86.986,16.252,86.986z"/>
	</g>
	<g>
		<path fill="#FFFFFF" d="M186.731,91.094c-1.546,0-2.803-1.258-2.803-2.804s1.257-2.804,2.803-2.804s2.804,1.258,2.804,2.804
			S188.277,91.094,186.731,91.094z M186.731,86.986c-0.719,0-1.303,0.585-1.303,1.304s0.584,1.304,1.303,1.304
			s1.304-0.585,1.304-1.304S187.45,86.986,186.731,86.986z"/>
	</g>
</g>
</svg>
