<!-- Generator: Adobe Illustrator 19.2.0, SVG Export Plug-In  -->
<svg version="1.1"
	 xmlns="http://www.w3.org/2000/svg" xmlns:xlink="http://www.w3.org/1999/xlink" xmlns:a="http://ns.adobe.com/AdobeSVGViewerExtensions/3.0/"
	 x="0px" y="0px" width="170.4794922px" height="184.6735077px" viewBox="0 0 170.4794922 184.6735077"
	 style="enable-background:new 0 0 170.4794922 184.6735077;" xml:space="preserve">
<style type="text/css">
	.st0{fill:#F1F2F2;}
	.st1{fill:#FFFFFF;}
</style>
<defs>
</defs>
<g>
	<g>
		<polygon class="st0" points="38.5961342,170.5703583 38.595089,170.567276 38.595089,170.567276 		"/>
	</g>
	<g>
		<path class="st0" d="M42.7527466,174.7504425c-0.1566048-0.4000397-0.4761734-0.7059937-0.8769073-0.8396759
			c-0.2401466-0.0801239-0.7397881-0.246582-4.1388664,0.2175751c-3.7548294,0.5129852-3.8816795,0.7660522-4.158989,1.3209534
			c-0.3103447,0.621109-0.0586739,1.3762665,0.562439,1.6873169c0.333889,0.1663818,0.7066803,0.1712036,1.0282745,0.0429535
			c0.2762604-0.1105042,0.110508-0.0655212,0.0958405-0.0600739c0.5330963-0.194397,3.0658836-0.5620117,4.6828613-0.7199554
			c0.0566483-0.0057831-0.0098457,0.0664978-0.0364609,0.1449432c-0.1163025,0.347229-0.2370758,0.815155-0.354702,0.9604492
			c-0.0760689,0.0934601-0.1456413,0.2019348-0.3608513,0.285141c-1.2971268,0.4999847-3.6515198,1.3226929-4.8186531,1.3656464
			c-1.3454704,0.0498047-2.4392624-0.6248169-3.0017014-1.8520203c-0.1684799-0.36763-0.2650127-0.9260101,0.2970791-2.2752533
			c0.4925137-1.1821594,2.31143-2.7520447,3.0883808-3.4222717c0.1431923-0.1238403,0.2670364-0.2305756,0.3642006-0.3178864
			c1.3711014-1.2343445,2.3773003-1.7725372,2.9028587-1.8877869c0.1811218,0.214859,0.4369164,0.7315369,0.5675392,1.1667786
			c0.1954422,0.6664429,0.8939476,1.0484619,1.5600471,0.8530273c0.6664467-0.1950989,1.0484581-0.8936005,0.8533669-1.5600586
			c-0.2135353-0.7281799-1.0569801-3.0968933-2.9492378-2.9972839c-1.252079,0.0657959-2.8052788,0.9256592-4.6167221,2.5562592
			c-0.0777435,0.0695648-0.1922989,0.1688232-0.325016,0.2830963c-1.0644531,0.918808-3.0454235,2.6286316-3.7667713,4.3588257
			c-0.7336426,1.7612915-0.8144608,3.0843353-0.261591,4.2903137c0.9921589,2.1651001,3.0037918,3.4052277,5.3806763,3.317215
			c1.2459297-0.0456848,3.1187668-0.6255188,4.4935684-1.1118927v2.8588562c0,0.6950836,0.5631371,1.2578735,1.2575264,1.2578735
			c0.6944542,0,1.2571716-0.5627899,1.2571716-1.2578735v-4.3635712
			C43.184845,175.8790894,42.8962898,175.1181183,42.7527466,174.7504425z"/>
	</g>
	<g>
		<polygon class="st0" points="44.6804237,173.7818146 44.6804237,173.7818146 44.6807671,173.7818146 		"/>
	</g>
	<g>
		<path class="st0" d="M49.9165039,176.0236816l-0.0657997-0.0572815c0.4682808-0.2602692,0.8813057-0.5290527,1.1238289-0.7445374
			c1.1988487-1.065506,1.3986931-3.2678375,1.3277245-4.4008179c-0.1118317-1.7885895-1.9433899-3.6105804-3.6293068-3.6105804
			c-0.9809151,0-2.9307976,0.506485-3.3117676,0.6081238c-0.7827415,0.2087097-1.2479477,1.012619-1.039238,1.7953644
			c0.160656,0.6040802,0.676712,1.0150757,1.2633209,1.0771027c-0.0889854,0.541275-0.1790276,0.9863586-0.2448959,1.1514893
			c-0.1507339,0.3757935-0.2875061,1.0146484-0.4614372,1.956665c-0.0661469-0.0057983-0.1336937-0.0115967-0.1985092-0.017395
			c-0.8072701-0.0708923-1.5187721,0.5256348-1.5900192,1.33255c-0.067894,0.7732391,0.4788284,1.4526062,1.2346115,1.571991
			c-0.1578598,1.0205078-0.1466141,3.2060699-0.122448,4.5171051c0.0129929,0.6950836,0.5863304,1.2469788,1.280365,1.2339783
			c0.694458-0.0122223,1.2469788-0.585907,1.2339859-1.2796631c-0.0234718-1.2680664-0.0108986-2.757843,0.0378571-3.5716705
			l1.3509865,0.7510223l3.1654968,2.7612762c0.6104965,0.5327606,1.5368576,0.4693298,2.0696106-0.1411591
			c0.532402-0.6105042,0.4692574-1.5368652-0.1412392-2.0696106L49.9165039,176.0236816z M49.3741837,171.0038452
			c0.0573463,0.9154053-0.2001953,1.8274384-0.363575,2.036499c-0.277935,0.2380524-1.0787773,0.638504-1.5886879,0.8437958
			c0.0961876-0.5010376,0.191391-0.9505157,0.2530708-1.1081085c0.2213631-0.5532227,0.4096756-1.7162323,0.5283508-2.581543
			c0.1746292-0.0273132,0.3161469-0.0433044,0.4201584-0.0474243
			C48.8922806,170.2357635,49.3567886,170.7252045,49.3741837,171.0038452z"/>
	</g>
	<g>
		<path class="st0" d="M62.8873062,171.1473999c0.9014969-0.2121429,1.4601593-1.1146088,1.248024-2.016037
			c-0.2121353-0.9010773-1.1142616-1.4597473-2.0157547-1.2479553l-6.2865715,1.6766815
			c-0.9014244,0.2118073-1.4600868,1.1142731-1.2479515,2.0157013c0.075367,0.3195648,0.2401466,0.5928192,0.4580803,0.8073273
			c-0.0416298,0.8277435-0.0989075,1.5665436-0.1596031,1.9055328c-0.131321,0.2220612-0.1995697,0.482254-0.1975441,0.756485
			c-0.0217896,0.076767-0.0442848,0.1552124-0.0671921,0.2349854c-0.5382042,1.8830261-0.7036133,2.605423-0.6224442,3.1743622
			c0.1654739,1.1575623,1.7933464,2.699173,2.8428574,2.9618073c0.6371078,0.1589813,2.8031807,0.367691,3.7148743,0.1391449
			c0.786171-0.1957245,1.264019-0.9925079,1.0675278-1.7783203c-0.1967697-0.7864685-0.9927864-1.2639618-1.7789574-1.0668335
			c0.015995-0.0047607,0.0252151-0.0061493,0.0252151-0.0061493c-0.3628769,0.0634155-1.7739296-0.0273132-2.2445869-0.1207123
			c-0.1814003-0.103714-0.4958687-0.3997498-0.6766434-0.6248779c0.0757217-0.3813171,0.2550964-1.0327454,0.3956375-1.5293121
			l4.5532227-0.2807312c0.8086624-0.0498047,1.4236259-0.7459412,1.3734741-1.5545959
			c-0.0498047-0.8083191-0.7455177-1.4236298-1.5542488-1.3738251l-3.7963905,0.2346954
			c0.0245171-0.332901,0.0443535-0.673645,0.0600014-0.9983063L62.8873062,171.1473999z"/>
	</g>
	<g>
		<path class="st0" d="M74.8227081,169.1313629c-0.2121353-0.9010773-1.1146088-1.4597473-2.0157547-1.2479553l-7.1249161,1.6766815
			c-0.9014282,0.2118073-1.4600906,1.1142731-1.2479553,2.0157013c0.0753708,0.3195648,0.2401505,0.5930939,0.4584274,0.8073273
			c-0.0419693,0.8280792-0.0992508,1.5665436-0.1599579,1.9055328c-0.1313171,0.2224121-0.199913,0.4829559-0.1975327,0.7575226
			c-0.0217972,0.0764313-0.0440063,0.1545258-0.0668488,0.2339478c-0.5385513,1.8830261-0.7039566,2.605423-0.6227875,3.1743622
			c0.1654053,1.1575623,1.7933426,2.699173,2.8428574,2.9618073c0.6374512,0.1589813,2.8031845,0.367691,3.7148743,0.1391449
			c0.786171-0.1957245,1.2640152-0.9925079,1.0675278-1.7783203c-0.1964188-0.7864685-0.9928589-1.2639618-1.7789612-1.0668335
			c0.0159988-0.0047607,0.0252151-0.0061493,0.0252151-0.0061493c-0.3642731,0.0634155-1.7851791-0.0279388-2.2503815-0.1221008
			c-0.2523727-0.1371155-0.473381-0.3628693-0.6009293-0.485672c-0.0801849-0.0777435-0.0702667-0.152832-0.0259094-0.3444977
			c0.082489-0.3547058,0.2131119-0.8315125,0.3250198-1.2285461c0.0092163-0.0326843,0.0177383-0.062027,0.0266037-0.0937347
			l0.0685272-0.0041199l4.4846954-0.2769623c0.8086624-0.0498047,1.4236298-0.7459412,1.3734818-1.5545959
			c-0.0498047-0.8083191-0.7455215-1.4236298-1.5542526-1.3738251l-3.7963867,0.2346954
			c0.0235367-0.3178864,0.0426025-0.6428986,0.0579758-0.9546509l5.7493439-1.3527222
			C74.476181,170.935257,75.0348434,170.0327911,74.8227081,169.1313629z"/>
	</g>
	<g>
		<path class="st0" d="M78.3067245,167.8796387c0.005455,0.0126343,0.0167007,0.0395966,0.0313644,0.0801697
			c0.0007019,0.0020447,0.0020294,0.0040588,0.0030746,0.0064392L78.3067245,167.8796387z"/>
	</g>
	<g>
		<path class="st0" d="M83.1430588,167.5600586c-0.6941071-0.0184326-1.271843,0.5289764-1.2902832,1.2234497l-0.2087097,5.9860535
			c-0.0105515,0.2456055-0.0269699,0.5658722-0.0456924,0.9226074c-0.1313171-0.2701111-0.2428665-0.4932251-0.3185883-0.632019
			c-0.1023254-0.1872711-0.2605438-0.4072266-0.5548935-0.8124237c-0.423645-0.5835419-1.0641785-1.4648438-1.4546432-2.2302094
			c-0.2439194-0.4781952-0.4557037-1.0474701-0.6221619-1.557312c-0.0020218-1.4888-0.2223358-2.2579346-0.3099976-2.5003967
			c-0.279335-0.7568207-1.1176758-1.1466522-1.8765411-0.8707428c-0.7612991,0.2769623-1.154213,1.1183777-0.8772583,1.8799591
			l-0.0126419-0.0361938c0.0020981,0.0061646,0.1896439,0.6378174,0.1347427,2.062851
			c-0.0671921,1.7530365-0.2728348,4.1845398-0.5208054,5.2388c-0.2939987,1.2492828-0.5747299,3.4826202-0.5863266,3.5767822
			c-0.1005859,0.8035583,0.4696732,1.53685,1.2735901,1.6371002c0.8039093,0.1009216,1.5368576-0.4693298,1.6374435-1.2729034
			c0.0027237-0.0217896,0.2731857-2.1725616,0.5310745-3.2687378c0.103653-0.4406891,0.1960754-1.0368652,0.2769547-1.6971588
			c0.1329956,0.1865692,0.2601929,0.3618317,0.3720932,0.5159912c0.1514435,0.2084198,0.3400345,0.4680023,0.3857193,0.5457458
			c0.3216629,0.5896759,1.589035,3.3626099,2.0498428,4.3803406c0.0456848,0.1009369,0.1067276,0.1896362,0.1735764,0.2721405
			c0.0119476,0.6486969,0.5140305,1.1910248,1.1729431,1.2326508c0.6930542,0.0429535,1.2899246-0.4836426,1.3332367-1.1773987
			v0.0007019c0.0115967-0.1835022,0.2810745-4.5007019,0.350647-6.101059l0.2100449-6.0283203
			C84.3852158,168.1562347,83.8374405,167.5785065,83.1430588,167.5600586z"/>
	</g>
	<g>
		<path class="st0" d="M95.6698151,174.1259766c1.4843292-0.8905334,1.5593567-3.1596375,1.4686127-3.8844147
			c-0.1848221-1.4822998-2.2264938-2.5604553-3.5668564-2.7391205c-1.0388947-0.1385193-2.9918518-0.3189392-4.3909607,0.0310059
			c-1.1787262,0.2947083-3.4713745,1.1269073-3.5685349,1.1620483c-0.7613068,0.276947-1.1542206,1.1187286-0.8772583,1.8799591
			c0.2769547,0.7615814,1.1183777,1.1541443,1.8803101,0.8772583c0.3758698-0.1367645,1.1841888-0.4226074,1.9536591-0.6743469
			l-0.1651306,2.6378479c-0.2926025,0.0654449-0.4938431,0.1112061-0.5211563,0.11763
			c-0.7898712,0.1804199-1.2837143,0.9669495-1.1036377,1.7568817c0.1561813,0.6824493,0.7646561,1.141571,1.4365463,1.1378021
			l-0.0047455,0.0791473c-0.0709686,1.4120331-0.0716705,4.6078339-0.0716705,4.7428589
			c0,0.694458,0.5634918,1.2571869,1.2571793,1.2571869c0.6944504,0,1.2571716-0.5627289,1.2571716-1.2571869
			c0-0.0327606,0.0013962-3.2674103,0.0689468-4.6173401l0.0449829-0.7251282
			c0.4106522-0.0845795,0.7823944-0.1568756,1.0177917-0.1930542
			C93.0531387,175.5199127,95.0763702,174.4820709,95.6698151,174.1259766z M90.9569168,172.8810883l0.1630325-2.6146545
			c0.6030197-0.003067,1.3144531,0.0440063,2.0641632,0.1443176c0.3478546,0.0463715,0.9222336,0.2666779,1.0081482,0.4399109
			c0.0812378,0.1624146-0.017662,0.6118927-0.1350098,0.818222c-0.7210083,0.414444-2.1412125,1.0580444-2.719017,1.1466827
			C91.229126,172.8323364,91.0987854,172.8551788,90.9569168,172.8810883z"/>
	</g>
	<g>
		<path class="st0" d="M103.0907669,178.3794556c-0.6213913-0.3104095-1.3758545-0.05867-1.6868973,0.562027
			c0.0122223-0.023819,0.0183716-0.03479,0.0183716-0.03479c-0.0456848,0.076416-0.3062286,0.4577332-0.9897842,0.4577332
			c-1.3820038,0-2.0204391-0.1329956-2.2769318-0.4754028c-0.2012405-0.2674561-0.2073822-1.068222,0.0947876-1.9959869
			c0.4693298-0.0654449,1.0729828-0.114563,1.3826981-0.0627289c0.8042603,0.1336975,2.0886765-0.0504913,3.7695007-0.3683929
			c0.1173477-0.0221405,0.2278519-0.0433044,0.2748642-0.0511322c0.5907211-0.0985565,1.3227005-0.4488678,1.5327988-0.5542603
			c0.7244263-0.3621674,1.018425-1.2431335,0.6555557-1.9679108c-0.3622513-0.724411-1.2428513-1.0181427-1.9672775-0.655899
			l0.0006256-0.0006866c-0.2476196,0.1231384-0.5920563,0.2622833-0.709404,0.2858124
			c-0.0736923,0.0122986-0.1820984,0.0327759-0.3329086,0.0614166c-1.9570084,0.3700562-2.5593338,0.3820038-2.7442322,0.356369
			c-0.1786728-0.0296173-0.3697128-0.0436554-0.5634155-0.0514832c0.2762604-0.6039886,0.5572739-1.2128143,0.8042679-1.7445221
			c0.0436554-0.0068359,0.0866089-0.0075378,0.12957-0.0180969l3.3649902-0.8240204
			c1.1077652-0.149765,3.0075684-0.8305206,3.5948715-1.0488129c0.867691-0.3222809,1.3103409-1.2871399,0.9876938-2.1551666
			c-0.3219452-0.868042-1.2871399-1.3104095-2.1548309-0.9877625c-1.0532074,0.3905334-2.502121,0.8475647-2.8977585,0.8778839
			l-0.1371155,0.0106201l-0.1329956,0.0324097l-3.4229736,0.8383484c-0.7100906,0.1739197-1.1964722,0.7779236-1.2633133,1.4665833
			c-0.3929138,0.8410797-1.3595123,2.9185028-1.9781723,4.326767c-0.1166534,0.1654053-0.199852,0.3540039-0.2407837,0.5555878
			c-0.09758,0.229538-0.1767197,0.423645-0.2298737,0.5658722c-0.3301849,0.8798981-0.974144,3.0914459,0.1712036,4.618042
			c1.0252686,1.3669739,2.7517014,1.4815979,4.288559,1.4815979c1.8268051,0,2.8840637-1.1398163,3.2203979-1.8131104
			C103.9632034,179.4449615,103.7122269,178.6898041,103.0907669,178.3794556z"/>
	</g>
	<g>
		<path class="st0" d="M113.7416153,167.9383087c-0.5382004-0.4478149-1.1036453-0.6060944-1.6827774-0.4706573
			c-1.0457382,0.2452545-1.795372,1.294342-3.2067795,4.4911957c-0.4774323,1.0811462-0.8697128,1.9614868-1.1971054,2.6899567
			c-0.7114944,0.2298737-1.2080688,0.9134369-1.1589584,1.6944427c0.012291,0.1964874,0.0641174,0.3792877,0.1371155,0.5504913
			c-0.1657562,0.3574219-0.2981262,0.6391296-0.4079285,0.8738251l-0.138443,0.2967377
			c-0.3465347,0.742157-1.0075302,1.9638519-1.0143738,1.9761505c-0.3301163,0.6104889-0.1036606,1.3738251,0.5068359,1.7039337
			c0.6104965,0.3315735,1.3738251,0.1044312,1.7046356-0.5067596c0.0286407-0.0519104,0.703331-1.2995148,1.0819244-2.1099243
			l0.1364136-0.2919006c0.1200027-0.2557983,0.2646637-0.5648193,0.4501877-0.9665985l3.587326-0.2244263
			c-0.0033493,1.5464172-0.0217896,3.0061646-0.0224915,3.0307465c-0.0088654,0.6936951,0.5463715,1.2639618,1.2408295,1.2728271
			c0.6950912,0.0095673,1.2646484-0.5463715,1.2735214-1.2401276c0.0020981-0.1657562,0.0518265-4.0811768,0-5.9199219
			C114.8753586,169.3247833,114.3324127,168.430481,113.7416153,167.9383087z M111.1529465,172.9745483
			c0.438591-0.9939117,1.0258942-2.1449738,1.0258942-2.1449738l0.0784454,0.1408081c0,0,0.1664505,1.6085358,0.2394485,3.3179169
			l-1.9809036,0.1241913C110.710228,173.9745331,110.9210358,173.5001068,111.1529465,172.9745483z"/>
	</g>
	<g>
		<path class="st0" d="M141.739975,169.0491486c-0.1037292-0.9201508-0.9332123-1.58255-1.8534241-1.4791565
			c-0.1404724,0.0159912-3.4563599,0.3884277-4.2059937,0.4955139l-1.545105,0.2254791
			c-0.9290161,0.1364136-2.3328705,0.3424072-2.5006561,0.3628693c-0.4693146,0.0549011-1.3110962,0.1981659-1.7626801,0.2773132
			c-0.6050415-0.0419769-1.1970978,0.2905731-1.4501648,0.8796234c-0.0014038,0.0030823-0.0021057,0.0051117-0.0034332,0.0078278
			c-0.0606995,0.1084747-0.1098785,0.2224121-0.1452789,0.3427582c-0.4284058,1.0167542-0.5484772,1.3755798-0.5894089,1.5464325
			c-0.038208,0.117981-0.1828003,0.5142975-0.312439,0.8713837c-0.2448273,0.6719666-0.4884033,1.3472748-0.7052841,1.9755249
			c-0.0771179,0.1438904-0.1336975,0.2994537-0.1589737,0.4665222c-0.2312088,0.6890106-0.4167404,1.2953949-0.5102005,1.7285919
			c-0.038208,0.1759644-0.0518265,0.3390045-0.067543,0.5034332c-0.0845871-0.0532379-0.1746292-0.0996094-0.2722092-0.1358032
			c-0.7592087-0.2837219-1.071579-0.2257538-1.8874359,0.8588257l0.0006943-0.0027313
			c-0.0054474,0.014328-1.0375595,0.46521-2.0594101,0.2557983c-0.2933044-0.0599976-0.9638672-0.3212433-1.2312622-0.4713593
			c-0.4181213-0.2360229-1.1725845-0.5504913-1.727829-1.0736694c-0.2046585-0.1930695-0.4816132-0.9996338-0.3342285-1.881012
			c0.0620956-0.3758698,0.4604492-1.0249329,0.4604492-1.0249329c0.7721329-0.9174042,1.589386-1.560318,2.8185501-2.2189331
			c0.8567886-0.4590607,1.1671371-0.2715149,1.2462769-0.1405487c0.0777435,0.1309662-0.0791397,0.6023254-0.0791397,0.6023254
			c-0.0784378,1.1265564-0.1746292,1.2892303,0.2844315,1.957077c0.4584351,0.6677704,1.3711014,0.8373108,2.0396423,0.3786011
			c0.4079285-0.2803802,0.7871552-0.8441467,1.1937561-1.773941c0.418129-0.9553528,0.3348618-2.196106-0.2066956-3.087677
			c-0.4188919-0.6903381-1.0846405-1.1146088-1.8247757-1.1640625c-0.0900421-0.0061493-0.1964264-0.0170441-0.3089523-0.0282898
			c-0.8294754-0.0845947-2.0826035-0.2121429-3.7299652,0.6704865c-1.5252609,0.8172607-2.6098328,1.6705627-3.6070938,2.8356628
			c-0.2845001,0.2715149-1.1739807,1.2111511-1.3909378,2.5119781c-0.1793747,1.0784302-0.2796097,3.0774841,1.071022,4.3482819
			c0.8178864,0.7701111,1.9058762,1.3792725,2.8663254,1.9181824c0.2653656,0.1486969,0.5156403,0.2892456,0.7483139,0.4256592
			c1.1732178,0.6902771,2.3955994,0.9113464,3.9638901,0.714859c1.1971054-0.1500397,1.9529648-1.3424683,2.3683624-2.2742767
			c0.1343918,0.2599182,0.2666931,0.4495697,0.352684,0.5566406c1.0579529,1.5846405,3.1098175,1.589386,4.4836426,1.589386
			c1.9229279,0,3.4039154-1.1323547,3.5669403-1.2612915c0.6343842-0.503418,0.7400665-1.4262848,0.2360229-2.0606689
			c-0.5034943-0.6344604-1.4263611-0.7408447-2.0607452-0.2367249l0.0088806-0.0075378
			c-0.2292633,0.1760101-0.9897919,0.6323547-1.7510986,0.6323547c-1.2489929,0-1.9399567-0.0989075-2.0559082-0.2940063
			l-0.0757294-0.1282501l-0.0655212-0.0715942c-0.0306549-0.0423279-0.2108002-0.3171997-0.1057434-0.8028564
			c0.0388947-0.1794586,0.1084747-0.4243469,0.1930695-0.7012329c0.2128296-0.0095673,0.4147644-0.0211639,0.5552368-0.0327606
			c0.4209137-0.0354919,2.289917-0.1343994,2.5320892-0.1351013l2.5034485-0.0347748
			c0.8104095-0.0129242,1.4563904-0.680069,1.4434052-1.4901276c-0.0129242-0.8099976-0.680069-1.4563293-1.4904785-1.4430542
			l-2.4563751,0.03479c-0.2735291,0-1.304245,0.0532227-2.0470428,0.097229
			c0.009491-0.0252838,0.0204773-0.055954,0.0293427-0.0801849c0.2878418-0.7881927,0.3683167-1.0133362,0.4065247-1.1766357
			c0.0143127-0.0443573,0.0389099-0.1112061,0.0736847-0.2006226c0.46521-0.0804596,1.0982056-0.1851654,1.4195099-0.2230225
			c0.1842041-0.0217896,1.1473846-0.1626892,2.59552-0.3755188l1.5321045-0.2237396
			c0.5606995-0.0801086,2.9311523-0.350647,4.1064606-0.4825897
			C141.180603,170.7988434,141.8429413,169.9690094,141.739975,169.0491486z"/>
	</g>
</g>
<g>
	<path class="st1" d="M37.1469727,110.6998901c-6.4785156,0-11.3740234-1.8964844-14.6865234-5.6889648
		c-3.1669922-3.5263672-4.7490234-8.5834961-4.7490234-15.1708984v-4.690918h10.3808594v4.690918
		c0,4.3261719,0.8457031,7.4199219,2.5400391,9.2822266c0.3671875,0.4663086,1.0292969,0.9482422,1.9873047,1.4472656
		c0.9560547,0.4990234,2.4658203,0.7485352,4.5273438,0.7485352c1.9882812,0,3.5703125-0.3823242,4.7490234-1.1479492
		c1.1767578-0.7641602,2.0791016-1.6967773,2.7060547-2.7944336c0.6240234-1.0981445,1.0292969-2.2958984,1.2138672-3.5932617
		c0.1835938-1.2973633,0.2763672-2.4453125,0.2763672-3.4433594c0-1.7294922-0.2949219-3.1938477-0.8837891-4.3911133
		c-0.5898438-1.1977539-1.3623047-2.2114258-2.3183594-3.0444336c-0.9580078-0.8310547-2.0263672-1.5297852-3.203125-2.0957031
		c-1.1777344-0.5644531-2.3564453-1.0810547-3.5332031-1.5473633l-1.9882812-0.7983398
		c-1.1787109-0.4648438-2.6689453-1.1132812-4.4726562-1.9462891c-1.8046875-0.8310547-3.5888672-2.0117188-5.3554688-3.5429688
		c-4.4169922-3.8579102-6.6259766-8.7827148-6.6259766-14.7714806c0-3.1264648,0.4589844-5.9882812,1.3808594-8.5830078
		c0.9189453-2.5952148,2.2441406-4.8066406,3.9746094-6.637207c1.7294922-1.8295898,3.7910156-3.2592773,6.1845703-4.2919922
		c2.3916016-1.0307617,5.0244141-1.546875,7.8955078-1.546875c3.9755859,0,7.1230469,0.6333008,9.4423828,1.8964844
		c2.3193359,1.2646484,4.0673828,2.5620117,5.2451172,3.8925781c3.1650391,3.659668,4.7490234,8.75,4.7490234,15.2700195v4.690918
		H46.0922852v-4.690918c0-2.8598633-0.3134766-5.0898438-0.9384766-6.6870117
		c-0.6259766-1.5966797-1.4179688-2.7446289-2.3740234-3.4433594c-0.9580078-0.6982422-1.9521484-1.1132812-2.9824219-1.2475586
		c-1.03125-0.1323242-1.9150391-0.199707-2.6503906-0.199707c-2.1357422,0-3.7919922,0.4663086-4.96875,1.3974609
		c-1.1787109,0.9326172-2.0810547,2.0458984-2.7060547,3.34375c-0.6259766,1.2973633-1.0126953,2.5947266-1.1591797,3.8920898
		c-0.1484375,1.2978516-0.2207031,2.2802734-0.2207031,2.9443359c0,1.730957,0.2929688,3.2109375,0.8828125,4.4414062
		c0.5888672,1.2319336,1.3613281,2.2958946,2.3193359,3.1938438c0.9560547,0.8984375,2.0429688,1.6640625,3.2578125,2.2954102
		c1.2148438,0.6333008,2.484375,1.1821289,3.8095703,1.6469727l1.7675781,0.6987305
		c1.0302734,0.3994141,2.4462891,0.9824219,4.2509766,1.746582c1.8037109,0.765625,3.5898438,1.9135742,5.3564453,3.4433594
		c4.5634766,3.7924805,6.8466797,8.6831055,6.8466797,14.6713867c0,5.65625-1.5458984,10.347168-4.6386719,14.0727539
		C48.3374023,108.6036987,43.4038086,110.6998901,37.1469727,110.6998901z"/>
	<path class="st1" d="M86.3979492,110.6998901c-3.9023438,0-7.03125-0.6318359-9.3867188-1.8964844
		c-2.3564453-1.2631836-4.1240234-2.5605469-5.3007812-3.8925781c-3.0917969-3.5927734-4.6376953-8.6489258-4.6376953-15.1704102
		V58.1017494c0-6.5200195,1.5458984-11.5776367,4.6376953-15.1704102c0.5888672-0.6645508,1.3066406-1.3305664,2.1542969-1.996582
		c0.8447266-0.6640625,1.8769531-1.2802734,3.0917969-1.8461914c1.2148438-0.5644531,2.5947266-1.0307617,4.140625-1.3974609
		c1.546875-0.3647461,3.3134766-0.5488281,5.3007812-0.5488281c3.9755859,0,7.1230469,0.6333008,9.4423828,1.8964844
		c2.3193359,1.2646484,4.0673828,2.5620117,5.2451172,3.8925781c3.0927734,3.5927734,4.6386719,8.6503906,4.6386719,15.1704102
		v31.6386681c0,6.5214844-1.5458984,11.5776367-4.6386719,15.1704102c-1.1777344,1.3320312-2.9257812,2.6293945-5.2451172,3.8925781
		C93.5209961,110.0680542,90.3735352,110.6998901,86.3979492,110.6998901z M86.3979492,46.6237221
		c-0.8105469,0-1.7109375,0.0673828-2.7050781,0.199707c-0.9941406,0.1342773-1.9707031,0.5493164-2.9267578,1.2475586
		c-0.9570312,0.6987305-1.7490234,1.8310547-2.3740234,3.3935547c-0.6259766,1.5639648-0.9384766,3.7768555-0.9384766,6.637207
		v31.6386681c0,2.9287109,0.3125,5.1743164,0.9384766,6.7368164c0.625,1.5639648,1.4169922,2.6948242,2.3740234,3.3935547
		c0.9560547,0.6987305,1.9326172,1.1147461,2.9267578,1.2475586c0.9941406,0.1342773,1.8945312,0.199707,2.7050781,0.199707
		c0.7353516,0,1.6191406-0.0654297,2.6503906-0.199707c1.0302734-0.1328125,2.0244141-0.5488281,2.9824219-1.2475586
		c0.9550781-0.6987305,1.7470703-1.8295898,2.3740234-3.3935547c0.6240234-1.5625,0.9384766-3.8081055,0.9384766-6.7368164
		V58.1017494c0-2.8603516-0.3144531-5.0732422-0.9384766-6.637207c-0.6269531-1.5625-1.4189453-2.6948242-2.3740234-3.3935547
		c-0.9580078-0.6982422-1.9521484-1.1132812-2.9824219-1.2475586
		C88.0170898,46.6911049,87.1333008,46.6237221,86.3979492,46.6237221z"/>
	<path class="st1" d="M117.3198242,110.6998901V37.1422768h10.3808594v64.1757812h25.0673828v9.3818359H117.3198242z"/>
</g>
<g>
	<path class="st1" d="M4.043457,125.7428589h5.3935547c0.6630859,0,1.2949219,0.0864258,1.8935547,0.2583008
		c0.5996094,0.1723633,1.1572266,0.4145508,1.6738281,0.7270508s0.9853516,0.6870117,1.40625,1.1235352
		c0.4208984,0.4370117,0.7792969,0.9228516,1.0751953,1.4584961c0.296875,0.5356445,0.5244141,1.1108398,0.6845703,1.7260742
		c0.1591797,0.6152344,0.2382812,1.2543945,0.2382812,1.9174805c0,0.6757812-0.0791016,1.3227539-0.2382812,1.9414062
		c-0.1601562,0.6181641-0.3876953,1.1987305-0.6845703,1.7402344c-0.2958984,0.5419922-0.6542969,1.034668-1.0751953,1.4775391
		c-0.4208984,0.4433594-0.8896484,0.8227539-1.40625,1.1381836s-1.0742188,0.5595703-1.6738281,0.7314453
		c-0.5986328,0.1723633-1.2304688,0.2583008-1.8935547,0.2583008H4.043457v-1.6450195h1.3779297V127.397644H4.043457V125.7428589z
		 M7.2954102,127.397644v11.1982422h2.2568359c0.6689453,0,1.2988281-0.1464844,1.8886719-0.4399414
		c0.5898438-0.2929688,1.1044922-0.6933594,1.5449219-1.2001953c0.4394531-0.5068359,0.7871094-1.1025391,1.0419922-1.7880859
		s0.3828125-1.4233398,0.3828125-2.2138672c0-0.777832-0.1279297-1.5043945-0.3828125-2.1806641
		c-0.2548828-0.675293-0.6025391-1.2636719-1.0419922-1.7641602c-0.4404297-0.5004883-0.9550781-0.894043-1.5449219-1.1811523
		s-1.2197266-0.4301758-1.8886719-0.4301758H7.2954102z"/>
	<path class="st1" d="M18.4555664,125.7428589h10.3857422v4.1030273h-1.9599609v-2.4482422h-5.1738281v4.6381836h4.3515625
		v1.6445312h-4.3515625v4.9155273h5.1738281v-2.4482422h1.9599609v4.0932617H18.4555664v-1.6450195h1.3779297V127.397644h-1.3779297
		V125.7428589z"/>
	<path class="st1" d="M44.0083008,125.7428589h4.7050781v1.6547852h-1.2333984v12.8432617h-2.4482422l-6.7421875-12.0209961
		v10.3759766h1.4921875v1.6450195h-4.7050781v-1.6450195h1.3388672V127.397644h-1.3779297v-1.6738281h3.9023438l6.6171875,11.90625
		l0.0771484-0.4589844v-9.7734375h-1.6259766V125.7428589z"/>
	<path class="st1" d="M56.8422852,140.5280151c-1.0009766,0-1.9160156-0.1865234-2.7441406-0.5595703
		c-0.8291016-0.3730469-1.5683594-0.9038086-2.21875-1.5922852s-1.1445312-1.5048828-1.4824219-2.4482422
		s-0.5068359-1.9223633-0.5068359-2.9360352c0-1.0454102,0.1708984-2.0273438,0.5117188-2.9453125
		s0.8193359-1.7167969,1.4345703-2.3955078c0.6152344-0.6791992,1.3486328-1.2148438,2.1992188-1.6069336
		c0.8515625-0.3920898,1.7871094-0.5878906,2.8066406-0.5878906c1.0263672,0,1.9667969,0.1958008,2.8212891,0.5878906
		s1.5878906,0.9277344,2.2001953,1.6069336c0.6113281,0.6787109,1.0869141,1.4775391,1.4248047,2.3955078
		s0.5068359,1.8999023,0.5068359,2.9453125c0,1.0458984-0.1708984,2.0258789-0.5117188,2.940918
		c-0.3417969,0.9150391-0.8193359,1.7133789-1.4345703,2.3955078s-1.3486328,1.2192383-2.1992188,1.6113281
		C58.7983398,140.3317261,57.862793,140.5280151,56.8422852,140.5280151z M56.8422852,138.7492065
		c0.7587891,0,1.4462891-0.15625,2.0615234-0.46875s1.1396484-0.7314453,1.5732422-1.2578125
		c0.4335938-0.5258789,0.7675781-1.1362305,1.0039062-1.8310547c0.2353516-0.6948242,0.3535156-1.4282227,0.3535156-2.199707
		c0-0.7905273-0.1289062-1.5537109-0.3867188-2.2905273c-0.2587891-0.7363281-0.6191406-1.359375-1.0810547-1.8691406
		c-0.4619141-0.5102539-0.9990234-0.9038086-1.6113281-1.1811523s-1.25-0.4160156-1.9130859-0.4160156
		c-0.7587891,0-1.4472656,0.15625-2.0654297,0.4682617c-0.6181641,0.3125-1.1445312,0.7319336-1.578125,1.2578125
		s-0.7675781,1.1381836-1.0039062,1.8359375c-0.2353516,0.6982422-0.3535156,1.4296875-0.3535156,2.1948242
		c0,0.8925781,0.1308594,1.6879883,0.3916016,2.3862305c0.2617188,0.6982422,0.6074219,1.2783203,1.0380859,1.7402344
		c0.4296875,0.4624023,0.9433594,0.8496094,1.5390625,1.1621094
		C55.4067383,138.5929565,56.0834961,138.7492065,56.8422852,138.7492065z"/>
	<path class="st1" d="M65.8413086,125.7428589h6.0351562c0.6435547,0,1.2382812,0.0849609,1.7832031,0.253418
		c0.5449219,0.1694336,1.0166016,0.4179688,1.4150391,0.7460938c0.3984375,0.3286133,0.7089844,0.7382812,0.9326172,1.2290039
		c0.2226562,0.4907227,0.3349609,1.0551758,0.3349609,1.6923828c0,0.3637695-0.0654297,0.722168-0.1962891,1.0761719
		c-0.1308594,0.3535156-0.3125,0.6821289-0.5449219,0.9848633c-0.2333984,0.3027344-0.5087891,0.5722656-0.8271484,0.8081055
		c-0.3193359,0.2358398-0.6660156,0.4174805-1.0429688,0.5449219c0.1591797,0.0703125,0.3203125,0.1708984,0.4833984,0.3012695
		c0.1621094,0.1308594,0.3154297,0.2905273,0.4589844,0.4785156s0.2744141,0.4013672,0.3916016,0.640625
		c0.1181641,0.2392578,0.2119141,0.4956055,0.2822266,0.7700195l0.8037109,3.1557617h1.2529297l0.0185547,1.8168945h-2.8203125
		l-1.0810547-4.4086914c-0.1982422-0.7905273-0.4990234-1.3720703-0.9033203-1.7451172
		c-0.4052734-0.3730469-0.9580078-0.5595703-1.6601562-0.5595703h-1.8642578v5.0683594h1.453125v1.6450195h-4.7050781v-1.6450195
		h1.3779297V127.397644h-1.3779297V125.7428589z M69.0932617,127.397644v4.5615234h2.7832031
		c0.3632812,0,0.6962891-0.0478516,0.9990234-0.1435547s0.5644531-0.2387695,0.7841797-0.4301758
		s0.3916016-0.4287109,0.5166016-0.7124023c0.1240234-0.2836914,0.1865234-0.6137695,0.1865234-0.9897461
		c0-0.7207031-0.2167969-1.2817383-0.6503906-1.6831055c-0.4335938-0.4018555-1.1220703-0.6025391-2.0654297-0.6025391H69.0932617z"
		/>
	<path class="st1" d="M82.7485352,138.5958862h1.3291016v-11.284668H80.769043v2.2573242H78.809082v-3.8256836H91.737793v3.8256836
		H89.777832v-2.2573242h-3.8251953v11.284668h1.4912109v1.6450195h-4.6953125V138.5958862z"/>
	<path class="st1" d="M93.4975586,125.7428589h10.3857422v4.1030273h-1.9599609v-2.4482422h-5.1738281v4.6381836h4.3515625
		v1.6445312h-4.3515625v4.9155273h5.1738281v-2.4482422h1.9599609v4.0932617H93.4975586v-1.6450195h1.3779297V127.397644h-1.3779297
		V125.7428589z"/>
	<path class="st1" d="M118.6586914,138.5958862h1.2050781l-1.1474609-3.2895508h-5.5751953l-1.1191406,3.2895508h1.4921875
		v1.6450195h-4.7050781v-1.6450195h1.2626953l4.5136719-12.8530273h2.8212891l4.5039062,12.8530273h1.453125v1.6450195h-4.7050781
		V138.5958862z M113.6860352,133.7189331h4.4755859l-2.2568359-6.4838867L113.6860352,133.7189331z"/>
	<path class="st1" d="M136.2358398,128.4205933c-0.2041016-0.2802734-0.4287109-0.4956055-0.6738281-0.6455078
		c-0.2460938-0.1494141-0.515625-0.2641602-0.8085938-0.3442383c-0.2929688-0.0795898-0.5869141-0.1196289-0.8798828-0.1196289
		c-0.484375,0-0.9082031,0.0561523-1.2714844,0.1674805c-0.3632812,0.1118164-0.6650391,0.2631836-0.9042969,0.4541016
		c-0.2392578,0.1914062-0.4189453,0.4145508-0.5400391,0.6694336c-0.1210938,0.2553711-0.1816406,0.5229492-0.1816406,0.8037109
		c0,0.4204102,0.0751953,0.7602539,0.2246094,1.0185547c0.1494141,0.2578125,0.3398438,0.465332,0.5693359,0.621582
		s0.4824219,0.2788086,0.7597656,0.3681641s0.5439453,0.1782227,0.7988281,0.2675781l1.9316406,0.6313477
		c0.5800781,0.1845703,1.0917969,0.3950195,1.5351562,0.6308594s0.8144531,0.5151367,1.1142578,0.8369141
		c0.2988281,0.3217773,0.5273438,0.6933594,0.6835938,1.1142578c0.15625,0.4204102,0.234375,0.9082031,0.234375,1.4628906
		c0,0.5996094-0.1230469,1.1542969-0.3681641,1.6640625c-0.2460938,0.5102539-0.5878906,0.953125-1.0283203,1.3295898
		c-0.4394531,0.3759766-0.9638672,0.6708984-1.5732422,0.8842773c-0.6083984,0.2138672-1.2763672,0.3203125-2.0029297,0.3203125
		c-0.7460938,0-1.3837891-0.0844727-1.9130859-0.253418s-0.9736328-0.3950195-1.3339844-0.6787109
		s-0.6484375-0.6074219-0.8652344-0.9707031s-0.3857422-0.7363281-0.5068359-1.1191406h-0.7275391v-1.6445312h2.4101562
		c0,0.7075195,0.0751953,1.2080078,0.2246094,1.5014648c0.1503906,0.2929688,0.359375,0.5371094,0.6269531,0.7314453
		s0.5859375,0.3408203,0.9560547,0.4399414c0.3701172,0.0986328,0.7773438,0.1479492,1.2236328,0.1479492
		c0.4335938,0,0.8242188-0.0507812,1.171875-0.152832s0.6435547-0.25,0.8896484-0.4448242
		c0.2451172-0.1943359,0.4335938-0.4301758,0.5644531-0.7075195c0.1298828-0.2773438,0.1953125-0.5913086,0.1953125-0.9418945
		c0-0.3891602-0.0810547-0.71875-0.2431641-0.9897461c-0.1630859-0.2709961-0.3720703-0.5024414-0.6269531-0.6933594
		c-0.2548828-0.1914062-0.5341797-0.3476562-0.8369141-0.46875s-0.59375-0.2260742-0.875-0.3154297l-2.09375-0.5932617
		c-0.4589844-0.1401367-0.8789062-0.3183594-1.2578125-0.5351562c-0.3798828-0.2167969-0.7041016-0.4814453-0.9755859-0.7939453
		c-0.2705078-0.3125-0.4794922-0.6772461-0.6259766-1.0952148c-0.1474609-0.4174805-0.2207031-0.9003906-0.2207031-1.4487305
		c0-0.5546875,0.1083984-1.0742188,0.3251953-1.5585938s0.5361328-0.9086914,0.9570312-1.2719727
		s0.9355469-0.6484375,1.5439453-0.855957c0.609375-0.2070312,1.3056641-0.3105469,2.0898438-0.3105469
		c0.5166016,0,0.9931641,0.0605469,1.4296875,0.1816406s0.8320312,0.2915039,1.1855469,0.5112305
		c0.3544922,0.2202148,0.6660156,0.4848633,0.9375,0.7939453c0.2705078,0.3095703,0.4990234,0.6489258,0.6835938,1.0185547
		h0.7177734v1.6450195h-2.34375C136.5415039,129.1222534,136.4399414,128.701355,136.2358398,128.4205933z"/>
	<path class="st1" d="M140.3969727,125.7428589h4.6953125v1.6547852h-1.4824219v6.7514648
		c0,0.8095703,0.0908203,1.5,0.2724609,2.0703125c0.1816406,0.5708008,0.4335938,1.0361328,0.7558594,1.3964844
		c0.3212891,0.3603516,0.7041016,0.6230469,1.1474609,0.7890625c0.4423828,0.1655273,0.9287109,0.2485352,1.4580078,0.2485352
		c0.5488281,0,1.0517578-0.0732422,1.5107422-0.2202148c0.4589844-0.1464844,0.8535156-0.3935547,1.1816406-0.7412109
		c0.328125-0.347168,0.5830078-0.8095703,0.7646484-1.3862305c0.1816406-0.5771484,0.2724609-1.2958984,0.2724609-2.1567383
		v-6.7514648h-1.5683594v-1.6547852h4.6962891v1.6547852h-1.2910156v6.5410156c0,1.0458984-0.1455078,1.9736328-0.4355469,2.7832031
		s-0.6875,1.4882812-1.1904297,2.0366211c-0.5039062,0.5483398-1.0966797,0.9643555-1.7792969,1.2480469
		c-0.6816406,0.2836914-1.4150391,0.4257812-2.1992188,0.4257812c-0.7646484,0-1.4804688-0.140625-2.1464844-0.4208984
		c-0.6669922-0.2802734-1.2470703-0.6918945-1.7412109-1.2338867c-0.4941406-0.5415039-0.8828125-1.203125-1.1660156-1.984375
		c-0.2841797-0.7807617-0.4257812-1.6748047-0.4257812-2.6821289v-6.7133789h-1.3291016V125.7428589z"/>
	<path class="st1" d="M155.5053711,125.7428589h4.7050781v1.6547852h-1.453125v11.1982422h5.0009766
		c0.1025391,0,0.2041016-0.0239258,0.3066406-0.0717773c0.1015625-0.0478516,0.1943359-0.1098633,0.2773438-0.1865234
		c0.0830078-0.0761719,0.1494141-0.1640625,0.2011719-0.2626953c0.0507812-0.0986328,0.0761719-0.1992188,0.0761719-0.3012695
		v-1.8266602h1.8164062v4.2939453h-10.9306641v-1.6450195h1.3779297V127.397644h-1.3779297V125.7428589z"/>
</g>
<g>
	<g>
		<path class="st1" d="M97.8926773,20.5597858c0-6.8300638-5.53685-12.36691-12.3669128-12.36691
			c-6.8300476,0-12.3669052,5.5368462-12.3669052,12.36691c0,0.0592308,0.0036316,0.1175632,0.0044708,0.1765995h24.7248764
			C97.8890381,20.6773491,97.8926773,20.6190166,97.8926773,20.5597858z"/>
	</g>
	<g>
		<g>
			<path class="st1" d="M96.4836426,3.1170979l-1.3628693-0.782433l-2.5925827,4.7024336
				c0.438797,0.2502518,0.8632736,0.5160184,1.2731781,0.7964425L96.4836426,3.1170979z"/>
		</g>
		<g>
			<path class="st1" d="M96.7763519,10.3919172l3.8377228-3.8821745l-1.1117706-1.1048083l-3.7890701,3.9351773
				C96.0851974,9.6776123,96.4399109,10.0284739,96.7763519,10.3919172z"/>
		</g>
		<g>
			<path class="st1" d="M99.0762787,13.5634451l4.6401215-2.7188377l-0.784935-1.3518953l-4.6376343,2.7995224
				C98.5760727,12.7054901,98.8366394,13.1297979,99.0762787,13.5634451z"/>
		</g>
		<g>
			<path class="st1" d="M100.5156784,17.2282124l5.0634537-1.4019146l-0.4045563-1.506856l-5.0882797,1.4804716
				C100.2535706,16.2691555,100.3976669,16.7454548,100.5156784,17.2282124z"/>
		</g>
		<g>
			<path class="st1" d="M70.9912949,15.6150656l-5.1078339-1.2947159l-0.4110565,1.5051441l5.0760574,1.2164946
				C70.6718216,16.559412,70.8186493,16.0832176,70.9912949,15.6150656z"/>
		</g>
		<g>
			<path class="st1" d="M72.393074,12.822937c0.1524658-0.2331038,0.3053207-0.4654799,0.4588852-0.6970272l-4.7257614-2.6314592
				l-0.7907257,1.3485479l4.7105255,2.5428629C72.1572418,13.1965246,72.2717667,13.0084333,72.393074,12.822937z"/>
		</g>
		<g>
			<path class="st1" d="M75.227211,8.9619322l-3.6723938-3.554585l-1.1165237,1.1001124l3.8283691,3.6092997
				C74.5726318,9.7181358,74.8918228,9.3323288,75.227211,8.9619322z"/>
		</g>
		<g>
			<path class="st1" d="M78.3042068,6.4833064c0.0286255-0.0155406,0.0572052-0.0290313,0.0858078-0.0443635l-2.4543762-4.1013727
				L74.5694351,3.11427l2.5450974,4.1281719C77.4885178,6.9684515,77.8820038,6.7125959,78.3042068,6.4833064z"/>
		</g>
		<g>
			<path class="st1" d="M82.2765656,5.1145477l-1.3064194-4.6201925l-1.5228348,0.4003357l1.3470917,4.5332294
				C81.2756424,5.2858791,81.768631,5.1824422,82.2765656,5.1145477z"/>
		</g>
		<g>
			<path class="st1" d="M86.370842,4.9972568l-0.0556564-4.9939361L84.7395477,0l0.1218338,4.9841294
				C85.35849,4.9741669,85.8678436,4.9743485,86.370842,4.9972568z"/>
		</g>
		<g>
			<path class="st1" d="M91.6065521,0.8978822l-1.5210724-0.4067438l-1.2103043,4.9448247
				c0.4856491,0.1556873,0.9599686,0.328342,1.4226761,0.5172114L91.6065521,0.8978822z"/>
		</g>
	</g>
	<g>
		<g>
			<line class="st1" x1="1.9960189" y1="20.0818272" x2="168.4836426" y2="20.0818272"/>
		</g>
		<g>
			<rect x="1.9958481" y="19.1746845" class="st1" width="166.4874573" height="1.8143967"/>
		</g>
	</g>
</g>
<g>
	<g>
		<path class="st1" d="M2.8037109,80.3126831C1.2578125,80.3126831,0,79.0553589,0,77.5094604
			s1.2578125-2.8037109,2.8037109-2.8037109s2.8027344,1.2578125,2.8027344,2.8037109S4.3496094,80.3126831,2.8037109,80.3126831z
			 M2.8037109,76.2057495c-0.71875,0-1.3037109,0.5849609-1.3037109,1.3037109s0.5849609,1.3032227,1.3037109,1.3032227
			s1.3027344-0.5844727,1.3027344-1.3032227S3.5224609,76.2057495,2.8037109,76.2057495z"/>
	</g>
	<g>
		<path class="st1" d="M167.6757812,80.3126831c-1.5458984,0-2.8027344-1.2573242-2.8027344-2.8032227
			s1.2568359-2.8037109,2.8027344-2.8037109s2.8037109,1.2578125,2.8037109,2.8037109
			S169.2216797,80.3126831,167.6757812,80.3126831z M167.6757812,76.2057495c-0.71875,0-1.3027344,0.5849609-1.3027344,1.3037109
			s0.5839844,1.3032227,1.3027344,1.3032227s1.3037109-0.5844727,1.3037109-1.3032227
			S168.3945312,76.2057495,167.6757812,76.2057495z"/>
	</g>
</g>
<g>
	<g>
		<g>
			<line class="st1" x1="1.9960189" y1="155.0939636" x2="168.4836426" y2="155.0939636"/>
		</g>
		<g>
			<rect x="1.9958481" y="154.1868286" class="st1" width="166.4874573" height="1.8143967"/>
		</g>
	</g>
</g>
</svg>
