<!-- Generator: Adobe Illustrator 19.1.0, SVG Export Plug-In  -->
<svg version="1.1"
	 xmlns="http://www.w3.org/2000/svg" xmlns:xlink="http://www.w3.org/1999/xlink" xmlns:a="http://ns.adobe.com/AdobeSVGViewerExtensions/3.0/"
	 x="0px" y="0px" width="69.5px" height="69.5px" viewBox="0 0 69.5 69.5" style="enable-background:new 0 0 69.5 69.5;"
	 xml:space="preserve">
<style type="text/css">
	.st0{fill:#BCBEC0;}
	.st1{opacity:0.6;fill-rule:evenodd;clip-rule:evenodd;fill:#FFFFFF;}
</style>
<defs>
</defs>
<g>
	<circle class="st0" cx="34.8" cy="34.8" r="34.8"/>
	<path class="st1" d="M52.8,34.3c0-2.2-1.8-4-4-4.1l-2.4,0l0,0c0-2.8-2.3-5.1-5.1-5.1c-0.1,0-0.2,0-0.3,0c-0.9-4.5-4.9-7.9-9.6-8
		c-4.8,0-8.8,3.3-9.7,7.8c-0.1,0-0.2,0-0.3,0c-2.8,0-5.1,2.3-5.1,5.1l0,0l-2.4,0c-2.2,0-4,1.8-4.1,4c0,2.2,1.8,4,4,4.1l35,0.2
		C50.9,38.3,52.7,36.5,52.8,34.3z"/>
	<path class="st1" d="M55.2,42.4c0.3-0.6,0.4-1.3,0.4-2c0-2.9-2.3-5.2-5.2-5.2c-0.9,0-1.7,0.2-2.4,0.6c-1.4-2.2-3.8-3.7-6.6-3.7
		c-2.7,0-5.1,1.4-6.5,3.4c-0.5-0.2-1.1-0.3-1.7-0.3c-2.9,0-5.2,2.3-5.2,5.2c0,0.6,0.1,1.2,0.3,1.8l-0.8,0c-1.8,0-3.2,1.4-3.2,3.2
		c0,1.8,1.4,3.2,3.2,3.2L55,48.8c1.8,0,3.2-1.4,3.2-3.2C58.2,43.9,56.9,42.5,55.2,42.4z"/>
</g>
</svg>
