<!-- Generator: Adobe Illustrator 19.1.0, SVG Export Plug-In  -->
<svg version="1.1"
	 xmlns="http://www.w3.org/2000/svg" xmlns:xlink="http://www.w3.org/1999/xlink" xmlns:a="http://ns.adobe.com/AdobeSVGViewerExtensions/3.0/"
	 x="0px" y="0px" width="69.5px" height="69.5px" viewBox="0 0 69.5 69.5" style="enable-background:new 0 0 69.5 69.5;"
	 xml:space="preserve">
<style type="text/css">
	.st0{fill:#EFE9A2;}
	.st1{fill:#808285;}
</style>
<defs>
</defs>
<g>
	<circle class="st0" cx="34.8" cy="34.8" r="34.8"/>
	<g>
		<g>
			<path class="st1" d="M23.9,54.3h-0.5l-0.3-0.4c-0.5-0.7,0.1-3.8,0.4-5.2c-5.4-3.4-8.6-9-8.6-15.1c0-10.1,8.9-18.4,19.8-18.4
				s19.8,8.2,19.8,18.4c0,10.1-8.9,18.4-19.8,18.4c-1.4,0-2.8-0.1-4.2-0.4c-5,2.1-6,2.6-6.2,2.7l-0.2,0.1L23.9,54.3z M34.8,17.1
				c-9.9,0-17.9,7.4-17.9,16.5c0,5.6,3.1,10.8,8.3,13.9l0.6,0.4l-0.2,0.7c-0.2,0.8-0.5,2.3-0.6,3.4c1-0.4,2.5-1.1,5.2-2.2l0.3-0.1
				l0.3,0.1c1.3,0.3,2.7,0.4,4.1,0.4c9.9,0,17.9-7.4,17.9-16.5S44.6,17.1,34.8,17.1z"/>
		</g>
		<g>
			<path class="st1" d="M35.2,23.1c2.4,0,3.8,1.3,3.8,3.8V32c0,0.3-0.1,0.5-0.3,0.7l-3.3,3.2c-0.2,0.2-0.3,0.4-0.3,0.7v1.2
				c0,0.3-0.2,0.5-0.5,0.5h-2.5c-0.3,0-0.5-0.2-0.5-0.5v-2.3c0-0.3,0.1-0.4,0.3-0.6l3.6-3.5v-3.6c0-0.7-0.4-1-1-1h-1.3
				c-0.7,0-1,0.4-1,1v2c0,0.3-0.2,0.4-0.4,0.4h-2.7c-0.3,0-0.4-0.2-0.4-0.4v-2.8c0-2.5,1.3-3.8,3.8-3.8H35.2z M31.6,41.1
				c0-0.3,0.2-0.5,0.5-0.5h2.5c0.3,0,0.5,0.2,0.5,0.5v2.4c0,0.3-0.2,0.5-0.5,0.5h-2.5c-0.3,0-0.5-0.2-0.5-0.5V41.1z"/>
		</g>
	</g>
</g>
</svg>
