<!-- Generator: Adobe Illustrator 19.1.0, SVG Export Plug-In  -->
<svg version="1.1"
	 xmlns="http://www.w3.org/2000/svg" xmlns:xlink="http://www.w3.org/1999/xlink" xmlns:a="http://ns.adobe.com/AdobeSVGViewerExtensions/3.0/"
	 x="0px" y="0px" width="69.5px" height="71.1px" viewBox="0 0 69.5 71.1" style="enable-background:new 0 0 69.5 71.1;"
	 xml:space="preserve">
<style type="text/css">
	.st0{clip-path:url(#SVGID_2_);fill:#EFE9A2;}
	.st1{clip-path:url(#SVGID_2_);}
	.st2{fill:#808285;}
	.st3{fill:#E1AF25;}
	.st4{clip-path:url(#SVGID_4_);fill:#EFE9A2;}
	.st5{clip-path:url(#SVGID_4_);}
</style>
<defs>
</defs>
<g>
	<g>
		<defs>
			<circle id="SVGID_1_" cx="34.8" cy="36.4" r="34.8"/>
		</defs>
		<clipPath id="SVGID_2_">
			<use xlink:href="#SVGID_1_"  style="overflow:visible;"/>
		</clipPath>
		<circle class="st0" cx="34.8" cy="36.4" r="34.8"/>
		<g class="st1">
			<g>
				<g>
					<path class="st2" d="M55.2,3c0.1,0,0.2,0,0.3,0c0-0.3,0-0.5,0-0.8c0-0.6,0.2-1.6-0.1-2.2c0-0.1-0.2-0.1-0.2,0
						c-0.3,0.5-0.1,1.5-0.1,2.1C55.2,2.4,55.2,2.7,55.2,3z"/>
				</g>
				<g>
					<path class="st2" d="M51.7,3.9c0.1,0,0.2-0.1,0.3-0.1c-0.1-0.3-0.2-0.5-0.4-0.8c-0.3-0.6-0.5-1.5-1-2c-0.1-0.1-0.2,0-0.2,0.1
						c0,0.6,0.6,1.4,0.8,1.9C51.5,3.3,51.6,3.6,51.7,3.9z"/>
				</g>
				<g>
					<path class="st2" d="M52.8,3.4c0.1,0,0.2-0.1,0.3-0.1c-0.1-0.3-0.2-0.5-0.2-0.8C52.8,2,52.7,1,52.2,0.5c-0.1-0.1-0.2,0-0.2,0.1
						c-0.1,0.6,0.4,1.5,0.5,2C52.7,2.9,52.8,3.2,52.8,3.4z"/>
				</g>
				<g>
					<path class="st2" d="M50.7,4.5c0.1-0.1,0.2-0.1,0.3-0.2c-0.2-0.2-0.3-0.5-0.5-0.7c-0.3-0.5-0.7-1.5-1.2-1.8
						c-0.1,0-0.2,0-0.2,0.1c0.1,0.6,0.7,1.3,1.1,1.8C50.4,4,50.5,4.2,50.7,4.5z"/>
				</g>
				<g>
					<path class="st2" d="M54,3.1c0.1,0,0.2,0,0.3-0.1c0-0.3-0.1-0.5-0.1-0.8c-0.1-0.6-0.1-1.6-0.4-2.1c0-0.1-0.2-0.1-0.2,0
						c-0.2,0.6,0.1,1.5,0.2,2.1C53.9,2.6,54,2.8,54,3.1z"/>
				</g>
				<g>
					<path class="st2" d="M46.8,7.7C47,7.8,47.3,7.9,47.5,8c0-0.1,0.1-0.2,0.1-0.3c-0.2-0.1-0.5-0.2-0.7-0.3c-0.6-0.3-1.4-0.9-2-0.9
						c-0.1,0-0.1,0.1-0.1,0.2C45.3,7.2,46.2,7.4,46.8,7.7z"/>
				</g>
				<g>
					<path class="st2" d="M46.3,8.9c0.3,0.1,0.5,0.2,0.8,0.2c0-0.1,0.1-0.2,0.1-0.3c-0.2-0.1-0.5-0.1-0.7-0.2
						C45.9,8.4,45,7.9,44.4,8c-0.1,0-0.1,0.1-0.1,0.2C44.8,8.6,45.7,8.7,46.3,8.9z"/>
				</g>
				<g>
					<path class="st2" d="M48.2,5.4c0.2,0.2,0.4,0.4,0.6,0.6c0.1-0.1,0.2-0.2,0.2-0.2c-0.2-0.2-0.4-0.3-0.6-0.5
						C48,4.8,47.4,4,46.8,3.9c-0.1,0-0.2,0.1-0.1,0.1C46.9,4.6,47.8,5.1,48.2,5.4z"/>
				</g>
				<g>
					<path class="st2" d="M47.4,6.5c0.2,0.2,0.5,0.3,0.7,0.5c0.1-0.1,0.1-0.2,0.2-0.3c-0.2-0.1-0.4-0.3-0.6-0.4
						c-0.5-0.3-1.2-1-1.9-1.1c-0.1,0-0.1,0.1-0.1,0.2C46,5.8,46.9,6.2,47.4,6.5z"/>
				</g>
				<g>
					<path class="st2" d="M49.1,4.5c0.2,0.2,0.4,0.4,0.6,0.7C49.8,5.1,49.9,5,50,5c-0.2-0.2-0.4-0.4-0.5-0.6C49.1,3.9,48.6,3,48,2.7
						c-0.1,0-0.2,0-0.1,0.1C48,3.4,48.8,4.1,49.1,4.5z"/>
				</g>
				<g>
					<path class="st2" d="M62.8,6.4c0.1,0.1,0.1,0.2,0.2,0.3c0.1-0.1,0.2-0.1,0.3-0.2c0.5-0.4,1.4-0.8,1.8-1.3c0-0.1,0-0.2-0.1-0.2
						c-0.6,0.1-1.3,0.8-1.8,1.1C63,6.3,62.9,6.3,62.8,6.4z"/>
				</g>
				<g>
					<path class="st2" d="M64,8.6c0,0.1,0.1,0.2,0.1,0.3c0.1,0,0.2-0.1,0.3-0.1c0.6-0.2,1.6-0.3,2-0.8c0.1-0.1,0-0.2-0.1-0.2
						c-0.6-0.1-1.5,0.4-2,0.6C64.2,8.6,64.1,8.6,64,8.6z"/>
				</g>
				<g>
					<path class="st2" d="M63.5,7.5c0.1,0.1,0.1,0.2,0.2,0.3c0.1,0,0.2-0.1,0.3-0.1c0.6-0.3,1.5-0.6,1.9-1c0.1-0.1,0-0.2-0.1-0.2
						c-0.6,0-1.4,0.6-1.9,0.9C63.7,7.4,63.6,7.4,63.5,7.5z"/>
				</g>
				<g>
					<path class="st2" d="M64.9,11.1c-0.2,0-0.3,0-0.5,0c0,0.1,0,0.2,0,0.3c0.1,0,0.3,0,0.4,0c0.6,0,1.6,0.1,2.2-0.2
						c0.1,0,0.1-0.2,0-0.2C66.4,10.9,65.5,11.1,64.9,11.1z"/>
				</g>
				<g>
					<path class="st2" d="M56.7,3.2c0-0.3,0.1-0.6,0.1-0.8c0.1-0.6,0.4-1.6,0.2-2.2c0-0.1-0.1-0.1-0.2,0c-0.3,0.5-0.3,1.5-0.3,2.1
						c0,0.3-0.1,0.6-0.1,0.9C56.5,3.2,56.6,3.2,56.7,3.2z"/>
				</g>
				<g>
					<path class="st2" d="M64.7,9.8c-0.1,0-0.2,0-0.4,0.1c0,0.1,0,0.2,0,0.3c0.1,0,0.2,0,0.3-0.1c0.6-0.1,1.6-0.1,2.1-0.5
						c0.1,0,0-0.2,0-0.2C66.2,9.3,65.3,9.7,64.7,9.8z"/>
				</g>
				<g>
					<path class="st2" d="M44,9.8c0.5,0.4,1.5,0.3,2.1,0.4c0.3,0,0.5,0.1,0.8,0.1c0-0.1,0-0.2,0.1-0.3c-0.2,0-0.5-0.1-0.7-0.1
						c-0.6-0.1-1.6-0.5-2.2-0.3C43.9,9.6,43.9,9.7,44,9.8z"/>
				</g>
				<g>
					<path class="st2" d="M59,3.8c0.1-0.2,0.2-0.5,0.3-0.7c0.2-0.6,0.8-1.4,0.8-2C60.2,1,60,0.9,60,1c-0.5,0.4-0.7,1.4-0.9,1.9
						c-0.1,0.3-0.2,0.5-0.3,0.8C58.8,3.7,58.9,3.8,59,3.8z"/>
				</g>
				<g>
					<path class="st2" d="M57.9,3.5c0.1-0.3,0.1-0.5,0.2-0.8c0.2-0.6,0.6-1.5,0.5-2.1c0-0.1-0.1-0.1-0.2-0.1c-0.4,0.5-0.5,1.4-0.6,2
						c-0.1,0.3-0.2,0.6-0.2,0.9C57.7,3.4,57.8,3.4,57.9,3.5z"/>
				</g>
				<g>
					<path class="st2" d="M60.2,4.3c0.1-0.2,0.2-0.4,0.3-0.5c0.3-0.5,1-1.3,1.1-1.9c0-0.1-0.1-0.1-0.2-0.1c-0.5,0.3-0.9,1.2-1.2,1.8
						c-0.1,0.2-0.3,0.4-0.4,0.7C60,4.2,60.1,4.2,60.2,4.3z"/>
				</g>
				<g>
					<path class="st2" d="M61,4.7c0.1,0.1,0.2,0.1,0.3,0.2c0.1-0.1,0.2-0.2,0.3-0.4c0.4-0.5,1.2-1.1,1.3-1.7c0-0.1-0.1-0.2-0.1-0.1
						c-0.6,0.3-1,1.1-1.4,1.6C61.2,4.4,61.1,4.6,61,4.7z"/>
				</g>
				<g>
					<path class="st2" d="M62.3,5.1c-0.1,0.1-0.2,0.2-0.4,0.3c0.1,0.1,0.2,0.2,0.2,0.2c0.1-0.1,0.2-0.2,0.3-0.3
						c0.5-0.4,1.3-1,1.6-1.5c0-0.1-0.1-0.2-0.1-0.1C63.3,4,62.7,4.7,62.3,5.1z"/>
				</g>
				<g>
					<path class="st2" d="M55,20.8c-0.1,0-0.2,0-0.3,0c0,0.1,0,0.2,0,0.3c0,0.6-0.3,1.6-0.1,2.2c0,0.1,0.2,0.1,0.2,0
						c0.3-0.5,0.2-1.5,0.2-2.1C54.9,21,55,20.9,55,20.8z"/>
				</g>
				<g>
					<path class="st2" d="M61.1,19.2c-0.1-0.1-0.2-0.3-0.3-0.4c-0.1,0.1-0.2,0.1-0.3,0.2c0.1,0.1,0.2,0.2,0.3,0.4
						c0.4,0.5,0.8,1.4,1.4,1.7c0.1,0,0.2,0,0.2-0.1C62.2,20.3,61.5,19.7,61.1,19.2z"/>
				</g>
				<g>
					<path class="st2" d="M62.1,18.3c-0.1-0.1-0.3-0.3-0.4-0.4c-0.1,0.1-0.2,0.2-0.2,0.2c0.1,0.1,0.2,0.2,0.3,0.3
						c0.4,0.4,1,1.3,1.6,1.5c0.1,0,0.2-0.1,0.1-0.1C63.4,19.3,62.6,18.7,62.1,18.3z"/>
				</g>
				<g>
					<path class="st2" d="M59.8,19.5c-0.1,0.1-0.2,0.1-0.3,0.2c0.1,0.1,0.1,0.3,0.2,0.4c0.3,0.5,0.6,1.5,1.1,1.9
						c0.1,0,0.2,0,0.2-0.1c0-0.6-0.7-1.4-0.9-1.9C59.9,19.8,59.9,19.6,59.8,19.5z"/>
				</g>
				<g>
					<path class="st2" d="M57.5,20.4c-0.1,0-0.2,0.1-0.3,0.1c0,0.1,0.1,0.2,0.1,0.4c0.1,0.6,0.2,1.6,0.5,2.1c0,0.1,0.2,0,0.2,0
						c0.1-0.6-0.3-1.5-0.4-2.1C57.5,20.7,57.5,20.6,57.5,20.4z"/>
				</g>
				<g>
					<path class="st2" d="M58.7,20c-0.1,0-0.2,0.1-0.3,0.1c0,0.1,0.1,0.3,0.1,0.4c0.2,0.6,0.4,1.6,0.8,2c0.1,0.1,0.2,0,0.2-0.1
						c0.1-0.6-0.5-1.4-0.7-2C58.8,20.3,58.7,20.2,58.7,20z"/>
				</g>
				<g>
					<path class="st2" d="M64.7,13.7c-0.2,0-0.4-0.1-0.5-0.1c0,0.1-0.1,0.2-0.1,0.3c0.2,0,0.3,0.1,0.5,0.1c0.6,0.1,1.5,0.6,2.1,0.4
						c0.1,0,0.1-0.1,0-0.2C66.2,13.9,65.2,13.9,64.7,13.7z"/>
				</g>
				<g>
					<path class="st2" d="M56.2,20.7c-0.1,0-0.2,0-0.3,0c0,0.1,0,0.2,0,0.3c0.1,0.6-0.1,1.6,0.2,2.2c0,0.1,0.2,0.1,0.2,0
						c0.2-0.6,0-1.5-0.1-2.1C56.3,21,56.2,20.8,56.2,20.7z"/>
				</g>
				<g>
					<path class="st2" d="M64.9,12.4c-0.2,0-0.3,0-0.5,0c0,0.1,0,0.2,0,0.3c0.1,0,0.3,0,0.4,0c0.6,0.1,1.6,0.3,2.2,0.1
						c0.1,0,0.1-0.1,0-0.2C66.4,12.4,65.4,12.5,64.9,12.4z"/>
				</g>
				<g>
					<path class="st2" d="M63.7,16.2c-0.2-0.1-0.3-0.2-0.5-0.3c-0.1,0.1-0.1,0.2-0.2,0.3c0.1,0.1,0.3,0.2,0.4,0.2
						c0.5,0.3,1.3,1,1.9,1c0.1,0,0.1-0.1,0.1-0.2C65.2,16.8,64.2,16.5,63.7,16.2z"/>
				</g>
				<g>
					<path class="st2" d="M64.3,15c-0.2-0.1-0.4-0.1-0.5-0.2c0,0.1-0.1,0.2-0.1,0.3c0.2,0.1,0.3,0.1,0.5,0.2
						c0.6,0.2,1.4,0.8,2.1,0.7c0.1,0,0.1-0.1,0.1-0.2C65.8,15.4,64.8,15.2,64.3,15z"/>
				</g>
				<g>
					<path class="st2" d="M63,17.3c-0.1-0.1-0.3-0.2-0.4-0.3c-0.1,0.1-0.1,0.2-0.2,0.3c0.1,0.1,0.3,0.2,0.4,0.3
						c0.5,0.4,1.2,1.1,1.8,1.3c0.1,0,0.2-0.1,0.1-0.2C64.3,18.1,63.5,17.7,63,17.3z"/>
				</g>
				<g>
					<path class="st2" d="M47.8,16.2c0-0.1-0.1-0.1-0.1-0.2c0,0-0.1-0.1-0.1-0.1c-0.2,0.1-0.3,0.2-0.5,0.3c-0.5,0.3-1.5,0.7-1.8,1.2
						c0,0.1,0,0.2,0.1,0.2c0.6,0,1.3-0.7,1.8-1C47.5,16.5,47.6,16.4,47.8,16.2z"/>
				</g>
				<g>
					<path class="st2" d="M47.3,15.1c0-0.1-0.1-0.2-0.1-0.3C47,14.9,46.8,15,46.6,15c-0.6,0.2-1.6,0.4-2,0.9c-0.1,0.1,0,0.2,0.1,0.2
						c0.6,0,1.4-0.5,2-0.7C46.9,15.3,47.1,15.2,47.3,15.1z"/>
				</g>
				<g>
					<path class="st2" d="M53.3,20.6c0,0.1,0,0.1,0,0.2c-0.1,0.6-0.5,1.5-0.4,2.2c0,0.1,0.1,0.1,0.2,0c0.4-0.5,0.4-1.5,0.5-2
						c0-0.1,0-0.2,0.1-0.3C53.6,20.7,53.5,20.6,53.3,20.6z"/>
				</g>
				<g>
					<path class="st2" d="M46.9,14c0-0.1,0-0.2-0.1-0.3c-0.2,0.1-0.4,0.1-0.6,0.2c-0.6,0.2-1.6,0.2-2.1,0.6c-0.1,0.1,0,0.2,0,0.2
						c0.6,0.1,1.5-0.3,2.1-0.5C46.5,14.1,46.7,14,46.9,14z"/>
				</g>
				<g>
					<path class="st2" d="M46,12.8c0.3,0,0.5-0.1,0.8-0.1c0-0.1,0-0.2,0-0.3c-0.2,0-0.5,0.1-0.7,0.1c-0.6,0.1-1.6,0-2.2,0.3
						c-0.1,0-0.1,0.2,0,0.2C44.5,13.2,45.4,12.9,46,12.8z"/>
				</g>
				<g>
					<path class="st2" d="M48.5,17.3c-0.1-0.1-0.1-0.2-0.2-0.3c-0.1,0.1-0.3,0.2-0.4,0.3c-0.5,0.4-1.4,0.9-1.7,1.4
						c0,0.1,0,0.2,0.1,0.2c0.6-0.1,1.2-0.9,1.7-1.3C48.2,17.5,48.3,17.4,48.5,17.3z"/>
				</g>
				<g>
					<path class="st2" d="M45.9,11.5c0.3,0,0.5,0,0.8,0c0-0.1,0-0.2,0-0.3c-0.2,0-0.5,0-0.7,0c-0.6,0-1.6-0.2-2.2,0
						c-0.1,0-0.1,0.2,0,0.2C44.4,11.7,45.3,11.5,45.9,11.5z"/>
				</g>
				<g>
					<path class="st2" d="M50.9,19.7c0,0,0,0.1-0.1,0.1c-0.3,0.5-0.9,1.3-0.9,2c0,0.1,0.1,0.1,0.2,0.1c0.5-0.4,0.8-1.3,1-1.8
						c0-0.1,0.1-0.1,0.1-0.2C51.1,19.9,51,19.8,50.9,19.7z"/>
				</g>
				<g>
					<path class="st2" d="M49.3,18.3c-0.1-0.1-0.2-0.2-0.2-0.3c-0.1,0.1-0.2,0.2-0.3,0.3c-0.4,0.4-1.2,1-1.4,1.6
						c0,0.1,0.1,0.2,0.1,0.1c0.6-0.2,1.1-1,1.5-1.5C49.1,18.5,49.2,18.4,49.3,18.3z"/>
				</g>
				<g>
					<path class="st2" d="M52.1,20.3c0,0,0,0.1,0,0.1c-0.2,0.6-0.7,1.5-0.7,2.1c0,0.1,0.1,0.1,0.2,0.1c0.4-0.4,0.6-1.4,0.8-2
						c0-0.1,0-0.1,0.1-0.2C52.3,20.4,52.2,20.3,52.1,20.3z"/>
				</g>
				<g>
					<path class="st2" d="M50.2,19.2C50.1,19.1,50,19,49.9,19c-0.1,0.1-0.1,0.1-0.2,0.2c-0.4,0.5-1.1,1.2-1.2,1.8
						c0,0.1,0.1,0.2,0.2,0.1c0.5-0.3,0.9-1.2,1.3-1.7C50,19.4,50.1,19.3,50.2,19.2z"/>
				</g>
			</g>
			<g>
				<path class="st2" d="M55,19.6c-1.1,0-2.1-0.2-2.9-0.6c-1.3-0.6-2.5-1.8-3.4-3.5c-1.5-2.6-1.1-6.5,0.9-8.7
					c1.3-1.4,3.9-2.9,6.1-2.7c1.9,0.2,4,1,4.8,1.6c1.5,1.1,2.6,3.1,2.7,4.8c0.3,4.4-2.4,8-6.5,8.9C56.2,19.5,55.6,19.6,55,19.6z
					 M55.2,5.1c-1.8,0-3.9,1.2-4.9,2.4c-1.7,2-2.1,5.3-0.8,7.6c0.9,1.5,1.9,2.6,3,3.1c0.6,0.3,1.5,0.5,2.5,0.5
					c0.5,0,1.1-0.1,1.5-0.2c3.6-0.8,5.9-3.9,5.7-7.8c-0.1-1.4-1.1-3.1-2.3-4.1c-0.7-0.5-2.5-1.3-4.3-1.4C55.4,5.1,55.3,5.1,55.2,5.1
					z"/>
			</g>
		</g>
		<g class="st1">
			<g>
				<path class="st2" d="M34.7,59.9c-1.4,0-2.6-0.3-4.3-0.6l-0.3-0.1C28.8,58.9,18.6,55,13.6,53C8,50.7,8,48.2,8,47.1
					c0-0.8,0.2-1.3,0.4-1.5c0.4-2,3.1-13.9,4.3-15.5c0.4-0.5,0.9-1,1.3-1.5c0.8-0.9,1.7-1.8,1.7-2.3c0.1-1.1,1.1-2.7,3-3.6
					c1.5-0.7,5.7-1.4,8.2-1.6c0.2,0,0.3,0,0.5,0c1,0,1.4,0.2,1.7,0.5c1.4,0.1,8.9,1.6,14.8,6c5.2,4,6.1,12.9,6.2,14.6
					C51.3,43,56,46.3,57,48c0.2,0.4,0.4,1,0,1.9c-2,4.2-17.6,9.4-19.7,9.8C36.3,59.8,35.5,59.9,34.7,59.9z M9.2,46.2
					c0,0-0.2,0.2-0.2,0.8c0,0.9,0,2.9,4.9,4.9c5.2,2.1,15.3,5.9,16.4,6.2l0.3,0.1c1.7,0.4,2.8,0.6,4,0.6c0.7,0,1.5-0.1,2.4-0.2
					c2.9-0.5,17.4-5.8,18.9-9.2c0.2-0.4,0.1-0.7,0-0.9c-0.8-1.4-5.2-4.5-6.8-5.7c-0.1-0.1-0.2-0.2-0.2-0.4c0-0.1-0.5-10-5.8-14.1
					C37,23.6,29.1,22.6,29,22.6h0c-0.3,0-0.5-0.2-0.6-0.3c0,0-0.2-0.1-0.9-0.1c-0.1,0-0.3,0-0.4,0c-2.4,0.1-6.5,0.8-7.8,1.5
					c-1.6,0.7-2.3,1.9-2.4,2.7c-0.1,0.9-0.9,1.8-2,2.9c-0.4,0.5-0.9,1-1.3,1.5c-0.8,1.1-3,9.9-4.2,15.2C9.4,46.1,9.3,46.2,9.2,46.2
					C9.2,46.2,9.2,46.2,9.2,46.2z"/>
			</g>
			<g>
				<path class="st3" d="M50.5,42.7"/>
			</g>
			<g>
				<path class="st2" d="M31.5,50.7c-4.7,0-10.2-0.9-14.3-1.7c-4.9-1-8.3-2.7-8.5-2.8c-0.2-0.1-0.3-0.3-0.2-0.5
					c0.1-0.2,0.3-0.3,0.5-0.2c0,0,3.4,1.8,8.2,2.7c5.2,1,12.8,2.3,18,1.5c5.4-0.9,8.3-2.2,10.1-3c3.1-1.4,3.8-2.6,3.9-3.2
					c0.1-0.5-0.1-0.7-0.1-0.7c-0.1-0.2-0.1-0.4,0.1-0.6c0.2-0.1,0.4-0.1,0.6,0.1c0,0.1,0.4,0.6,0.2,1.4c-0.3,1.3-1.8,2.5-4.4,3.7
					c-1.8,0.8-4.7,2.2-10.3,3.1C34.3,50.6,32.9,50.7,31.5,50.7z"/>
			</g>
			<g>
				<path class="st2" d="M46.7,46.8C46.6,46.8,46.6,46.8,46.7,46.8c-0.2,0-0.4-0.2-0.4-0.4c0-0.1,0.4-6.4-1.7-11.4
					c-1.3-3-3-5.5-5.5-7.7c-2.3-2.2-7.5-4.2-7.6-4.3c-0.2-0.1-0.3-0.3-0.2-0.5c0.1-0.2,0.3-0.3,0.5-0.2c0.2,0.1,5.4,2.2,7.8,4.4
					c2.6,2.4,4.4,4.9,5.7,8c2.2,5.2,1.8,11.5,1.7,11.8C47,46.6,46.9,46.8,46.7,46.8z"/>
			</g>
			<g>
				<path class="st2" d="M35.6,57.9c-0.5,0-1,0-1.5-0.1c-0.4,0-0.8,0-1.3-0.1c-2.8-0.1-19.9-6.3-23.1-9c-0.1-0.1-0.1-0.3,0-0.4
					c0.1-0.1,0.3-0.1,0.4,0c3.3,2.8,20.5,8.8,22.8,8.9c0.5,0,0.9,0,1.3,0.1c1.7,0.1,2.9,0.2,5.1-0.6c7.1-2.4,15.6-6,16.3-8.2
					c0-0.1,0.2-0.2,0.3-0.2c0.1,0,0.2,0.2,0.2,0.3c-0.9,3-12.9,7.3-16.6,8.6C37.8,57.8,36.7,57.9,35.6,57.9z"/>
			</g>
			<g>
				<path class="st2" d="M36.6,50.1c-0.1,0-0.3-0.1-0.3-0.3c0-0.1-0.2-9.9-1.2-13.8c-0.5-2-2.3-3.7-3.6-4.7
					c-3.2-2.7-6.5-4.6-9.3-5.4C19.3,25.1,17,25,17,25c-0.1,0-0.3-0.1-0.3-0.3c0-0.1,0.1-0.3,0.3-0.3c0.1,0,2.4,0.1,5.4,0.9
					c2.9,0.8,6.3,2.8,9.5,5.5c1.3,1.1,3.2,2.8,3.7,5c1,4,1.2,13.6,1.2,14C36.8,50,36.7,50.1,36.6,50.1
					C36.6,50.1,36.6,50.1,36.6,50.1z"/>
			</g>
			<g>
				<path class="st2" d="M35.3,50.1l-0.8,0c0-0.1,0.1-8.4-1.2-14.1c-0.3-1.4-1.5-2.5-2.4-3.2c-3.4-2.7-6.6-4.6-9.3-5.3
					c-2.9-0.8-5.2-0.9-5.2-0.9l0-0.8c0.1,0,2.4,0.1,5.4,0.9c3.6,1,7.2,3.5,9.6,5.5c1,0.8,2.3,2,2.7,3.6C35.4,41.6,35.3,50,35.3,50.1
					z"/>
			</g>
		</g>
	</g>
</g>
</svg>
