<!-- Generator: Adobe Illustrator 19.1.0, SVG Export Plug-In  -->
<svg version="1.1"
	 xmlns="http://www.w3.org/2000/svg" xmlns:xlink="http://www.w3.org/1999/xlink" xmlns:a="http://ns.adobe.com/AdobeSVGViewerExtensions/3.0/"
	 x="0px" y="0px" width="69.507px" height="69.507px" viewBox="0 0 69.507 69.507"
	 style="enable-background:new 0 0 69.507 69.507;" xml:space="preserve">
<defs>
</defs>
<g>
	<circle style="fill:#EFE9A2;" cx="34.754" cy="34.754" r="34.754"/>
	<g>
		<g>
			<g>
				<path style="fill:#808285;" d="M43.033,55.139H26.474c-3.104,0-5.629-2.525-5.629-5.629V19.998c0-3.104,2.525-5.63,5.629-5.63
					h16.559c3.104,0,5.629,2.525,5.629,5.63V49.51C48.662,52.614,46.137,55.139,43.033,55.139z M26.474,15.79
					c-2.32,0-4.208,1.887-4.208,4.208V49.51c0,2.32,1.887,4.207,4.208,4.207h16.559c2.32,0,4.207-1.887,4.207-4.207V19.998
					c0-2.321-1.887-4.208-4.207-4.208H26.474z"/>
			</g>
		</g>
		<g>
			<path style="fill:#808285;" d="M43.591,24.551H25.916c-1.47,0-2.666-1.196-2.666-2.666v-1.634c0-1.47,1.196-2.666,2.666-2.666
				h17.675c1.47,0,2.666,1.196,2.666,2.666v1.634C46.257,23.355,45.061,24.551,43.591,24.551z M25.916,18.652
				c-0.882,0-1.599,0.718-1.599,1.599v1.634c0,0.882,0.717,1.599,1.599,1.599h17.675c0.882,0,1.599-0.718,1.599-1.599v-1.634
				c0-0.882-0.717-1.599-1.599-1.599H25.916z"/>
		</g>
		<g>
			<path style="fill:#808285;" d="M35.27,24.284h-3.726c-0.113,0-0.214-0.071-0.252-0.179c-0.037-0.107-0.003-0.226,0.086-0.296
				l7.451-5.899c0.047-0.037,0.106-0.058,0.166-0.058h2.898c0.111,0,0.21,0.068,0.249,0.171c0.039,0.103,0.011,0.221-0.072,0.294
				l-6.623,5.899C35.398,24.26,35.335,24.284,35.27,24.284z M32.31,23.751h2.859l6.025-5.366h-2.105L32.31,23.751z"/>
		</g>
		<g>
			<g>
				<path style="fill:#808285;" d="M26.603,33.031h-1.079c-1.155,0-2.095-0.94-2.095-2.095v-1.333c0-1.155,0.94-2.095,2.095-2.095
					h1.079c1.155,0,2.095,0.94,2.095,2.095v1.333C28.698,32.091,27.758,33.031,26.603,33.031z M25.524,28.219
					c-0.763,0-1.384,0.621-1.384,1.384v1.333c0,0.763,0.621,1.384,1.384,1.384h1.079c0.763,0,1.384-0.621,1.384-1.384v-1.333
					c0-0.763-0.621-1.384-1.384-1.384H25.524z"/>
			</g>
			<g>
				<path style="fill:#808285;" d="M32.307,33.031h-1.08c-1.155,0-2.095-0.94-2.095-2.095v-1.333c0-1.155,0.94-2.095,2.095-2.095
					h1.08c1.155,0,2.095,0.94,2.095,2.095v1.333C34.402,32.091,33.462,33.031,32.307,33.031z M31.227,28.219
					c-0.763,0-1.384,0.621-1.384,1.384v1.333c0,0.763,0.621,1.384,1.384,1.384h1.08c0.763,0,1.384-0.621,1.384-1.384v-1.333
					c0-0.763-0.621-1.384-1.384-1.384H31.227z"/>
			</g>
			<g>
				<path style="fill:#808285;" d="M38.011,33.031h-1.08c-1.155,0-2.095-0.94-2.095-2.095v-1.333c0-1.155,0.94-2.095,2.095-2.095
					h1.08c1.155,0,2.095,0.94,2.095,2.095v1.333C40.106,32.091,39.166,33.031,38.011,33.031z M36.931,28.219
					c-0.763,0-1.384,0.621-1.384,1.384v1.333c0,0.763,0.621,1.384,1.384,1.384h1.08c0.763,0,1.384-0.621,1.384-1.384v-1.333
					c0-0.763-0.621-1.384-1.384-1.384H36.931z"/>
			</g>
			<g>
				<path style="fill:#808285;" d="M43.715,33.031h-1.079c-1.155,0-2.095-0.94-2.095-2.095v-1.333c0-1.155,0.94-2.095,2.095-2.095
					h1.079c1.155,0,2.095,0.94,2.095,2.095v1.333C45.81,32.091,44.87,33.031,43.715,33.031z M42.636,28.219
					c-0.763,0-1.384,0.621-1.384,1.384v1.333c0,0.763,0.621,1.384,1.384,1.384h1.079c0.763,0,1.384-0.621,1.384-1.384v-1.333
					c0-0.763-0.621-1.384-1.384-1.384H42.636z"/>
			</g>
			<g>
				<path style="fill:#808285;" d="M26.603,38.98h-1.079c-1.155,0-2.095-0.94-2.095-2.095v-1.333c0-1.155,0.94-2.095,2.095-2.095
					h1.079c1.155,0,2.095,0.94,2.095,2.095v1.333C28.698,38.04,27.758,38.98,26.603,38.98z M25.524,34.168
					c-0.763,0-1.384,0.621-1.384,1.384v1.333c0,0.763,0.621,1.384,1.384,1.384h1.079c0.763,0,1.384-0.621,1.384-1.384v-1.333
					c0-0.763-0.621-1.384-1.384-1.384H25.524z"/>
			</g>
			<g>
				<path style="fill:#808285;" d="M32.307,38.98h-1.08c-1.155,0-2.095-0.94-2.095-2.095v-1.333c0-1.155,0.94-2.095,2.095-2.095
					h1.08c1.155,0,2.095,0.94,2.095,2.095v1.333C34.402,38.04,33.462,38.98,32.307,38.98z M31.227,34.168
					c-0.763,0-1.384,0.621-1.384,1.384v1.333c0,0.763,0.621,1.384,1.384,1.384h1.08c0.763,0,1.384-0.621,1.384-1.384v-1.333
					c0-0.763-0.621-1.384-1.384-1.384H31.227z"/>
			</g>
			<g>
				<path style="fill:#808285;" d="M38.011,38.98h-1.08c-1.155,0-2.095-0.94-2.095-2.095v-1.333c0-1.155,0.94-2.095,2.095-2.095
					h1.08c1.155,0,2.095,0.94,2.095,2.095v1.333C40.106,38.04,39.166,38.98,38.011,38.98z M36.931,34.168
					c-0.763,0-1.384,0.621-1.384,1.384v1.333c0,0.763,0.621,1.384,1.384,1.384h1.08c0.763,0,1.384-0.621,1.384-1.384v-1.333
					c0-0.763-0.621-1.384-1.384-1.384H36.931z"/>
			</g>
			<g>
				<path style="fill:#808285;" d="M43.715,38.98h-1.079c-1.155,0-2.095-0.94-2.095-2.095v-1.333c0-1.155,0.94-2.095,2.095-2.095
					h1.079c1.155,0,2.095,0.94,2.095,2.095v1.333C45.81,38.04,44.87,38.98,43.715,38.98z M42.636,34.168
					c-0.763,0-1.384,0.621-1.384,1.384v1.333c0,0.763,0.621,1.384,1.384,1.384h1.079c0.763,0,1.384-0.621,1.384-1.384v-1.333
					c0-0.763-0.621-1.384-1.384-1.384H42.636z"/>
			</g>
			<g>
				<path style="fill:#808285;" d="M26.603,44.84h-1.079c-1.155,0-2.095-0.94-2.095-2.095v-1.333c0-1.155,0.94-2.095,2.095-2.095
					h1.079c1.155,0,2.095,0.94,2.095,2.095v1.333C28.698,43.9,27.758,44.84,26.603,44.84z M25.524,40.028
					c-0.763,0-1.384,0.621-1.384,1.384v1.333c0,0.763,0.621,1.384,1.384,1.384h1.079c0.763,0,1.384-0.621,1.384-1.384v-1.333
					c0-0.763-0.621-1.384-1.384-1.384H25.524z"/>
			</g>
			<g>
				<path style="fill:#808285;" d="M32.307,44.84h-1.08c-1.155,0-2.095-0.94-2.095-2.095v-1.333c0-1.155,0.94-2.095,2.095-2.095
					h1.08c1.155,0,2.095,0.94,2.095,2.095v1.333C34.402,43.9,33.462,44.84,32.307,44.84z M31.227,40.028
					c-0.763,0-1.384,0.621-1.384,1.384v1.333c0,0.763,0.621,1.384,1.384,1.384h1.08c0.763,0,1.384-0.621,1.384-1.384v-1.333
					c0-0.763-0.621-1.384-1.384-1.384H31.227z"/>
			</g>
			<g>
				<path style="fill:#808285;" d="M38.011,44.84h-1.08c-1.155,0-2.095-0.94-2.095-2.095v-1.333c0-1.155,0.94-2.095,2.095-2.095
					h1.08c1.155,0,2.095,0.94,2.095,2.095v1.333C40.106,43.9,39.166,44.84,38.011,44.84z M36.931,40.028
					c-0.763,0-1.384,0.621-1.384,1.384v1.333c0,0.763,0.621,1.384,1.384,1.384h1.08c0.763,0,1.384-0.621,1.384-1.384v-1.333
					c0-0.763-0.621-1.384-1.384-1.384H36.931z"/>
			</g>
			<g>
				<path style="fill:#808285;" d="M43.715,50.262h-1.079c-1.155,0-2.095-0.94-2.095-2.095v-6.755c0-1.155,0.94-2.095,2.095-2.095
					h1.079c1.155,0,2.095,0.94,2.095,2.095v6.755C45.81,49.322,44.87,50.262,43.715,50.262z M42.636,40.028
					c-0.763,0-1.384,0.621-1.384,1.384v6.755c0,0.763,0.621,1.384,1.384,1.384h1.079c0.763,0,1.384-0.621,1.384-1.384v-6.755
					c0-0.763-0.621-1.384-1.384-1.384H42.636z"/>
			</g>
			<g>
				<path style="fill:#808285;" d="M26.603,50.61h-1.079c-1.155,0-2.095-0.94-2.095-2.095v-1.333c0-1.155,0.94-2.095,2.095-2.095
					h1.079c1.155,0,2.095,0.94,2.095,2.095v1.333C28.698,49.67,27.758,50.61,26.603,50.61z M25.524,45.798
					c-0.763,0-1.384,0.621-1.384,1.384v1.333c0,0.763,0.621,1.384,1.384,1.384h1.079c0.763,0,1.384-0.621,1.384-1.384v-1.333
					c0-0.763-0.621-1.384-1.384-1.384H25.524z"/>
			</g>
			<g>
				<path style="fill:#808285;" d="M32.307,50.61h-1.08c-1.155,0-2.095-0.94-2.095-2.095v-1.333c0-1.155,0.94-2.095,2.095-2.095
					h1.08c1.155,0,2.095,0.94,2.095,2.095v1.333C34.402,49.67,33.462,50.61,32.307,50.61z M31.227,45.798
					c-0.763,0-1.384,0.621-1.384,1.384v1.333c0,0.763,0.621,1.384,1.384,1.384h1.08c0.763,0,1.384-0.621,1.384-1.384v-1.333
					c0-0.763-0.621-1.384-1.384-1.384H31.227z"/>
			</g>
			<g>
				<path style="fill:#808285;" d="M38.011,50.61h-1.08c-1.155,0-2.095-0.94-2.095-2.095v-1.333c0-1.155,0.94-2.095,2.095-2.095
					h1.08c1.155,0,2.095,0.94,2.095,2.095v1.333C40.106,49.67,39.166,50.61,38.011,50.61z M36.931,45.798
					c-0.763,0-1.384,0.621-1.384,1.384v1.333c0,0.763,0.621,1.384,1.384,1.384h1.08c0.763,0,1.384-0.621,1.384-1.384v-1.333
					c0-0.763-0.621-1.384-1.384-1.384H36.931z"/>
			</g>
		</g>
	</g>
</g>
</svg>
