<!-- Generator: Adobe Illustrator 19.1.0, SVG Export Plug-In  -->
<svg version="1.1"
	 xmlns="http://www.w3.org/2000/svg" xmlns:xlink="http://www.w3.org/1999/xlink" xmlns:a="http://ns.adobe.com/AdobeSVGViewerExtensions/3.0/"
	 x="0px" y="0px" width="77.4px" height="71.1px" viewBox="0 0 77.4 71.1" style="enable-background:new 0 0 77.4 71.1;"
	 xml:space="preserve">
<style type="text/css">
	.st0{clip-path:url(#SVGID_2_);fill:#EFE9A2;}
	.st1{clip-path:url(#SVGID_2_);}
	.st2{fill:#808285;}
	.st3{fill:#EFE9A2;}
	.st4{fill:#666666;}
	.st5{clip-path:url(#SVGID_4_);fill:#EFE9A2;}
	.st6{clip-path:url(#SVGID_4_);}
</style>
<defs>
</defs>
<g>
	<g>
		<defs>
			<circle id="SVGID_1_" cx="40.8" cy="36.4" r="34.8"/>
		</defs>
		<clipPath id="SVGID_2_">
			<use xlink:href="#SVGID_1_"  style="overflow:visible;"/>
		</clipPath>
		<circle class="st0" cx="40.8" cy="36.4" r="34.8"/>
		<g class="st1">
			<g>
				<g>
					<path class="st2" d="M60,3c0.1,0,0.2,0,0.3,0c0-0.3,0-0.5,0-0.8c0-0.6,0.2-1.6-0.1-2.2c0-0.1-0.2-0.1-0.2,0
						C59.8,0.6,60,1.6,60,2.2C60,2.4,60,2.7,60,3z"/>
				</g>
				<g>
					<path class="st2" d="M56.5,3.9c0.1,0,0.2-0.1,0.3-0.1c-0.1-0.3-0.2-0.5-0.4-0.8c-0.3-0.6-0.5-1.5-1-2c-0.1-0.1-0.2,0-0.2,0.1
						c0,0.6,0.6,1.4,0.8,1.9C56.3,3.3,56.4,3.6,56.5,3.9z"/>
				</g>
				<g>
					<path class="st2" d="M57.6,3.4c0.1,0,0.2-0.1,0.3-0.1c-0.1-0.3-0.2-0.5-0.2-0.8C57.5,2,57.4,1,57,0.5c-0.1-0.1-0.2,0-0.2,0.1
						c-0.1,0.6,0.4,1.5,0.5,2C57.4,2.9,57.5,3.2,57.6,3.4z"/>
				</g>
				<g>
					<path class="st2" d="M55.5,4.5c0.1-0.1,0.2-0.1,0.3-0.2c-0.2-0.2-0.3-0.5-0.5-0.7c-0.3-0.5-0.7-1.5-1.2-1.8
						c-0.1,0-0.2,0-0.2,0.1C54,2.5,54.6,3.2,55,3.7C55.1,4,55.3,4.2,55.5,4.5z"/>
				</g>
				<g>
					<path class="st2" d="M58.8,3.1c0.1,0,0.2,0,0.3-0.1c0-0.3-0.1-0.5-0.1-0.8c-0.1-0.6-0.1-1.6-0.4-2.1c0-0.1-0.2-0.1-0.2,0
						c-0.2,0.6,0.1,1.5,0.2,2.1C58.7,2.6,58.7,2.8,58.8,3.1z"/>
				</g>
				<g>
					<path class="st2" d="M51.6,7.7c0.3,0.1,0.5,0.2,0.8,0.4c0-0.1,0.1-0.2,0.1-0.3c-0.2-0.1-0.5-0.2-0.7-0.3
						c-0.6-0.3-1.4-0.9-2-0.9c-0.1,0-0.1,0.1-0.1,0.2C50.1,7.2,51,7.4,51.6,7.7z"/>
				</g>
				<g>
					<path class="st2" d="M51.1,8.9c0.3,0.1,0.5,0.2,0.8,0.2C51.9,9,52,8.9,52,8.8c-0.2-0.1-0.5-0.1-0.7-0.2
						c-0.6-0.2-1.5-0.7-2.1-0.6c-0.1,0-0.1,0.1-0.1,0.2C49.5,8.6,50.5,8.7,51.1,8.9z"/>
				</g>
				<g>
					<path class="st2" d="M53,5.4c0.2,0.2,0.4,0.4,0.6,0.6c0.1-0.1,0.2-0.2,0.2-0.2c-0.2-0.2-0.4-0.3-0.6-0.5
						c-0.5-0.4-1.1-1.2-1.7-1.4c-0.1,0-0.2,0.1-0.1,0.1C51.7,4.6,52.5,5.1,53,5.4z"/>
				</g>
				<g>
					<path class="st2" d="M52.2,6.5c0.2,0.2,0.5,0.3,0.7,0.5c0.1-0.1,0.1-0.2,0.2-0.3c-0.2-0.1-0.4-0.3-0.6-0.4
						c-0.5-0.3-1.2-1-1.9-1.1c-0.1,0-0.1,0.1-0.1,0.2C50.8,5.8,51.7,6.2,52.2,6.5z"/>
				</g>
				<g>
					<path class="st2" d="M53.9,4.5c0.2,0.2,0.4,0.4,0.6,0.7C54.6,5.1,54.7,5,54.8,5c-0.2-0.2-0.4-0.4-0.5-0.6
						c-0.4-0.5-0.9-1.3-1.5-1.6c-0.1,0-0.2,0-0.1,0.1C52.8,3.4,53.5,4.1,53.9,4.5z"/>
				</g>
				<g>
					<path class="st2" d="M67.6,6.4c0.1,0.1,0.1,0.2,0.2,0.3c0.1-0.1,0.2-0.1,0.3-0.2c0.5-0.4,1.4-0.8,1.8-1.3c0-0.1,0-0.2-0.1-0.2
						c-0.6,0.1-1.3,0.8-1.8,1.1C67.8,6.3,67.7,6.3,67.6,6.4z"/>
				</g>
				<g>
					<path class="st2" d="M68.8,8.6c0,0.1,0.1,0.2,0.1,0.3c0.1,0,0.2-0.1,0.3-0.1c0.6-0.2,1.6-0.3,2-0.8c0.1-0.1,0-0.2-0.1-0.2
						c-0.6-0.1-1.5,0.4-2,0.6C69,8.6,68.9,8.6,68.8,8.6z"/>
				</g>
				<g>
					<path class="st2" d="M68.3,7.5c0.1,0.1,0.1,0.2,0.2,0.3c0.1,0,0.2-0.1,0.3-0.1c0.6-0.3,1.5-0.6,1.9-1c0.1-0.1,0-0.2-0.1-0.2
						c-0.6,0-1.4,0.6-1.9,0.9C68.5,7.4,68.4,7.4,68.3,7.5z"/>
				</g>
				<g>
					<path class="st2" d="M69.6,11.1c-0.2,0-0.3,0-0.5,0c0,0.1,0,0.2,0,0.3c0.1,0,0.3,0,0.4,0c0.6,0,1.6,0.1,2.2-0.2
						c0.1,0,0.1-0.2,0-0.2C71.2,10.9,70.2,11.1,69.6,11.1z"/>
				</g>
				<g>
					<path class="st2" d="M61.5,3.2c0-0.3,0.1-0.6,0.1-0.8c0.1-0.6,0.4-1.6,0.2-2.2c0-0.1-0.1-0.1-0.2,0c-0.3,0.5-0.3,1.5-0.3,2.1
						c0,0.3-0.1,0.6-0.1,0.9C61.3,3.2,61.4,3.2,61.5,3.2z"/>
				</g>
				<g>
					<path class="st2" d="M69.5,9.8c-0.1,0-0.2,0-0.4,0.1c0,0.1,0,0.2,0,0.3c0.1,0,0.2,0,0.3-0.1c0.6-0.1,1.6-0.1,2.1-0.5
						c0.1,0,0-0.2,0-0.2C71,9.3,70.1,9.7,69.5,9.8z"/>
				</g>
				<g>
					<path class="st2" d="M48.7,9.8c0.5,0.4,1.5,0.3,2.1,0.4c0.3,0,0.5,0.1,0.8,0.1c0-0.1,0-0.2,0.1-0.3c-0.2,0-0.5-0.1-0.7-0.1
						c-0.6-0.1-1.6-0.5-2.2-0.3C48.7,9.6,48.7,9.7,48.7,9.8z"/>
				</g>
				<g>
					<path class="st2" d="M63.8,3.8c0.1-0.2,0.2-0.5,0.3-0.7c0.2-0.6,0.8-1.4,0.8-2c0-0.1-0.1-0.1-0.2-0.1c-0.5,0.4-0.7,1.4-0.9,1.9
						c-0.1,0.3-0.2,0.5-0.3,0.8C63.6,3.7,63.7,3.8,63.8,3.8z"/>
				</g>
				<g>
					<path class="st2" d="M62.7,3.5c0.1-0.3,0.1-0.5,0.2-0.8c0.2-0.6,0.6-1.5,0.5-2.1c0-0.1-0.1-0.1-0.2-0.1c-0.4,0.5-0.5,1.4-0.6,2
						c-0.1,0.3-0.2,0.6-0.2,0.9C62.5,3.4,62.6,3.4,62.7,3.5z"/>
				</g>
				<g>
					<path class="st2" d="M64.9,4.3c0.1-0.2,0.2-0.4,0.3-0.5c0.3-0.5,1-1.3,1.1-1.9c0-0.1-0.1-0.1-0.2-0.1C65.7,2.1,65.3,3,65,3.5
						c-0.1,0.2-0.3,0.4-0.4,0.7C64.7,4.2,64.8,4.2,64.9,4.3z"/>
				</g>
				<g>
					<path class="st2" d="M65.7,4.7c0.1,0.1,0.2,0.1,0.3,0.2c0.1-0.1,0.2-0.2,0.3-0.4c0.4-0.5,1.2-1.1,1.3-1.7
						c0-0.1-0.1-0.2-0.1-0.1c-0.6,0.3-1,1.1-1.4,1.6C66,4.4,65.9,4.6,65.7,4.7z"/>
				</g>
				<g>
					<path class="st2" d="M67.1,5.1c-0.1,0.1-0.2,0.2-0.4,0.3c0.1,0.1,0.2,0.2,0.2,0.2c0.1-0.1,0.2-0.2,0.3-0.3
						c0.5-0.4,1.3-1,1.6-1.5c0-0.1-0.1-0.2-0.1-0.1C68.1,4,67.5,4.7,67.1,5.1z"/>
				</g>
				<g>
					<path class="st2" d="M59.7,20.8c-0.1,0-0.2,0-0.3,0c0,0.1,0,0.2,0,0.3c0,0.6-0.3,1.6-0.1,2.2c0,0.1,0.2,0.1,0.2,0
						c0.3-0.5,0.2-1.5,0.2-2.1C59.7,21,59.7,20.9,59.7,20.8z"/>
				</g>
				<g>
					<path class="st2" d="M65.9,19.2c-0.1-0.1-0.2-0.3-0.3-0.4c-0.1,0.1-0.2,0.1-0.3,0.2c0.1,0.1,0.2,0.2,0.3,0.4
						c0.4,0.5,0.8,1.4,1.4,1.7c0.1,0,0.2,0,0.2-0.1C67,20.3,66.3,19.7,65.9,19.2z"/>
				</g>
				<g>
					<path class="st2" d="M66.9,18.3c-0.1-0.1-0.3-0.3-0.4-0.4c-0.1,0.1-0.2,0.2-0.2,0.2c0.1,0.1,0.2,0.2,0.3,0.3
						c0.4,0.4,1,1.3,1.6,1.5c0.1,0,0.2-0.1,0.1-0.1C68.1,19.3,67.3,18.7,66.9,18.3z"/>
				</g>
				<g>
					<path class="st2" d="M64.5,19.5c-0.1,0.1-0.2,0.1-0.3,0.2c0.1,0.1,0.1,0.3,0.2,0.4c0.3,0.5,0.6,1.5,1.1,1.9
						c0.1,0,0.2,0,0.2-0.1c0-0.6-0.7-1.4-0.9-1.9C64.7,19.8,64.6,19.6,64.5,19.5z"/>
				</g>
				<g>
					<path class="st2" d="M62.2,20.4c-0.1,0-0.2,0.1-0.3,0.1c0,0.1,0.1,0.2,0.1,0.4c0.1,0.6,0.2,1.6,0.5,2.1c0,0.1,0.2,0,0.2,0
						c0.1-0.6-0.3-1.5-0.4-2.1C62.3,20.7,62.3,20.6,62.2,20.4z"/>
				</g>
				<g>
					<path class="st2" d="M63.4,20c-0.1,0-0.2,0.1-0.3,0.1c0,0.1,0.1,0.3,0.1,0.4c0.2,0.6,0.4,1.6,0.8,2c0.1,0.1,0.2,0,0.2-0.1
						c0.1-0.6-0.5-1.4-0.7-2C63.5,20.3,63.5,20.2,63.4,20z"/>
				</g>
				<g>
					<path class="st2" d="M69.4,13.7c-0.2,0-0.4-0.1-0.5-0.1c0,0.1-0.1,0.2-0.1,0.3c0.2,0,0.3,0.1,0.5,0.1c0.6,0.1,1.5,0.6,2.1,0.4
						c0.1,0,0.1-0.1,0-0.2C71,13.9,70,13.9,69.4,13.7z"/>
				</g>
				<g>
					<path class="st2" d="M61,20.7c-0.1,0-0.2,0-0.3,0c0,0.1,0,0.2,0,0.3c0.1,0.6-0.1,1.6,0.2,2.2c0,0.1,0.2,0.1,0.2,0
						c0.2-0.6,0-1.5-0.1-2.1C61,21,61,20.8,61,20.7z"/>
				</g>
				<g>
					<path class="st2" d="M69.6,12.4c-0.2,0-0.3,0-0.5,0c0,0.1,0,0.2,0,0.3c0.1,0,0.3,0,0.4,0c0.6,0.1,1.6,0.3,2.2,0.1
						c0.1,0,0.1-0.1,0-0.2C71.2,12.4,70.2,12.5,69.6,12.4z"/>
				</g>
				<g>
					<path class="st2" d="M68.5,16.2c-0.2-0.1-0.3-0.2-0.5-0.3c-0.1,0.1-0.1,0.2-0.2,0.3c0.1,0.1,0.3,0.2,0.4,0.2
						c0.5,0.3,1.3,1,1.9,1c0.1,0,0.1-0.1,0.1-0.2C69.9,16.8,69,16.5,68.5,16.2z"/>
				</g>
				<g>
					<path class="st2" d="M69,15c-0.2-0.1-0.4-0.1-0.5-0.2c0,0.1-0.1,0.2-0.1,0.3c0.2,0.1,0.3,0.1,0.5,0.2c0.6,0.2,1.4,0.8,2.1,0.7
						c0.1,0,0.1-0.1,0.1-0.2C70.6,15.4,69.6,15.2,69,15z"/>
				</g>
				<g>
					<path class="st2" d="M67.8,17.3c-0.1-0.1-0.3-0.2-0.4-0.3c-0.1,0.1-0.1,0.2-0.2,0.3c0.1,0.1,0.3,0.2,0.4,0.3
						c0.5,0.4,1.2,1.1,1.8,1.3c0.1,0,0.2-0.1,0.1-0.2C69.1,18.1,68.2,17.7,67.8,17.3z"/>
				</g>
				<g>
					<path class="st2" d="M52.6,16.2c0-0.1-0.1-0.1-0.1-0.2c0,0-0.1-0.1-0.1-0.1c-0.2,0.1-0.3,0.2-0.5,0.3c-0.5,0.3-1.5,0.7-1.8,1.2
						c0,0.1,0,0.2,0.1,0.2c0.6,0,1.3-0.7,1.8-1C52.2,16.5,52.4,16.4,52.6,16.2z"/>
				</g>
				<g>
					<path class="st2" d="M52,15.1c0-0.1-0.1-0.2-0.1-0.3c-0.2,0.1-0.4,0.1-0.5,0.2c-0.6,0.2-1.6,0.4-2,0.9c-0.1,0.1,0,0.2,0.1,0.2
						c0.6,0,1.4-0.5,2-0.7C51.6,15.3,51.8,15.2,52,15.1z"/>
				</g>
				<g>
					<path class="st2" d="M58.1,20.6c0,0.1,0,0.1,0,0.2c-0.1,0.6-0.5,1.5-0.4,2.2c0,0.1,0.1,0.1,0.2,0c0.4-0.5,0.4-1.5,0.5-2
						c0-0.1,0-0.2,0.1-0.3C58.3,20.7,58.2,20.6,58.1,20.6z"/>
				</g>
				<g>
					<path class="st2" d="M51.7,14c0-0.1,0-0.2-0.1-0.3c-0.2,0.1-0.4,0.1-0.6,0.2c-0.6,0.2-1.6,0.2-2.1,0.6c-0.1,0.1,0,0.2,0,0.2
						c0.6,0.1,1.5-0.3,2.1-0.5C51.2,14.1,51.5,14,51.7,14z"/>
				</g>
				<g>
					<path class="st2" d="M50.8,12.8c0.3,0,0.5-0.1,0.8-0.1c0-0.1,0-0.2,0-0.3c-0.2,0-0.5,0.1-0.7,0.1c-0.6,0.1-1.6,0-2.2,0.3
						c-0.1,0-0.1,0.2,0,0.2C49.2,13.2,50.2,12.9,50.8,12.8z"/>
				</g>
				<g>
					<path class="st2" d="M53.2,17.3c-0.1-0.1-0.1-0.2-0.2-0.3c-0.1,0.1-0.3,0.2-0.4,0.3c-0.5,0.4-1.4,0.9-1.7,1.4
						c0,0.1,0,0.2,0.1,0.2c0.6-0.1,1.2-0.9,1.7-1.3C53,17.5,53.1,17.4,53.2,17.3z"/>
				</g>
				<g>
					<path class="st2" d="M50.7,11.5c0.3,0,0.5,0,0.8,0c0-0.1,0-0.2,0-0.3c-0.2,0-0.5,0-0.7,0c-0.6,0-1.6-0.2-2.2,0
						c-0.1,0-0.1,0.2,0,0.2C49.1,11.7,50.1,11.5,50.7,11.5z"/>
				</g>
				<g>
					<path class="st2" d="M55.7,19.7c0,0,0,0.1-0.1,0.1c-0.3,0.5-0.9,1.3-0.9,2c0,0.1,0.1,0.1,0.2,0.1c0.5-0.4,0.8-1.3,1-1.8
						c0-0.1,0.1-0.1,0.1-0.2C55.9,19.9,55.8,19.8,55.7,19.7z"/>
				</g>
				<g>
					<path class="st2" d="M54,18.3c-0.1-0.1-0.2-0.2-0.2-0.3c-0.1,0.1-0.2,0.2-0.3,0.3c-0.4,0.4-1.2,1-1.4,1.6
						c0,0.1,0.1,0.2,0.1,0.1c0.6-0.2,1.1-1,1.5-1.5C53.8,18.5,53.9,18.4,54,18.3z"/>
				</g>
				<g>
					<path class="st2" d="M56.9,20.3c0,0,0,0.1,0,0.1c-0.2,0.6-0.7,1.5-0.7,2.1c0,0.1,0.1,0.1,0.2,0.1c0.4-0.4,0.6-1.4,0.8-2
						c0-0.1,0-0.1,0.1-0.2C57.1,20.4,57,20.3,56.9,20.3z"/>
				</g>
				<g>
					<path class="st2" d="M54.9,19.2c-0.1-0.1-0.2-0.1-0.3-0.2c-0.1,0.1-0.1,0.1-0.2,0.2c-0.4,0.5-1.1,1.2-1.2,1.8
						c0,0.1,0.1,0.2,0.2,0.1c0.5-0.3,0.9-1.2,1.3-1.7C54.8,19.4,54.9,19.3,54.9,19.2z"/>
				</g>
			</g>
			<g>
				<path class="st2" d="M59.8,19.6c-1.1,0-2.1-0.2-2.9-0.6c-1.3-0.6-2.5-1.8-3.4-3.5c-1.5-2.6-1.1-6.5,0.9-8.7
					c1.3-1.4,3.9-2.9,6.1-2.7c1.9,0.2,4,1,4.8,1.6c1.5,1.1,2.6,3.1,2.7,4.8c0.3,4.4-2.4,8-6.5,8.9C61,19.5,60.4,19.6,59.8,19.6z
					 M60,5.1c-1.8,0-3.9,1.2-4.9,2.4c-1.7,2-2.1,5.3-0.8,7.6c0.9,1.5,1.9,2.6,3,3.1c0.6,0.3,1.5,0.5,2.5,0.5c0.5,0,1.1-0.1,1.5-0.2
					c3.6-0.8,5.9-3.9,5.7-7.8c-0.1-1.4-1.1-3.1-2.3-4.1C64,6,62.1,5.3,60.3,5.1C60.2,5.1,60.1,5.1,60,5.1z"/>
			</g>
		</g>
		<g class="st1">
			<g>
				<g>
					<path class="st3" d="M19.7,40.3c0-2.4-1.9-4.3-4.3-4.3c-0.3,0-0.5,0-0.7,0.1c-0.4-2-2.2-3.5-4.3-3.5c-2.3,0-4.2,1.8-4.4,4.1
						c-0.2,0-0.3,0-0.5,0c-2.7,0-4.9,2.2-4.9,4.9c0,2.2,1.4,4,3.4,4.6c0,0.1,0,0.2,0,0.2c0,2.1,1.7,3.9,3.9,3.9
						c1.4,0,2.6-0.8,3.3-1.9c0.7,0.9,1.8,1.5,3.1,1.5c2.1,0,3.9-1.7,3.9-3.9c0-0.7-0.2-1.4-0.5-1.9C18.9,43.3,19.7,41.9,19.7,40.3z"
						/>
					<path class="st2" d="M7.9,50.8c-2.4,0-4.4-1.9-4.5-4.3c-2-0.9-3.4-2.8-3.4-5.1c0-3,2.4-5.5,5.4-5.5c0.5-2.3,2.5-4.1,5-4.1
						c2.2,0,4.1,1.4,4.8,3.5c2.9-0.2,5.2,2.1,5.2,4.9c0,1.6-0.7,3-2,4c0.2,0.5,0.3,1.1,0.3,1.7c0,2.5-2,4.5-4.5,4.5
						c-1.1,0-2.2-0.4-3-1.1C10.4,50.2,9.2,50.8,7.9,50.8z M5.5,37.2c-2.3,0-4.2,1.9-4.2,4.2c0,1.8,1.2,3.4,2.9,4
						c0.3,0.1,0.5,0.4,0.5,0.7c0,0,0,0.1,0,0.1c0,0,0,0.1,0,0.1c0,1.8,1.4,3.2,3.2,3.2c1.1,0,2.2-0.6,2.7-1.6
						c0.1-0.2,0.3-0.3,0.5-0.3c0.2,0,0.4,0.1,0.6,0.3c0.6,0.8,1.5,1.3,2.5,1.3c1.8,0,3.2-1.4,3.2-3.2c0-0.6-0.1-1.1-0.4-1.6
						c-0.1-0.2-0.1-0.3-0.1-0.5c0-0.2,0.2-0.3,0.3-0.4c1.1-0.6,1.8-1.9,1.8-3.1c0-2-1.6-3.6-3.6-3.6c-0.2,0-0.4,0-0.6,0.1
						c-0.4,0.1-0.7-0.2-0.8-0.5c-0.3-1.7-1.9-3-3.7-3c-1.9,0-3.6,1.5-3.7,3.5c0,0.2-0.1,0.3-0.2,0.5c-0.1,0.1-0.3,0.2-0.5,0.2
						C5.8,37.2,5.7,37.2,5.5,37.2z"/>
				</g>
				<g>
					<path class="st2" d="M15.1,42.7c-0.3-0.4-0.8-0.4-1.1-0.2l-2.2,1.6v-2.8c0-0.4-0.4-0.8-0.8-0.8s-0.8,0.4-0.8,0.8v5.2l-3.3-2.2
						c-0.4-0.2-0.9-0.1-1.1,0.2c-0.2,0.4-0.1,0.9,0.2,1.1l3.9,2.6c0.1,0.1,0.2,0.1,0.3,0.1v8.2c0,0.4,0.4,0.8,0.8,0.8
						s0.8-0.4,0.8-0.8V46.2l3.2-2.3C15.3,43.6,15.3,43.1,15.1,42.7z"/>
				</g>
				<g>
					<path class="st3" d="M57.7,40.3c0-2.4,1.9-4.3,4.3-4.3c0.3,0,0.5,0,0.7,0.1c0.4-2,2.2-3.5,4.3-3.5c2.3,0,4.2,1.8,4.4,4.1
						c0.2,0,0.3,0,0.5,0c2.7,0,4.9,2.2,4.9,4.9c0,2.2-1.4,4-3.4,4.6c0,0.1,0,0.2,0,0.2c0,2.1-1.7,3.9-3.9,3.9
						c-1.4,0-2.6-0.8-3.3-1.9c-0.7,0.9-1.8,1.5-3.1,1.5c-2.1,0-3.9-1.7-3.9-3.9c0-0.7,0.2-1.4,0.5-1.9
						C58.5,43.3,57.7,41.9,57.7,40.3z"/>
					<path class="st2" d="M69.5,50.8c-1.3,0-2.5-0.6-3.4-1.5c-0.8,0.7-1.9,1.1-3,1.1c-2.5,0-4.5-2-4.5-4.5c0-0.6,0.1-1.2,0.3-1.7
						c-1.2-0.9-2-2.4-2-4c0-2.8,2.3-5.1,5.2-4.9c0.7-2,2.6-3.5,4.8-3.5c2.4,0,4.5,1.7,5,4.1c3,0.1,5.4,2.5,5.4,5.5
						c0,2.2-1.3,4.2-3.4,5.1C73.9,48.9,71.9,50.8,69.5,50.8z M66.2,47.6C66.2,47.6,66.2,47.6,66.2,47.6c0.3,0,0.5,0.1,0.6,0.3
						c0.6,1,1.6,1.6,2.7,1.6c1.8,0,3.2-1.4,3.2-3.2c0,0,0-0.1,0-0.1c0,0,0-0.1,0-0.1c0-0.3,0.2-0.6,0.5-0.7c1.7-0.6,2.9-2.2,2.9-4
						c0-2.3-1.9-4.2-4.2-4.2c-0.1,0-0.3,0-0.4,0c-0.2,0-0.4,0-0.5-0.2c-0.1-0.1-0.2-0.3-0.2-0.5c-0.1-1.9-1.8-3.5-3.7-3.5
						c-1.8,0-3.3,1.3-3.7,3c-0.1,0.4-0.4,0.6-0.8,0.5c-0.2,0-0.4-0.1-0.6-0.1c-2,0-3.6,1.6-3.6,3.6c0,1.3,0.7,2.5,1.8,3.1
						c0.2,0.1,0.3,0.2,0.3,0.4c0,0.2,0,0.3-0.1,0.5c-0.3,0.5-0.4,1-0.4,1.6c0,1.8,1.4,3.2,3.2,3.2c1,0,1.9-0.5,2.5-1.3
						C65.8,47.7,66,47.6,66.2,47.6z"/>
				</g>
				<g>
					<path class="st2" d="M62.3,42.7c0.3-0.4,0.8-0.4,1.1-0.2l2.2,1.6v-2.8c0-0.4,0.4-0.8,0.8-0.8s0.8,0.4,0.8,0.8v5.2l3.3-2.2
						c0.4-0.2,0.9-0.1,1.1,0.2c0.2,0.4,0.1,0.9-0.2,1.1l-3.9,2.6c-0.1,0.1-0.2,0.1-0.3,0.1v8.2c0,0.4-0.4,0.8-0.8,0.8
						s-0.8-0.4-0.8-0.8V46.2l-3.2-2.3C62.1,43.6,62,43.1,62.3,42.7z"/>
				</g>
				<g>
					<path class="st3" d="M35.8,39.3c0-2.9-2.4-5.3-5.3-5.3c-0.3,0-0.6,0-0.9,0.1c-0.5-2.5-2.7-4.4-5.3-4.4c-2.9,0-5.2,2.2-5.4,5
						c-0.2,0-0.4,0-0.6,0c-3.3,0-6,2.7-6,6c0,2.7,1.8,4.9,4.2,5.7c0,0.1,0,0.2,0,0.3c0,2.6,2.1,4.8,4.8,4.8c1.7,0,3.3-0.9,4.1-2.3
						c0.9,1.1,2.2,1.9,3.8,1.9c2.6,0,4.8-2.1,4.8-4.8c0-0.9-0.2-1.7-0.6-2.4C34.7,43,35.8,41.2,35.8,39.3z"/>
					<path class="st2" d="M21.1,52.1c-2.9,0-5.3-2.3-5.4-5.2c-2.5-1-4.2-3.4-4.2-6.2c0-3.7,3-6.7,6.7-6.7c0,0,0,0,0,0
						c0.5-2.9,3-5,6-5c2.7,0,5.1,1.8,5.8,4.3c0.1,0,0.3,0,0.4,0c3.3,0,6,2.7,6,6c0,1.9-0.9,3.7-2.5,4.8c0.3,0.7,0.4,1.4,0.4,2.1
						c0,3-2.4,5.4-5.4,5.4c-1.4,0-2.7-0.5-3.7-1.5C24.3,51.4,22.8,52.1,21.1,52.1z M18.2,35.3c-2.9,0-5.3,2.4-5.3,5.3
						c0,2.3,1.5,4.4,3.7,5.1c0.3,0.1,0.5,0.4,0.5,0.7l0,0.1c0,0.1,0,0.1,0,0.2c0,2.3,1.8,4.1,4.1,4.1c1.5,0,2.8-0.7,3.5-2
						c0.1-0.2,0.3-0.3,0.5-0.3c0.2,0,0.4,0.1,0.6,0.3c0.8,1,2,1.6,3.2,1.6c2.3,0,4.1-1.8,4.1-4.1c0-0.7-0.2-1.4-0.5-2
						c-0.1-0.2-0.1-0.3-0.1-0.5c0-0.2,0.2-0.3,0.3-0.4c1.4-0.8,2.3-2.4,2.3-4c0-2.6-2.1-4.6-4.6-4.6c-0.3,0-0.5,0-0.8,0.1
						c-0.4,0.1-0.7-0.2-0.8-0.5c-0.4-2.2-2.4-3.8-4.7-3.8c-2.5,0-4.6,1.9-4.8,4.4c0,0.2-0.1,0.3-0.2,0.5c-0.1,0.1-0.3,0.2-0.5,0.2
						C18.6,35.4,18.4,35.3,18.2,35.3z"/>
				</g>
				<g>
					<path class="st2" d="M28.9,42.8c-0.3-0.4-0.8-0.4-1.1-0.2l-2.2,1.6v-2.8c0-0.4-0.4-0.8-0.8-0.8s-0.8,0.4-0.8,0.8v5.2l-3.3-2.2
						c-0.4-0.2-0.9-0.1-1.1,0.2c-0.2,0.4-0.1,0.9,0.2,1.1l3.9,2.6c0.1,0.1,0.2,0.1,0.3,0.1v8.1c0,0.4,0.4,0.8,0.8,0.8
						s0.8-0.4,0.8-0.8V46.3l3.2-2.3C29.1,43.7,29.1,43.2,28.9,42.8z"/>
				</g>
				<g>
					<path class="st3" d="M42.1,39.3c0-2.9,2.4-5.3,5.3-5.3c0.3,0,0.6,0,0.9,0.1c0.5-2.5,2.7-4.4,5.3-4.4c2.9,0,5.2,2.2,5.4,5
						c0.2,0,0.4,0,0.6,0c3.3,0,6,2.7,6,6c0,2.7-1.8,4.9-4.2,5.7c0,0.1,0,0.2,0,0.3c0,2.6-2.1,4.8-4.8,4.8c-1.7,0-3.3-0.9-4.1-2.3
						c-0.9,1.1-2.2,1.9-3.8,1.9c-2.6,0-4.8-2.1-4.8-4.8c0-0.9,0.2-1.7,0.6-2.4C43.2,43,42.1,41.2,42.1,39.3z"/>
					<path class="st2" d="M56.8,52.1c-1.6,0-3.1-0.7-4.1-1.9c-1,0.9-2.3,1.5-3.7,1.5c-3,0-5.4-2.4-5.4-5.4c0-0.7,0.2-1.5,0.4-2.1
						c-1.5-1.1-2.5-2.9-2.5-4.8c0-3.3,2.7-6,6-6c0.1,0,0.3,0,0.4,0c0.8-2.5,3.1-4.3,5.8-4.3c3,0,5.5,2.2,6,5c0,0,0,0,0,0
						c3.7,0,6.7,3,6.7,6.7c0,2.7-1.7,5.2-4.2,6.2C62.1,49.8,59.7,52.1,56.8,52.1z M52.7,48.5C52.7,48.5,52.7,48.5,52.7,48.5
						c0.3,0,0.5,0.1,0.6,0.3c0.7,1.3,2.1,2,3.5,2c2.3,0,4.1-1.8,4.1-4.1c0-0.1,0-0.1,0-0.2l0-0.1c0-0.3,0.2-0.6,0.5-0.7
						c2.2-0.7,3.7-2.8,3.7-5.1c0-2.9-2.4-5.3-5.3-5.3c-0.2,0-0.4,0-0.5,0c-0.2,0-0.4,0-0.5-0.2c-0.1-0.1-0.2-0.3-0.2-0.5
						c-0.2-2.5-2.3-4.4-4.8-4.4c-2.3,0-4.2,1.6-4.7,3.8c-0.1,0.4-0.4,0.6-0.8,0.5c-0.3-0.1-0.6-0.1-0.8-0.1c-2.6,0-4.6,2.1-4.6,4.6
						c0,1.7,0.9,3.2,2.3,4c0.2,0.1,0.3,0.2,0.3,0.4s0,0.3-0.1,0.5c-0.4,0.6-0.5,1.3-0.5,2c0,2.3,1.8,4.1,4.1,4.1
						c1.3,0,2.5-0.6,3.2-1.6C52.3,48.6,52.5,48.5,52.7,48.5z"/>
				</g>
				<g>
					<path class="st2" d="M49,42.8c0.3-0.4,0.8-0.4,1.1-0.2l2.2,1.6v-2.8c0-0.4,0.4-0.8,0.8-0.8S54,41,54,41.5v5.2l3.3-2.2
						c0.4-0.2,0.9-0.1,1.1,0.2c0.2,0.4,0.1,0.9-0.2,1.1l-3.9,2.6c-0.1,0.1-0.2,0.1-0.3,0.1v8.1c0,0.4-0.4,0.8-0.8,0.8
						s-0.8-0.4-0.8-0.8V46.3L49.2,44C48.8,43.7,48.8,43.2,49,42.8z"/>
				</g>
				<g>
					<path class="st3" d="M51.5,34.5c0-2.9-2.4-5.3-5.3-5.3c-0.3,0-0.6,0-0.9,0.1c-0.5-2.5-2.7-4.4-5.3-4.4c-2.9,0-5.2,2.2-5.4,5
						c-0.2,0-0.4,0-0.6,0c-3.3,0-6,2.7-6,6c0,2.7,1.8,4.9,4.2,5.7c0,0.1,0,0.2,0,0.3c0,2.6,2.1,4.8,4.8,4.8c1.7,0,3.3-0.9,4.1-2.3
						c0.9,1.1,2.2,1.9,3.8,1.9c2.6,0,4.8-2.1,4.8-4.8c0-0.9-0.2-1.7-0.6-2.4C50.4,38.2,51.5,36.5,51.5,34.5z"/>
					<path class="st2" d="M36.9,47.3c-2.9,0-5.3-2.3-5.4-5.2c-2.5-1-4.2-3.4-4.2-6.2c0-3.7,3-6.7,6.7-6.7c0,0,0,0,0,0
						c0.5-2.9,3-5,6-5c2.7,0,5.1,1.8,5.8,4.3c0.1,0,0.3,0,0.4,0c3.3,0,6,2.7,6,6c0,1.9-0.9,3.7-2.5,4.8c0.3,0.7,0.4,1.4,0.4,2.1
						c0,3-2.4,5.4-5.4,5.4c-1.4,0-2.7-0.5-3.7-1.5C40,46.6,38.5,47.3,36.9,47.3z M33.9,30.6c-2.9,0-5.3,2.4-5.3,5.3
						c0,2.3,1.5,4.4,3.7,5.1c0.3,0.1,0.5,0.4,0.5,0.7l0,0.1c0,0.1,0,0.1,0,0.2c0,2.3,1.8,4.1,4.1,4.1c1.5,0,2.8-0.7,3.5-2
						c0.1-0.2,0.3-0.3,0.5-0.3c0.2,0,0.4,0.1,0.6,0.3c0.8,1,2,1.6,3.2,1.6c2.3,0,4.1-1.8,4.1-4.1c0-0.7-0.2-1.4-0.5-2
						c-0.1-0.2-0.1-0.3-0.1-0.5c0-0.2,0.2-0.3,0.3-0.4c1.4-0.8,2.3-2.4,2.3-4c0-2.6-2.1-4.6-4.6-4.6c-0.3,0-0.5,0-0.8,0.1
						c-0.4,0.1-0.7-0.2-0.8-0.5c-0.4-2.2-2.4-3.8-4.7-3.8c-2.5,0-4.6,1.9-4.8,4.4c0,0.2-0.1,0.3-0.2,0.5c-0.1,0.1-0.3,0.2-0.5,0.2
						C34.3,30.6,34.1,30.6,33.9,30.6z"/>
				</g>
				<g>
					<path class="st2" d="M44.6,38.1c-0.3-0.4-0.8-0.4-1.1-0.2l-2.2,1.6v-2.8c0-0.4-0.4-0.8-0.8-0.8s-0.8,0.4-0.8,0.8v5.2l-3.3-2.2
						c-0.4-0.2-0.9-0.1-1.1,0.2c-0.2,0.4-0.1,0.9,0.2,1.1l3.9,2.6c0.1,0.1,0.2,0.1,0.3,0.1v13.2c0,0.4,0.4,0.8,0.8,0.8
						s0.8-0.4,0.8-0.8V41.5l3.2-2.3C44.8,38.9,44.9,38.4,44.6,38.1z"/>
				</g>
			</g>
			<rect x="8.7" y="56.6" class="st4" width="60.2" height="1.6"/>
		</g>
	</g>
</g>
</svg>
