<!-- Generator: Adobe Illustrator 19.1.0, SVG Export Plug-In  -->
<svg version="1.1"
	 xmlns="http://www.w3.org/2000/svg" xmlns:xlink="http://www.w3.org/1999/xlink" xmlns:a="http://ns.adobe.com/AdobeSVGViewerExtensions/3.0/"
	 x="0px" y="0px" width="69.5px" height="69.5px" viewBox="0 0 69.5 69.5" style="enable-background:new 0 0 69.5 69.5;"
	 xml:space="preserve">
<style type="text/css">
	.st0{fill:#E9A660;}
	.st1{fill:#F7E847;}
	.st2{fill:#F9F0A2;}
</style>
<defs>
</defs>
<circle class="st0" cx="34.8" cy="34.8" r="34.8"/>
<g>
	<g>
		<path class="st1" d="M33.8,16.9c0.2,0,0.5,0,0.7,0c0-0.5,0-1.1,0-1.6c0-1.3,0.4-3.3-0.2-4.5c-0.1-0.1-0.3-0.2-0.4,0
			c-0.5,1.1-0.1,3.1-0.1,4.3C33.8,15.8,33.8,16.4,33.8,16.9z"/>
		<path class="st1" d="M26.6,18.8c0.2-0.1,0.4-0.2,0.6-0.3c-0.2-0.5-0.5-1-0.7-1.6c-0.5-1.2-1-3.2-2-4c-0.1-0.1-0.4,0-0.4,0.2
			c0,1.3,1.1,2.9,1.7,4C26.1,17.6,26.4,18.2,26.6,18.8z"/>
		<path class="st1" d="M28.9,17.8c0.2-0.1,0.4-0.1,0.7-0.2c-0.2-0.5-0.3-1.1-0.5-1.6c-0.4-1.2-0.6-3.3-1.4-4.3
			c-0.1-0.1-0.4-0.1-0.4,0.1c-0.2,1.2,0.7,3,1.1,4.2C28.5,16.6,28.7,17.2,28.9,17.8z"/>
		<path class="st1" d="M24.5,20c0.2-0.1,0.4-0.2,0.6-0.4c-0.3-0.5-0.6-1-0.9-1.5c-0.7-1.1-1.5-3-2.6-3.7c-0.1-0.1-0.4,0-0.3,0.2
			c0.1,1.2,1.5,2.7,2.2,3.7C23.8,18.9,24.1,19.4,24.5,20z"/>
		<path class="st1" d="M31.3,17.2c0.2,0,0.5-0.1,0.7-0.1c-0.1-0.5-0.2-1.1-0.2-1.6c-0.2-1.3-0.1-3.4-0.8-4.4
			c-0.1-0.1-0.3-0.1-0.4,0.1c-0.4,1.2,0.3,3.1,0.5,4.3C31.1,16,31.2,16.6,31.3,17.2z"/>
		<path class="st1" d="M16.4,26.6c0.5,0.2,1,0.5,1.6,0.7c0.1-0.2,0.2-0.4,0.3-0.6c-0.5-0.2-0.9-0.4-1.4-0.7
			c-1.2-0.5-2.8-1.8-4.1-1.8c-0.2,0-0.3,0.2-0.2,0.4C13.3,25.5,15.3,26,16.4,26.6z"/>
		<path class="st1" d="M15.4,29.1c0.6,0.2,1.1,0.3,1.7,0.5c0.1-0.2,0.1-0.5,0.2-0.7c-0.5-0.2-1-0.3-1.5-0.5
			c-1.2-0.4-3.1-1.4-4.4-1.2c-0.2,0-0.2,0.3-0.1,0.4C12.2,28.5,14.2,28.8,15.4,29.1z"/>
		<path class="st1" d="M19.3,22c0.4,0.4,0.9,0.8,1.3,1.2c0.2-0.2,0.3-0.3,0.5-0.5c-0.4-0.4-0.8-0.7-1.2-1.1c-1-0.8-2.2-2.5-3.5-2.9
			c-0.2,0-0.3,0.1-0.3,0.3C16.7,20.1,18.4,21.2,19.3,22z"/>
		<path class="st1" d="M17.7,24.2c0.5,0.3,1,0.6,1.4,0.9c0.1-0.2,0.3-0.4,0.4-0.6c-0.4-0.3-0.9-0.6-1.3-0.9
			c-1.1-0.7-2.6-2.2-3.9-2.4c-0.2,0-0.3,0.2-0.2,0.3C14.8,22.7,16.7,23.5,17.7,24.2z"/>
		<path class="st1" d="M21.3,20c0.4,0.5,0.8,0.9,1.2,1.4c0.2-0.1,0.4-0.3,0.6-0.4c-0.4-0.4-0.7-0.9-1.1-1.3c-0.8-1-1.9-2.8-3.1-3.3
			c-0.2-0.1-0.3,0.1-0.3,0.3C18.9,17.8,20.5,19.1,21.3,20z"/>
		<path class="st1" d="M49.4,24c0.1,0.2,0.3,0.4,0.4,0.6c0.2-0.1,0.4-0.3,0.6-0.4c1-0.7,3-1.6,3.6-2.7c0.1-0.1-0.1-0.4-0.2-0.3
			c-1.2,0.2-2.7,1.6-3.7,2.3C50,23.6,49.7,23.8,49.4,24z"/>
		<path class="st1" d="M52,28.6c0.1,0.2,0.2,0.4,0.2,0.7c0.2-0.1,0.4-0.1,0.5-0.2c1.2-0.4,3.3-0.7,4.2-1.6c0.1-0.1,0-0.4-0.1-0.4
			c-1.2-0.2-3,0.8-4.2,1.2C52.5,28.4,52.2,28.5,52,28.6z"/>
		<path class="st1" d="M50.9,26.2c0.1,0.2,0.2,0.4,0.3,0.6c0.2-0.1,0.4-0.2,0.6-0.3c1.1-0.6,3.2-1.1,4-2.2c0.1-0.1,0-0.4-0.2-0.4
			c-1.3,0-2.9,1.2-4,1.8C51.4,25.9,51.1,26,50.9,26.2z"/>
		<path class="st1" d="M53.8,33.7c-0.3,0-0.6,0-0.9,0c0,0.2,0,0.5,0,0.7c0.3,0,0.5,0,0.8,0c1.3-0.1,3.3,0.2,4.5-0.4
			c0.1-0.1,0.1-0.3,0-0.4C57,33.1,55,33.6,53.8,33.7z"/>
		<path class="st1" d="M37,17.3c0.1-0.6,0.1-1.2,0.2-1.7c0.2-1.3,0.8-3.3,0.4-4.5c0-0.2-0.3-0.2-0.4-0.1c-0.7,1.1-0.6,3.1-0.7,4.3
			c-0.1,0.6-0.2,1.3-0.2,1.9C36.5,17.2,36.7,17.3,37,17.3z"/>
		<path class="st1" d="M53.4,31c-0.2,0-0.5,0.1-0.7,0.1c0,0.2,0.1,0.5,0.1,0.7c0.2,0,0.4-0.1,0.6-0.1c1.3-0.2,3.3-0.2,4.4-1
			c0.1-0.1,0.1-0.3-0.1-0.4C56.5,30,54.6,30.7,53.4,31z"/>
		<path class="st1" d="M10.5,30.9c1,0.7,3.1,0.7,4.3,0.9c0.6,0.1,1.1,0.2,1.7,0.3c0-0.2,0.1-0.5,0.1-0.7c-0.5-0.1-1-0.2-1.5-0.2
			c-1.3-0.2-3.2-0.9-4.5-0.6C10.4,30.6,10.4,30.8,10.5,30.9z"/>
		<path class="st1" d="M41.7,18.6c0.2-0.5,0.4-1,0.6-1.5c0.5-1.2,1.7-2.9,1.7-4.2c0-0.2-0.2-0.3-0.4-0.2c-1,0.8-1.4,2.8-1.9,3.9
			c-0.2,0.6-0.5,1.1-0.7,1.7C41.3,18.5,41.5,18.5,41.7,18.6z"/>
		<path class="st1" d="M39.4,17.9c0.2-0.6,0.3-1.1,0.5-1.7c0.3-1.2,1.3-3.1,1.1-4.4c0-0.2-0.3-0.2-0.4-0.1c-0.8,0.9-1,3-1.3,4.1
			c-0.2,0.6-0.3,1.2-0.5,1.9C38.9,17.7,39.1,17.8,39.4,17.9z"/>
		<path class="st1" d="M44,19.6c0.2-0.4,0.5-0.8,0.7-1.1c0.7-1.1,2.1-2.6,2.2-3.9c0-0.2-0.2-0.3-0.3-0.2c-1.1,0.7-1.8,2.6-2.4,3.6
			c-0.3,0.5-0.5,0.9-0.8,1.4C43.6,19.4,43.8,19.5,44,19.6z"/>
		<path class="st1" d="M45.7,20.4c0.2,0.1,0.4,0.3,0.6,0.4c0.2-0.3,0.4-0.5,0.6-0.8c0.8-1,2.4-2.3,2.7-3.6c0-0.2-0.2-0.3-0.3-0.3
			c-1.1,0.5-2.1,2.3-2.9,3.3C46.2,19.8,45.9,20.1,45.7,20.4z"/>
		<path class="st1" d="M48.5,21.3c-0.3,0.2-0.5,0.5-0.8,0.7c0.2,0.2,0.3,0.3,0.5,0.5c0.2-0.2,0.4-0.4,0.6-0.6c0.9-0.9,2.7-2,3.2-3.2
			c0.1-0.2-0.1-0.3-0.3-0.3C50.6,18.9,49.4,20.5,48.5,21.3z"/>
		<path class="st1" d="M33.3,53.6c-0.2,0-0.5,0-0.7,0c0,0.2,0,0.4,0,0.6c-0.1,1.3-0.6,3.3-0.1,4.5c0.1,0.2,0.3,0.2,0.4,0
			c0.6-1.1,0.4-3.1,0.4-4.3C33.2,54.1,33.3,53.9,33.3,53.6z"/>
		<path class="st1" d="M46,50.4c-0.2-0.3-0.4-0.6-0.7-0.9c-0.2,0.1-0.4,0.3-0.6,0.4c0.2,0.2,0.4,0.5,0.6,0.7c0.8,1,1.7,2.9,2.8,3.5
			c0.1,0.1,0.4-0.1,0.3-0.2C48.3,52.7,46.8,51.4,46,50.4z"/>
		<path class="st1" d="M48.1,48.6c-0.3-0.3-0.5-0.5-0.8-0.8c-0.2,0.2-0.3,0.3-0.5,0.5c0.2,0.2,0.4,0.5,0.7,0.7
			c0.9,0.9,2.1,2.7,3.3,3.1c0.2,0.1,0.3-0.1,0.3-0.3C50.6,50.6,49,49.5,48.1,48.6z"/>
		<path class="st1" d="M43.2,50.9c-0.2,0.1-0.4,0.2-0.6,0.3c0.1,0.3,0.3,0.5,0.4,0.8c0.6,1.1,1.2,3.1,2.3,3.9c0.1,0.1,0.4,0,0.3-0.2
			c-0.1-1.3-1.3-2.8-1.9-3.9C43.6,51.6,43.4,51.3,43.2,50.9z"/>
		<path class="st1" d="M38.5,52.9C38.2,53,38,53,37.8,53.1c0.1,0.3,0.1,0.5,0.2,0.8c0.3,1.2,0.3,3.3,1.1,4.4
			c0.1,0.1,0.3,0.1,0.4-0.1c0.3-1.2-0.5-3.1-0.8-4.3C38.6,53.6,38.5,53.2,38.5,52.9z"/>
		<path class="st1" d="M40.9,52.1c-0.2,0.1-0.4,0.2-0.7,0.3c0.1,0.3,0.2,0.5,0.3,0.8c0.5,1.2,0.8,3.3,1.7,4.2c0.1,0.1,0.4,0,0.4-0.1
			c0.1-1.3-0.9-3-1.4-4.1C41.2,52.7,41,52.4,40.9,52.1z"/>
		<path class="st1" d="M53.3,39.1c-0.4-0.1-0.7-0.2-1.1-0.3c-0.1,0.2-0.1,0.5-0.2,0.7c0.3,0.1,0.6,0.1,1,0.2
			c1.2,0.3,3.2,1.2,4.4,0.9c0.2,0,0.2-0.3,0.1-0.4C56.5,39.5,54.5,39.4,53.3,39.1z"/>
		<path class="st1" d="M35.9,53.4c-0.2,0-0.5,0.1-0.7,0.1c0,0.2,0,0.5,0.1,0.7c0.1,1.3-0.1,3.4,0.5,4.5c0.1,0.1,0.3,0.1,0.4,0
			c0.5-1.2-0.1-3.1-0.2-4.3C35.9,54,35.9,53.7,35.9,53.4z"/>
		<path class="st1" d="M53.7,36.4c-0.4,0-0.7-0.1-1.1-0.1c0,0.2-0.1,0.5-0.1,0.7c0.3,0,0.6,0.1,0.9,0.1c1.3,0.1,3.3,0.7,4.5,0.3
			c0.2-0.1,0.2-0.3,0-0.4C57,36.3,54.9,36.5,53.7,36.4z"/>
		<path class="st1" d="M51.4,44.2c-0.3-0.2-0.7-0.4-1-0.6c-0.1,0.2-0.2,0.4-0.3,0.6c0.3,0.2,0.6,0.3,0.9,0.5c1.1,0.6,2.7,2,4,2.1
			c0.2,0,0.3-0.2,0.2-0.3C54.4,45.5,52.4,44.8,51.4,44.2z"/>
		<path class="st1" d="M52.5,41.7c-0.4-0.1-0.7-0.3-1.1-0.4c-0.1,0.2-0.2,0.4-0.3,0.7c0.3,0.1,0.6,0.2,0.9,0.4
			c1.2,0.5,3,1.6,4.3,1.5c0.2,0,0.3-0.2,0.1-0.4C55.7,42.5,53.7,42.2,52.5,41.7z"/>
		<path class="st1" d="M49.9,46.5c-0.3-0.2-0.6-0.5-0.9-0.7c-0.1,0.2-0.3,0.4-0.4,0.6c0.3,0.2,0.5,0.4,0.8,0.6
			c1,0.8,2.4,2.3,3.7,2.6c0.2,0,0.3-0.2,0.2-0.3C52.7,48.2,50.9,47.3,49.9,46.5z"/>
		<path class="st1" d="M18.5,44.3c-0.1-0.1-0.1-0.2-0.2-0.3c-0.1-0.1-0.1-0.2-0.2-0.3c-0.3,0.2-0.6,0.4-1,0.6
			c-1.1,0.7-3.1,1.4-3.8,2.4c-0.1,0.1,0,0.4,0.2,0.3c1.3-0.1,2.8-1.4,3.8-2.1C17.8,44.7,18.1,44.5,18.5,44.3z"/>
		<path class="st1" d="M17.4,42c-0.1-0.2-0.2-0.4-0.2-0.7c-0.4,0.2-0.7,0.3-1.1,0.5c-1.2,0.5-3.2,0.9-4.1,1.9
			c-0.1,0.1,0,0.4,0.1,0.4c1.3,0.1,2.9-1,4.1-1.5C16.6,42.3,17,42.2,17.4,42z"/>
		<path class="st1" d="M29.9,53.3c0,0.1-0.1,0.3-0.1,0.4c-0.2,1.3-1,3.2-0.7,4.5c0,0.2,0.3,0.2,0.4,0.1c0.8-1,0.8-3,1-4.2
			c0-0.2,0.1-0.4,0.1-0.6C30.4,53.4,30.2,53.4,29.9,53.3z"/>
		<path class="st1" d="M16.6,39.6c-0.1-0.2-0.1-0.5-0.1-0.7c-0.4,0.1-0.8,0.2-1.3,0.3c-1.2,0.3-3.3,0.5-4.3,1.3
			c-0.1,0.1-0.1,0.4,0.1,0.4c1.2,0.2,3.1-0.6,4.2-0.9C15.7,39.8,16.2,39.7,16.6,39.6z"/>
		<path class="st1" d="M14.7,37.2c0.5-0.1,1-0.1,1.6-0.2c0-0.2,0-0.5,0-0.7c-0.5,0.1-0.9,0.1-1.4,0.2c-1.3,0.1-3.4,0-4.5,0.7
			c-0.1,0.1-0.1,0.3,0,0.4C11.6,38,13.5,37.4,14.7,37.2z"/>
		<path class="st1" d="M19.9,46.5c-0.1-0.2-0.3-0.4-0.4-0.6c-0.3,0.2-0.5,0.4-0.8,0.6c-1,0.8-2.9,1.8-3.4,2.9
			c-0.1,0.1,0.1,0.3,0.2,0.3c1.2-0.3,2.5-1.8,3.5-2.6C19.3,46.9,19.6,46.7,19.9,46.5z"/>
		<path class="st1" d="M14.6,34.5c0.6,0,1.1,0,1.7,0c0-0.2,0-0.5,0-0.7c-0.5,0-1,0-1.5,0c-1.3,0-3.3-0.5-4.5,0
			c-0.2,0.1-0.2,0.3,0,0.4C11.3,34.8,13.3,34.5,14.6,34.5z"/>
		<path class="st1" d="M24.9,51.5c-0.1,0.1-0.1,0.2-0.2,0.3c-0.6,1.1-1.9,2.8-1.9,4.1c0,0.2,0.2,0.3,0.3,0.2c1-0.8,1.6-2.7,2.1-3.8
			c0.1-0.1,0.1-0.3,0.2-0.4C25.4,51.8,25.1,51.6,24.9,51.5z"/>
		<path class="st1" d="M21.5,48.5c-0.2-0.2-0.3-0.4-0.5-0.5c-0.2,0.2-0.4,0.4-0.6,0.6c-0.9,0.9-2.6,2.2-3,3.4
			c-0.1,0.2,0.1,0.3,0.3,0.3c1.2-0.4,2.3-2.2,3.1-3C21.1,49,21.3,48.7,21.5,48.5z"/>
		<path class="st1" d="M27.3,52.7c0,0.1-0.1,0.2-0.1,0.3c-0.4,1.2-1.5,3-1.4,4.3c0,0.2,0.3,0.3,0.4,0.1c0.9-0.9,1.2-2.9,1.6-4
			c0.1-0.1,0.1-0.3,0.2-0.4C27.8,52.8,27.6,52.8,27.3,52.7z"/>
		<path class="st1" d="M23.4,50.4c-0.2-0.2-0.4-0.3-0.5-0.5c-0.1,0.2-0.2,0.3-0.3,0.5c-0.7,1-2.3,2.5-2.5,3.8c0,0.2,0.2,0.3,0.3,0.2
			c1.1-0.6,1.9-2.4,2.7-3.4C23.1,50.7,23.2,50.5,23.4,50.4z"/>
	</g>
	<path class="st2" d="M34.7,18.5C30,18,24.4,21,21.5,24.2c-4.2,4.9-5.1,13.1-1.9,18.8c1.7,3.1,4.1,6.1,7.4,7.6c2.8,1.3,7,1.4,10,0.8
		c9.2-2,14.6-9.9,14.1-19.2c-0.2-3.8-2.8-8-5.8-10.2C43.5,20.8,39,18.9,34.7,18.5z"/>
</g>
</svg>
