<!-- Generator: Adobe Illustrator 19.1.0, SVG Export Plug-In  -->
<svg version="1.1"
	 xmlns="http://www.w3.org/2000/svg" xmlns:xlink="http://www.w3.org/1999/xlink" xmlns:a="http://ns.adobe.com/AdobeSVGViewerExtensions/3.0/"
	 x="0px" y="0px" width="69.5px" height="69.5px" viewBox="0 0 69.5 69.5" style="enable-background:new 0 0 69.5 69.5;"
	 xml:space="preserve">
<style type="text/css">
	.st0{fill:#EFE9A2;}
	.st1{fill:#808285;}
</style>
<defs>
</defs>
<g>
	<circle class="st0" cx="34.8" cy="34.8" r="34.8"/>
	<g>
		<path class="st1" d="M44.8,41.3c0,2.7-0.7,4.8-2.2,6.4c-1.5,1.6-3.6,2.5-6.4,2.8v5.2h-2.9v-5.1c-3.2-0.1-6-0.8-8.5-2.1v-6.2
			c1.3,0.8,2.8,1.4,4.2,1.9c1.5,0.5,2.9,0.8,4.3,0.9v-8.5l-0.9-0.4c-2.8-1.4-4.8-2.8-6-4.2c-1.1-1.4-1.7-3.3-1.7-5.5
			c0-2.5,0.7-4.5,2.2-6.1c1.5-1.5,3.6-2.4,6.3-2.7v-4h2.9v4c2.6,0.2,5.2,0.9,7.7,2.2l-2,5.3c-2.1-1-4-1.6-5.7-1.8v8
			c0.5,0.2,0.8,0.3,0.8,0.4c2.1,0.9,3.7,1.8,4.8,2.7c1.1,0.9,1.8,1.8,2.3,3C44.5,38.5,44.8,39.8,44.8,41.3z M30.6,26.6
			c0,0.9,0.2,1.5,0.6,2.1c0.4,0.5,1.1,1,2,1.4v-6.6C31.5,23.7,30.6,24.8,30.6,26.6z M38.9,41.5c0-0.8-0.2-1.4-0.5-1.9
			c-0.3-0.5-1.1-1-2.2-1.6v7C38,44.7,38.9,43.5,38.9,41.5z"/>
	</g>
</g>
</svg>
