<!-- Generator: Adobe Illustrator 19.1.0, SVG Export Plug-In  -->
<svg version="1.1"
	 xmlns="http://www.w3.org/2000/svg" xmlns:xlink="http://www.w3.org/1999/xlink" xmlns:a="http://ns.adobe.com/AdobeSVGViewerExtensions/3.0/"
	 x="0px" y="0px" width="74.3px" height="71.1px" viewBox="0 0 74.3 71.1" style="enable-background:new 0 0 74.3 71.1;"
	 xml:space="preserve">
<style type="text/css">
	.st0{clip-path:url(#SVGID_2_);fill:#EFE9A2;}
	.st1{clip-path:url(#SVGID_2_);}
	.st2{fill:#808285;}
	.st3{fill:#A7A9AC;}
	.st4{fill:#BCBEC0;}
	.st5{fill:#EFE9A2;}
	.st6{clip-path:url(#SVGID_4_);fill:#EFE9A2;}
	.st7{clip-path:url(#SVGID_4_);}
</style>
<defs>
</defs>
<g>
	<g>
		<defs>
			<circle id="SVGID_1_" cx="39.6" cy="36.4" r="34.8"/>
		</defs>
		<clipPath id="SVGID_2_">
			<use xlink:href="#SVGID_1_"  style="overflow:visible;"/>
		</clipPath>
		<circle class="st0" cx="39.6" cy="36.4" r="34.8"/>
		<g class="st1">
			<g>
				<g>
					<path class="st2" d="M60.7,3c0.1,0,0.2,0,0.3,0c0-0.3,0-0.5,0-0.8c0-0.6,0.2-1.6-0.1-2.2c0-0.1-0.2-0.1-0.2,0
						c-0.3,0.5-0.1,1.5-0.1,2.1C60.7,2.4,60.7,2.7,60.7,3z"/>
				</g>
				<g>
					<path class="st2" d="M57.3,3.9c0.1,0,0.2-0.1,0.3-0.1c-0.1-0.3-0.2-0.5-0.4-0.8c-0.3-0.6-0.5-1.5-1-2c-0.1-0.1-0.2,0-0.2,0.1
						c0,0.6,0.6,1.4,0.8,1.9C57,3.3,57.2,3.6,57.3,3.9z"/>
				</g>
				<g>
					<path class="st2" d="M58.4,3.4c0.1,0,0.2-0.1,0.3-0.1c-0.1-0.3-0.2-0.5-0.2-0.8C58.3,2,58.2,1,57.8,0.5c-0.1-0.1-0.2,0-0.2,0.1
						c-0.1,0.6,0.4,1.5,0.5,2C58.2,2.9,58.3,3.2,58.4,3.4z"/>
				</g>
				<g>
					<path class="st2" d="M56.2,4.5c0.1-0.1,0.2-0.1,0.3-0.2c-0.2-0.2-0.3-0.5-0.5-0.7c-0.3-0.5-0.7-1.5-1.2-1.8
						c-0.1,0-0.2,0-0.2,0.1c0.1,0.6,0.7,1.3,1.1,1.8C55.9,4,56.1,4.2,56.2,4.5z"/>
				</g>
				<g>
					<path class="st2" d="M59.6,3.1c0.1,0,0.2,0,0.3-0.1c0-0.3-0.1-0.5-0.1-0.8c-0.1-0.6-0.1-1.6-0.4-2.1c0-0.1-0.2-0.1-0.2,0
						c-0.2,0.6,0.1,1.5,0.2,2.1C59.5,2.6,59.5,2.8,59.6,3.1z"/>
				</g>
				<g>
					<path class="st2" d="M52.3,7.7c0.3,0.1,0.5,0.2,0.8,0.4c0-0.1,0.1-0.2,0.1-0.3c-0.2-0.1-0.5-0.2-0.7-0.3
						c-0.6-0.3-1.4-0.9-2-0.9c-0.1,0-0.1,0.1-0.1,0.2C50.8,7.2,51.8,7.4,52.3,7.7z"/>
				</g>
				<g>
					<path class="st2" d="M51.9,8.9c0.3,0.1,0.5,0.2,0.8,0.2c0-0.1,0.1-0.2,0.1-0.3c-0.2-0.1-0.5-0.1-0.7-0.2
						c-0.6-0.2-1.5-0.7-2.1-0.6c-0.1,0-0.1,0.1-0.1,0.2C50.3,8.6,51.3,8.7,51.9,8.9z"/>
				</g>
				<g>
					<path class="st2" d="M53.8,5.4C54,5.6,54.2,5.8,54.4,6c0.1-0.1,0.2-0.2,0.2-0.2c-0.2-0.2-0.4-0.3-0.6-0.5
						C53.6,4.8,53,4,52.4,3.9c-0.1,0-0.2,0.1-0.1,0.1C52.5,4.6,53.3,5.1,53.8,5.4z"/>
				</g>
				<g>
					<path class="st2" d="M53,6.5c0.2,0.2,0.5,0.3,0.7,0.5c0.1-0.1,0.1-0.2,0.2-0.3c-0.2-0.1-0.4-0.3-0.6-0.4
						c-0.5-0.3-1.2-1-1.9-1.1c-0.1,0-0.1,0.1-0.1,0.2C51.6,5.8,52.5,6.2,53,6.5z"/>
				</g>
				<g>
					<path class="st2" d="M54.7,4.5c0.2,0.2,0.4,0.4,0.6,0.7C55.4,5.1,55.4,5,55.5,5c-0.2-0.2-0.4-0.4-0.5-0.6
						c-0.4-0.5-0.9-1.3-1.5-1.6c-0.1,0-0.2,0-0.1,0.1C53.5,3.4,54.3,4.1,54.7,4.5z"/>
				</g>
				<g>
					<path class="st2" d="M68.3,6.4c0.1,0.1,0.1,0.2,0.2,0.3c0.1-0.1,0.2-0.1,0.3-0.2c0.5-0.4,1.4-0.8,1.8-1.3c0-0.1,0-0.2-0.1-0.2
						c-0.6,0.1-1.3,0.8-1.8,1.1C68.6,6.3,68.4,6.3,68.3,6.4z"/>
				</g>
				<g>
					<path class="st2" d="M69.6,8.6c0,0.1,0.1,0.2,0.1,0.3c0.1,0,0.2-0.1,0.3-0.1c0.6-0.2,1.6-0.3,2-0.8c0.1-0.1,0-0.2-0.1-0.2
						c-0.6-0.1-1.5,0.4-2,0.6C69.8,8.6,69.7,8.6,69.6,8.6z"/>
				</g>
				<g>
					<path class="st2" d="M69,7.5c0.1,0.1,0.1,0.2,0.2,0.3c0.1,0,0.2-0.1,0.3-0.1c0.6-0.3,1.5-0.6,1.9-1c0.1-0.1,0-0.2-0.1-0.2
						c-0.6,0-1.4,0.6-1.9,0.9C69.3,7.4,69.1,7.4,69,7.5z"/>
				</g>
				<g>
					<path class="st2" d="M70.4,11.1c-0.2,0-0.3,0-0.5,0c0,0.1,0,0.2,0,0.3c0.1,0,0.3,0,0.4,0c0.6,0,1.6,0.1,2.2-0.2
						c0.1,0,0.1-0.2,0-0.2C72,10.9,71,11.1,70.4,11.1z"/>
				</g>
				<g>
					<path class="st2" d="M62.3,3.2c0-0.3,0.1-0.6,0.1-0.8c0.1-0.6,0.4-1.6,0.2-2.2c0-0.1-0.1-0.1-0.2,0c-0.3,0.5-0.3,1.5-0.3,2.1
						c0,0.3-0.1,0.6-0.1,0.9C62.1,3.2,62.2,3.2,62.3,3.2z"/>
				</g>
				<g>
					<path class="st2" d="M70.2,9.8c-0.1,0-0.2,0-0.4,0.1c0,0.1,0,0.2,0,0.3c0.1,0,0.2,0,0.3-0.1c0.6-0.1,1.6-0.1,2.1-0.5
						c0.1,0,0-0.2,0-0.2C71.7,9.3,70.8,9.7,70.2,9.8z"/>
				</g>
				<g>
					<path class="st2" d="M49.5,9.8c0.5,0.4,1.5,0.3,2.1,0.4c0.3,0,0.5,0.1,0.8,0.1c0-0.1,0-0.2,0.1-0.3c-0.2,0-0.5-0.1-0.7-0.1
						c-0.6-0.1-1.6-0.5-2.2-0.3C49.5,9.6,49.4,9.7,49.5,9.8z"/>
				</g>
				<g>
					<path class="st2" d="M64.6,3.8c0.1-0.2,0.2-0.5,0.3-0.7c0.2-0.6,0.8-1.4,0.8-2c0-0.1-0.1-0.1-0.2-0.1c-0.5,0.4-0.7,1.4-0.9,1.9
						c-0.1,0.3-0.2,0.5-0.3,0.8C64.4,3.7,64.5,3.8,64.6,3.8z"/>
				</g>
				<g>
					<path class="st2" d="M63.4,3.5c0.1-0.3,0.1-0.5,0.2-0.8c0.2-0.6,0.6-1.5,0.5-2.1c0-0.1-0.1-0.1-0.2-0.1c-0.4,0.5-0.5,1.4-0.6,2
						c-0.1,0.3-0.2,0.6-0.2,0.9C63.2,3.4,63.3,3.4,63.4,3.5z"/>
				</g>
				<g>
					<path class="st2" d="M65.7,4.3c0.1-0.2,0.2-0.4,0.3-0.5c0.3-0.5,1-1.3,1.1-1.9c0-0.1-0.1-0.1-0.2-0.1c-0.5,0.3-0.9,1.2-1.2,1.8
						c-0.1,0.2-0.3,0.4-0.4,0.7C65.5,4.2,65.6,4.2,65.7,4.3z"/>
				</g>
				<g>
					<path class="st2" d="M66.5,4.7c0.1,0.1,0.2,0.1,0.3,0.2c0.1-0.1,0.2-0.2,0.3-0.4c0.4-0.5,1.2-1.1,1.3-1.7
						c0-0.1-0.1-0.2-0.1-0.1c-0.6,0.3-1,1.1-1.4,1.6C66.8,4.4,66.6,4.6,66.5,4.7z"/>
				</g>
				<g>
					<path class="st2" d="M67.9,5.1c-0.1,0.1-0.2,0.2-0.4,0.3c0.1,0.1,0.2,0.2,0.2,0.2c0.1-0.1,0.2-0.2,0.3-0.3
						c0.5-0.4,1.3-1,1.6-1.5c0-0.1-0.1-0.2-0.1-0.1C68.9,4,68.3,4.7,67.9,5.1z"/>
				</g>
				<g>
					<path class="st2" d="M60.5,20.8c-0.1,0-0.2,0-0.3,0c0,0.1,0,0.2,0,0.3c0,0.6-0.3,1.6-0.1,2.2c0,0.1,0.2,0.1,0.2,0
						c0.3-0.5,0.2-1.5,0.2-2.1C60.5,21,60.5,20.9,60.5,20.8z"/>
				</g>
				<g>
					<path class="st2" d="M66.7,19.2c-0.1-0.1-0.2-0.3-0.3-0.4c-0.1,0.1-0.2,0.1-0.3,0.2c0.1,0.1,0.2,0.2,0.3,0.4
						c0.4,0.5,0.8,1.4,1.4,1.7c0.1,0,0.2,0,0.2-0.1C67.8,20.3,67,19.7,66.7,19.2z"/>
				</g>
				<g>
					<path class="st2" d="M67.7,18.3c-0.1-0.1-0.3-0.3-0.4-0.4c-0.1,0.1-0.2,0.2-0.2,0.2c0.1,0.1,0.2,0.2,0.3,0.3
						c0.4,0.4,1,1.3,1.6,1.5c0.1,0,0.2-0.1,0.1-0.1C68.9,19.3,68.1,18.7,67.7,18.3z"/>
				</g>
				<g>
					<path class="st2" d="M65.3,19.5c-0.1,0.1-0.2,0.1-0.3,0.2c0.1,0.1,0.1,0.3,0.2,0.4c0.3,0.5,0.6,1.5,1.1,1.9
						c0.1,0,0.2,0,0.2-0.1c0-0.6-0.7-1.4-0.9-1.9C65.5,19.8,65.4,19.6,65.3,19.5z"/>
				</g>
				<g>
					<path class="st2" d="M63,20.4c-0.1,0-0.2,0.1-0.3,0.1c0,0.1,0.1,0.2,0.1,0.4c0.1,0.6,0.2,1.6,0.5,2.1c0,0.1,0.2,0,0.2,0
						c0.1-0.6-0.3-1.5-0.4-2.1C63.1,20.7,63,20.6,63,20.4z"/>
				</g>
				<g>
					<path class="st2" d="M64.2,20c-0.1,0-0.2,0.1-0.3,0.1c0,0.1,0.1,0.3,0.1,0.4c0.2,0.6,0.4,1.6,0.8,2c0.1,0.1,0.2,0,0.2-0.1
						c0.1-0.6-0.5-1.4-0.7-2C64.3,20.3,64.3,20.2,64.2,20z"/>
				</g>
				<g>
					<path class="st2" d="M70.2,13.7c-0.2,0-0.4-0.1-0.5-0.1c0,0.1-0.1,0.2-0.1,0.3c0.2,0,0.3,0.1,0.5,0.1c0.6,0.1,1.5,0.6,2.1,0.4
						c0.1,0,0.1-0.1,0-0.2C71.8,13.9,70.8,13.9,70.2,13.7z"/>
				</g>
				<g>
					<path class="st2" d="M61.8,20.7c-0.1,0-0.2,0-0.3,0c0,0.1,0,0.2,0,0.3c0.1,0.6-0.1,1.6,0.2,2.2c0,0.1,0.2,0.1,0.2,0
						c0.2-0.6,0-1.5-0.1-2.1C61.8,21,61.8,20.8,61.8,20.7z"/>
				</g>
				<g>
					<path class="st2" d="M70.4,12.4c-0.2,0-0.3,0-0.5,0c0,0.1,0,0.2,0,0.3c0.1,0,0.3,0,0.4,0c0.6,0.1,1.6,0.3,2.2,0.1
						c0.1,0,0.1-0.1,0-0.2C72,12.4,71,12.5,70.4,12.4z"/>
				</g>
				<g>
					<path class="st2" d="M69.3,16.2c-0.2-0.1-0.3-0.2-0.5-0.3c-0.1,0.1-0.1,0.2-0.2,0.3c0.1,0.1,0.3,0.2,0.4,0.2
						c0.5,0.3,1.3,1,1.9,1c0.1,0,0.1-0.1,0.1-0.2C70.7,16.8,69.8,16.5,69.3,16.2z"/>
				</g>
				<g>
					<path class="st2" d="M69.8,15c-0.2-0.1-0.4-0.1-0.5-0.2c0,0.1-0.1,0.2-0.1,0.3c0.2,0.1,0.3,0.1,0.5,0.2
						c0.6,0.2,1.4,0.8,2.1,0.7c0.1,0,0.1-0.1,0.1-0.2C71.3,15.4,70.4,15.2,69.8,15z"/>
				</g>
				<g>
					<path class="st2" d="M68.5,17.3c-0.1-0.1-0.3-0.2-0.4-0.3c-0.1,0.1-0.1,0.2-0.2,0.3c0.1,0.1,0.3,0.2,0.4,0.3
						c0.5,0.4,1.2,1.1,1.8,1.3c0.1,0,0.2-0.1,0.1-0.2C69.9,18.1,69,17.7,68.5,17.3z"/>
				</g>
				<g>
					<path class="st2" d="M53.4,16.2c0-0.1-0.1-0.1-0.1-0.2c0,0-0.1-0.1-0.1-0.1c-0.2,0.1-0.3,0.2-0.5,0.3c-0.5,0.3-1.5,0.7-1.8,1.2
						c0,0.1,0,0.2,0.1,0.2c0.6,0,1.3-0.7,1.8-1C53,16.5,53.2,16.4,53.4,16.2z"/>
				</g>
				<g>
					<path class="st2" d="M52.8,15.1c0-0.1-0.1-0.2-0.1-0.3c-0.2,0.1-0.4,0.1-0.5,0.2c-0.6,0.2-1.6,0.4-2,0.9
						c-0.1,0.1,0,0.2,0.1,0.2c0.6,0,1.4-0.5,2-0.7C52.4,15.3,52.6,15.2,52.8,15.1z"/>
				</g>
				<g>
					<path class="st2" d="M58.9,20.6c0,0.1,0,0.1,0,0.2c-0.1,0.6-0.5,1.5-0.4,2.2c0,0.1,0.1,0.1,0.2,0c0.4-0.5,0.4-1.5,0.5-2
						c0-0.1,0-0.2,0.1-0.3C59.1,20.7,59,20.6,58.9,20.6z"/>
				</g>
				<g>
					<path class="st2" d="M52.5,14c0-0.1,0-0.2-0.1-0.3c-0.2,0.1-0.4,0.1-0.6,0.2c-0.6,0.2-1.6,0.2-2.1,0.6c-0.1,0.1,0,0.2,0,0.2
						c0.6,0.1,1.5-0.3,2.1-0.5C52,14.1,52.2,14,52.5,14z"/>
				</g>
				<g>
					<path class="st2" d="M51.5,12.8c0.3,0,0.5-0.1,0.8-0.1c0-0.1,0-0.2,0-0.3c-0.2,0-0.5,0.1-0.7,0.1c-0.6,0.1-1.6,0-2.2,0.3
						c-0.1,0-0.1,0.2,0,0.2C50,13.2,50.9,12.9,51.5,12.8z"/>
				</g>
				<g>
					<path class="st2" d="M54,17.3c-0.1-0.1-0.1-0.2-0.2-0.3c-0.1,0.1-0.3,0.2-0.4,0.3c-0.5,0.4-1.4,0.9-1.7,1.4
						c0,0.1,0,0.2,0.1,0.2c0.6-0.1,1.2-0.9,1.7-1.3C53.7,17.5,53.9,17.4,54,17.3z"/>
				</g>
				<g>
					<path class="st2" d="M51.5,11.5c0.3,0,0.5,0,0.8,0c0-0.1,0-0.2,0-0.3c-0.2,0-0.5,0-0.7,0c-0.6,0-1.6-0.2-2.2,0
						c-0.1,0-0.1,0.2,0,0.2C49.9,11.7,50.9,11.5,51.5,11.5z"/>
				</g>
				<g>
					<path class="st2" d="M56.5,19.7c0,0,0,0.1-0.1,0.1c-0.3,0.5-0.9,1.3-0.9,2c0,0.1,0.1,0.1,0.2,0.1c0.5-0.4,0.8-1.3,1-1.8
						c0-0.1,0.1-0.1,0.1-0.2C56.7,19.9,56.6,19.8,56.5,19.7z"/>
				</g>
				<g>
					<path class="st2" d="M54.8,18.3c-0.1-0.1-0.2-0.2-0.2-0.3c-0.1,0.1-0.2,0.2-0.3,0.3c-0.4,0.4-1.2,1-1.4,1.6
						c0,0.1,0.1,0.2,0.1,0.1c0.6-0.2,1.1-1,1.5-1.5C54.6,18.5,54.7,18.4,54.8,18.3z"/>
				</g>
				<g>
					<path class="st2" d="M57.6,20.3c0,0,0,0.1,0,0.1c-0.2,0.6-0.7,1.5-0.7,2.1c0,0.1,0.1,0.1,0.2,0.1c0.4-0.4,0.6-1.4,0.8-2
						c0-0.1,0-0.1,0.1-0.2C57.8,20.4,57.7,20.3,57.6,20.3z"/>
				</g>
				<g>
					<path class="st2" d="M55.7,19.2c-0.1-0.1-0.2-0.1-0.3-0.2c-0.1,0.1-0.1,0.1-0.2,0.2c-0.4,0.5-1.1,1.2-1.2,1.8
						c0,0.1,0.1,0.2,0.2,0.1c0.5-0.3,0.9-1.2,1.3-1.7C55.6,19.4,55.7,19.3,55.7,19.2z"/>
				</g>
			</g>
			<g>
				<path class="st2" d="M60.5,19.6c-1.1,0-2.1-0.2-2.9-0.6c-1.3-0.6-2.5-1.8-3.4-3.5c-1.5-2.6-1.1-6.5,0.9-8.7
					c1.3-1.4,3.9-2.9,6.1-2.7c1.9,0.2,4,1,4.8,1.6c1.5,1.1,2.6,3.1,2.7,4.8c0.3,4.4-2.4,8-6.5,8.9C61.7,19.5,61.1,19.6,60.5,19.6z
					 M60.7,5.1c-1.8,0-3.9,1.2-4.9,2.4c-1.7,2-2.1,5.3-0.8,7.6c0.9,1.5,1.9,2.6,3,3.1c0.6,0.3,1.5,0.5,2.5,0.5
					c0.5,0,1.1-0.1,1.5-0.2c3.6-0.8,5.9-3.9,5.7-7.8c-0.1-1.4-1.1-3.1-2.3-4.1c-0.7-0.5-2.5-1.3-4.3-1.4C61,5.1,60.9,5.1,60.7,5.1z"
					/>
			</g>
		</g>
		<g class="st1">
			<g>
				<polygon class="st3" points="53.4,31 42.9,29.5 39,34.9 50.3,36.8 				"/>
			</g>
			<g>
				<path class="st4" d="M43.7,29.7c0.1,0,1.5,0.7,3.2,2.9s3.4,4.1,3.4,4.1l2.9-5.7L43.7,29.7z"/>
			</g>
			<g>
				<polygon class="st5" points="41.3,27 58.9,29 52.4,39.9 33.4,36.1 				"/>
				<path class="st2" d="M52.4,40.4C52.4,40.4,52.3,40.4,52.4,40.4l-19.1-3.8c-0.2,0-0.3-0.2-0.4-0.3c-0.1-0.2,0-0.3,0.1-0.5
					l7.8-9.2c0.1-0.1,0.3-0.2,0.4-0.2l17.6,2.1c0.2,0,0.3,0.1,0.4,0.3c0.1,0.1,0.1,0.3,0,0.5l-6.5,10.9
					C52.7,40.3,52.6,40.4,52.4,40.4z M34.3,35.8l17.8,3.6l5.9-9.9l-16.6-1.9L34.3,35.8z"/>
			</g>
			<g>
				<polygon class="st5" points="58.9,29 52.4,39.9 33.4,36.1 33.4,52.4 52.4,56.2 65.4,53.5 65.4,38.3 				"/>
				<path class="st2" d="M52.4,56.7C52.4,56.7,52.3,56.6,52.4,56.7l-19.1-3.8c-0.2,0-0.4-0.2-0.4-0.5V36.1c0-0.1,0.1-0.3,0.2-0.4
					c0.1-0.1,0.3-0.1,0.4-0.1l18.6,3.7l6.3-10.6c0.1-0.1,0.2-0.2,0.4-0.2c0.2,0,0.3,0.1,0.4,0.2l6.5,9.3c0.1,0.1,0.1,0.2,0.1,0.3
					v15.2c0,0.2-0.2,0.4-0.4,0.5L52.4,56.7C52.5,56.6,52.4,56.7,52.4,56.7z M33.9,52l18.5,3.7l12.5-2.6V38.4l-6-8.5l-6.1,10.2
					c-0.1,0.2-0.3,0.3-0.5,0.2l-18.4-3.7V52z"/>
			</g>
			<g>
				<path class="st2" d="M39.3,34.8c0,0-0.1,0-0.1,0c-0.1-0.1-0.1-0.2-0.1-0.3l3.6-5c0.1-0.1,0.2-0.1,0.3-0.1
					c0.1,0.1,0.1,0.2,0.1,0.3l-3.6,5C39.4,34.8,39.4,34.8,39.3,34.8z"/>
			</g>
			<g>
				<path class="st2" d="M41.1,35.4c0,0-0.1,0-0.1,0c-0.1-0.1-0.1-0.2-0.1-0.3l3.6-5.3c0.1-0.1,0.2-0.1,0.3-0.1
					c0.1,0.1,0.1,0.2,0.1,0.3l-3.6,5.3C41.3,35.4,41.2,35.4,41.1,35.4z"/>
			</g>
			<g>
				<path class="st2" d="M43.2,35.8c0,0-0.1,0-0.1,0C43,35.7,43,35.6,43,35.4l3.5-5.4c0.1-0.1,0.2-0.1,0.3-0.1
					c0.1,0.1,0.1,0.2,0.1,0.3l-3.5,5.4C43.4,35.8,43.3,35.8,43.2,35.8z"/>
			</g>
			<g>
				<path class="st2" d="M45.7,36.1c0,0-0.1,0-0.1,0c-0.1-0.1-0.2-0.2-0.1-0.3l3.3-5.4c0.1-0.1,0.2-0.2,0.3-0.1
					c0.1,0.1,0.2,0.2,0.1,0.3L45.9,36C45.8,36.1,45.7,36.1,45.7,36.1z"/>
			</g>
			<g>
				<path class="st2" d="M48,36.6c0,0-0.1,0-0.1,0c-0.1-0.1-0.2-0.2-0.1-0.3l3.2-5.6c0.1-0.1,0.2-0.2,0.3-0.1
					c0.1,0.1,0.2,0.2,0.1,0.3l-3.2,5.6C48.2,36.5,48.1,36.6,48,36.6z"/>
			</g>
			<g>
				<path class="st2" d="M52.2,33.3C52.2,33.3,52.2,33.3,52.2,33.3l-10.6-1.8c-0.1,0-0.2-0.1-0.2-0.3c0-0.1,0.1-0.2,0.3-0.2
					l10.5,1.8c0.1,0,0.2,0.1,0.2,0.3C52.5,33.2,52.4,33.3,52.2,33.3z"/>
			</g>
			<g>
				<path class="st2" d="M51.3,35.2C51.3,35.2,51.2,35.2,51.3,35.2l-10.9-1.9c-0.1,0-0.2-0.1-0.2-0.3c0-0.1,0.1-0.2,0.3-0.2
					l10.9,1.9c0.1,0,0.2,0.1,0.2,0.3C51.5,35.1,51.4,35.2,51.3,35.2z"/>
			</g>
			<g>
				<path class="st2" d="M50.3,37C50.3,37,50.3,37,50.3,37l-11.2-1.9c-0.1,0-0.2-0.1-0.2-0.1c0-0.1,0-0.2,0-0.2l3.8-5.3
					c0.1-0.1,0.1-0.1,0.2-0.1l10.3,1.5c0.1,0,0.1,0.1,0.2,0.1c0,0.1,0,0.2,0,0.2l-2.9,5.8C50.5,37,50.4,37,50.3,37z M39.6,34.7
					l10.6,1.8l2.7-5.3L43,29.8L39.6,34.7z"/>
			</g>
			<g>
				<path class="st2" d="M56.4,55.6c-0.1,0-0.1,0-0.2-0.1c-0.1,0-0.1-0.1-0.1-0.2V42.6c0-0.1,0.1-0.2,0.2-0.2l5.7-1
					c0.1,0,0.1,0,0.2,0.1c0.1,0,0.1,0.1,0.1,0.2v12.5c0,0.1-0.1,0.2-0.2,0.2L56.4,55.6C56.4,55.6,56.4,55.6,56.4,55.6z M56.6,42.8
					V55l5.3-1.1v-12L56.6,42.8z"/>
			</g>
			<g>
				<path class="st2" d="M47.3,51C47.3,51,47.3,51,47.3,51l-8.9-1.8c-0.1,0-0.2-0.1-0.2-0.2v-7.6c0-0.1,0-0.1,0.1-0.2
					c0.1,0,0.1-0.1,0.2-0.1l8.8,1.8c0.1,0,0.2,0.1,0.2,0.2v7.6c0,0.1,0,0.1-0.1,0.2C47.4,51,47.4,51,47.3,51z M38.7,48.8l8.3,1.7
					v-7.1l-8.3-1.7V48.8z"/>
			</g>
			<g>
				<path class="st2" d="M52.4,56.4c-0.1,0-0.2-0.1-0.2-0.2V39.9c0-0.1,0.1-0.2,0.2-0.2c0.1,0,0.2,0.1,0.2,0.2v16.3
					C52.6,56.3,52.5,56.4,52.4,56.4z"/>
			</g>
		</g>
		<g class="st1">
			<g>
				<polygon class="st3" points="37.1,34.3 26.6,32.8 22.7,38.2 34,40.1 				"/>
			</g>
			<g>
				<path class="st4" d="M27.4,32.9c0.1,0,1.5,0.7,3.2,2.9c1.8,2.2,3.4,4.1,3.4,4.1l2.9-5.7L27.4,32.9z"/>
			</g>
			<g>
				<polygon class="st5" points="25,30.2 42.6,32.3 36.1,43.2 17.1,39.4 				"/>
				<path class="st2" d="M36.1,43.7C36.1,43.7,36,43.7,36.1,43.7L17,39.9c-0.2,0-0.3-0.2-0.4-0.3c-0.1-0.2,0-0.3,0.1-0.5l7.8-9.2
					c0.1-0.1,0.3-0.2,0.4-0.2l17.6,2.1c0.2,0,0.3,0.1,0.4,0.3c0.1,0.1,0.1,0.3,0,0.5l-6.5,10.9C36.4,43.6,36.3,43.7,36.1,43.7z
					 M18,39.1l17.8,3.6l5.9-9.9l-16.6-1.9L18,39.1z"/>
			</g>
			<g>
				<polygon class="st5" points="42.6,32.3 36.1,43.2 17.1,39.4 17.1,55.7 36.1,59.5 49.1,56.8 49.1,41.6 				"/>
				<path class="st2" d="M36.1,59.9C36.1,59.9,36,59.9,36.1,59.9L17,56.1c-0.2,0-0.4-0.2-0.4-0.5V39.4c0-0.1,0.1-0.3,0.2-0.4
					c0.1-0.1,0.3-0.1,0.4-0.1l18.6,3.7l6.3-10.6c0.1-0.1,0.2-0.2,0.4-0.2c0.2,0,0.3,0.1,0.4,0.2l6.5,9.3c0.1,0.1,0.1,0.2,0.1,0.3
					v15.2c0,0.2-0.2,0.4-0.4,0.5L36.1,59.9C36.2,59.9,36.1,59.9,36.1,59.9z M17.6,55.3L36.1,59l12.5-2.6V41.7l-6-8.5l-6.1,10.2
					c-0.1,0.2-0.3,0.3-0.5,0.2L17.6,40V55.3z"/>
			</g>
			<g>
				<path class="st2" d="M23,38.1c0,0-0.1,0-0.1,0c-0.1-0.1-0.1-0.2-0.1-0.3l3.6-5c0.1-0.1,0.2-0.1,0.3-0.1c0.1,0.1,0.1,0.2,0.1,0.3
					l-3.6,5C23.2,38.1,23.1,38.1,23,38.1z"/>
			</g>
			<g>
				<path class="st2" d="M24.8,38.7c0,0-0.1,0-0.1,0c-0.1-0.1-0.1-0.2-0.1-0.3l3.6-5.3c0.1-0.1,0.2-0.1,0.3-0.1
					c0.1,0.1,0.1,0.2,0.1,0.3L25,38.6C25,38.7,24.9,38.7,24.8,38.7z"/>
			</g>
			<g>
				<path class="st2" d="M27,39.1c0,0-0.1,0-0.1,0c-0.1-0.1-0.1-0.2-0.1-0.3l3.5-5.4c0.1-0.1,0.2-0.1,0.3-0.1
					c0.1,0.1,0.1,0.2,0.1,0.3L27.2,39C27.1,39.1,27,39.1,27,39.1z"/>
			</g>
			<g>
				<path class="st2" d="M29.4,39.4c0,0-0.1,0-0.1,0c-0.1-0.1-0.2-0.2-0.1-0.3l3.3-5.4c0.1-0.1,0.2-0.2,0.3-0.1
					c0.1,0.1,0.2,0.2,0.1,0.3l-3.3,5.4C29.5,39.4,29.4,39.4,29.4,39.4z"/>
			</g>
			<g>
				<path class="st2" d="M31.7,39.9c0,0-0.1,0-0.1,0c-0.1-0.1-0.2-0.2-0.1-0.3l3.2-5.6c0.1-0.1,0.2-0.2,0.3-0.1
					c0.1,0.1,0.2,0.2,0.1,0.3L32,39.8C31.9,39.8,31.8,39.9,31.7,39.9z"/>
			</g>
			<g>
				<path class="st2" d="M36,36.5C35.9,36.5,35.9,36.5,36,36.5l-10.6-1.8c-0.1,0-0.2-0.1-0.2-0.3c0-0.1,0.1-0.2,0.3-0.2L36,36.1
					c0.1,0,0.2,0.1,0.2,0.3C36.2,36.5,36.1,36.5,36,36.5z"/>
			</g>
			<g>
				<path class="st2" d="M35,38.4C35,38.4,35,38.4,35,38.4l-10.9-1.9c-0.1,0-0.2-0.1-0.2-0.3c0-0.1,0.1-0.2,0.3-0.2L35,38
					c0.1,0,0.2,0.1,0.2,0.3C35.2,38.4,35.1,38.4,35,38.4z"/>
			</g>
			<g>
				<path class="st2" d="M34,40.3C34,40.3,34,40.3,34,40.3l-11.2-1.9c-0.1,0-0.2-0.1-0.2-0.1c0-0.1,0-0.2,0-0.2l3.8-5.3
					c0.1-0.1,0.1-0.1,0.2-0.1L37,34.1c0.1,0,0.1,0.1,0.2,0.1c0,0.1,0,0.2,0,0.2l-2.9,5.8C34.2,40.3,34.1,40.3,34,40.3z M23.3,38
					l10.6,1.8l2.7-5.3l-9.9-1.4L23.3,38z"/>
			</g>
			<g>
				<path class="st2" d="M40.1,58.9c-0.1,0-0.1,0-0.2-0.1c-0.1,0-0.1-0.1-0.1-0.2V45.9c0-0.1,0.1-0.2,0.2-0.2l5.7-1
					c0.1,0,0.1,0,0.2,0.1c0.1,0,0.1,0.1,0.1,0.2v12.5c0,0.1-0.1,0.2-0.2,0.2L40.1,58.9C40.1,58.9,40.1,58.9,40.1,58.9z M40.3,46.1
					v12.2l5.3-1.1v-12L40.3,46.1z"/>
			</g>
			<g>
				<path class="st2" d="M31,54.3C31,54.3,31,54.3,31,54.3l-8.9-1.8c-0.1,0-0.2-0.1-0.2-0.2v-7.6c0-0.1,0-0.1,0.1-0.2
					c0.1,0,0.1-0.1,0.2-0.1l8.8,1.8c0.1,0,0.2,0.1,0.2,0.2v7.6c0,0.1,0,0.1-0.1,0.2C31.1,54.3,31.1,54.3,31,54.3z M22.5,52.1
					l8.3,1.7v-7.1l-8.3-1.7V52.1z"/>
			</g>
			<g>
				<path class="st2" d="M36.1,59.7c-0.1,0-0.2-0.1-0.2-0.2V43.2c0-0.1,0.1-0.2,0.2-0.2c0.1,0,0.2,0.1,0.2,0.2v16.3
					C36.4,59.6,36.2,59.7,36.1,59.7z"/>
			</g>
		</g>
		<g class="st1">
			<g>
				<polygon class="st3" points="20.5,37.8 10,36.3 6,41.6 17.4,43.6 				"/>
			</g>
			<g>
				<path class="st4" d="M10.7,36.4c0.1,0,1.5,0.7,3.2,2.9c1.8,2.2,3.4,4.1,3.4,4.1l2.9-5.7L10.7,36.4z"/>
			</g>
			<g>
				<polygon class="st5" points="8.3,33.7 25.9,35.8 19.5,46.7 0.5,42.9 				"/>
				<path class="st2" d="M19.5,47.2C19.4,47.2,19.4,47.2,19.5,47.2L0.4,43.4c-0.2,0-0.3-0.2-0.4-0.3c-0.1-0.2,0-0.3,0.1-0.5L8,33.4
					c0.1-0.1,0.3-0.2,0.4-0.2L26,35.3c0.2,0,0.3,0.1,0.4,0.3c0.1,0.1,0.1,0.3,0,0.5l-6.5,10.9C19.8,47.1,19.6,47.2,19.5,47.2z
					 M1.4,42.6l17.8,3.6l5.9-9.9L8.5,34.3L1.4,42.6z"/>
			</g>
			<g>
				<polygon class="st5" points="25.9,35.8 19.5,46.7 0.5,42.9 0.5,59.2 19.5,63 32.4,60.3 32.4,45.1 				"/>
				<path class="st2" d="M19.5,63.4C19.4,63.4,19.4,63.4,19.5,63.4L0.4,59.6c-0.2,0-0.4-0.2-0.4-0.5V42.9c0-0.1,0.1-0.3,0.2-0.4
					c0.1-0.1,0.3-0.1,0.4-0.1l18.6,3.7l6.3-10.6c0.1-0.1,0.2-0.2,0.4-0.2c0.2,0,0.3,0.1,0.4,0.2l6.5,9.3c0.1,0.1,0.1,0.2,0.1,0.3
					v15.2c0,0.2-0.2,0.4-0.4,0.5L19.5,63.4C19.5,63.4,19.5,63.4,19.5,63.4z M1,58.8l18.5,3.7l12.5-2.6V45.2l-6-8.5l-6.1,10.2
					c-0.1,0.2-0.3,0.3-0.5,0.2L1,43.5V58.8z"/>
			</g>
			<g>
				<path class="st2" d="M6.4,41.6c0,0-0.1,0-0.1,0c-0.1-0.1-0.1-0.2-0.1-0.3l3.6-5c0.1-0.1,0.2-0.1,0.3-0.1
					c0.1,0.1,0.1,0.2,0.1,0.3l-3.6,5C6.5,41.6,6.4,41.6,6.4,41.6z"/>
			</g>
			<g>
				<path class="st2" d="M8.2,42.2c0,0-0.1,0-0.1,0C7.9,42.1,7.9,42,8,41.9l3.6-5.3c0.1-0.1,0.2-0.1,0.3-0.1
					c0.1,0.1,0.1,0.2,0.1,0.3l-3.6,5.3C8.3,42.2,8.2,42.2,8.2,42.2z"/>
			</g>
			<g>
				<path class="st2" d="M10.3,42.6c0,0-0.1,0-0.1,0c-0.1-0.1-0.1-0.2-0.1-0.3l3.5-5.4c0.1-0.1,0.2-0.1,0.3-0.1
					c0.1,0.1,0.1,0.2,0.1,0.3l-3.5,5.4C10.5,42.6,10.4,42.6,10.3,42.6z"/>
			</g>
			<g>
				<path class="st2" d="M12.7,42.9c0,0-0.1,0-0.1,0c-0.1-0.1-0.2-0.2-0.1-0.3l3.3-5.4c0.1-0.1,0.2-0.2,0.3-0.1
					c0.1,0.1,0.2,0.2,0.1,0.3l-3.3,5.4C12.9,42.9,12.8,42.9,12.7,42.9z"/>
			</g>
			<g>
				<path class="st2" d="M15.1,43.4c0,0-0.1,0-0.1,0c-0.1-0.1-0.2-0.2-0.1-0.3l3.2-5.6c0.1-0.1,0.2-0.2,0.3-0.1
					c0.1,0.1,0.2,0.2,0.1,0.3l-3.2,5.6C15.3,43.3,15.2,43.4,15.1,43.4z"/>
			</g>
			<g>
				<path class="st2" d="M19.3,40C19.3,40,19.3,40,19.3,40L8.8,38.2c-0.1,0-0.2-0.1-0.2-0.3c0-0.1,0.1-0.2,0.3-0.2l10.5,1.8
					c0.1,0,0.2,0.1,0.2,0.3C19.5,40,19.4,40,19.3,40z"/>
			</g>
			<g>
				<path class="st2" d="M18.3,41.9C18.3,41.9,18.3,41.9,18.3,41.9L7.4,40c-0.1,0-0.2-0.1-0.2-0.3c0-0.1,0.1-0.2,0.3-0.2l10.9,1.9
					c0.1,0,0.2,0.1,0.2,0.3C18.6,41.9,18.4,41.9,18.3,41.9z"/>
			</g>
			<g>
				<path class="st2" d="M17.4,43.8C17.4,43.8,17.3,43.8,17.4,43.8L6.2,41.9c-0.1,0-0.2-0.1-0.2-0.1c0-0.1,0-0.2,0-0.2l3.8-5.3
					c0.1-0.1,0.1-0.1,0.2-0.1l10.3,1.5c0.1,0,0.1,0.1,0.2,0.1c0,0.1,0,0.2,0,0.2l-2.9,5.8C17.5,43.8,17.5,43.8,17.4,43.8z M6.6,41.5
					l10.6,1.8l2.7-5.3l-9.9-1.4L6.6,41.5z"/>
			</g>
			<g>
				<path class="st2" d="M23.4,62.4c-0.1,0-0.1,0-0.2-0.1c-0.1,0-0.1-0.1-0.1-0.2V49.4c0-0.1,0.1-0.2,0.2-0.2l5.7-1
					c0.1,0,0.1,0,0.2,0.1c0.1,0,0.1,0.1,0.1,0.2v12.5c0,0.1-0.1,0.2-0.2,0.2L23.4,62.4C23.5,62.4,23.5,62.4,23.4,62.4z M23.7,49.6
					v12.2l5.3-1.1v-12L23.7,49.6z"/>
			</g>
			<g>
				<path class="st2" d="M14.4,57.8C14.4,57.8,14.3,57.8,14.4,57.8l-8.9-1.8c-0.1,0-0.2-0.1-0.2-0.2v-7.6c0-0.1,0-0.1,0.1-0.2
					C5.5,48,5.5,48,5.6,48l8.8,1.8c0.1,0,0.2,0.1,0.2,0.2v7.6c0,0.1,0,0.1-0.1,0.2C14.5,57.8,14.4,57.8,14.4,57.8z M5.8,55.6
					l8.3,1.7v-7.1l-8.3-1.7V55.6z"/>
			</g>
			<g>
				<path class="st2" d="M19.5,63.2c-0.1,0-0.2-0.1-0.2-0.2V46.7c0-0.1,0.1-0.2,0.2-0.2c0.1,0,0.2,0.1,0.2,0.2V63
					C19.7,63.1,19.6,63.2,19.5,63.2z"/>
			</g>
		</g>
	</g>
</g>
</svg>
