<!-- Generator: Adobe Illustrator 19.1.0, SVG Export Plug-In  -->
<svg version="1.1"
	 xmlns="http://www.w3.org/2000/svg" xmlns:xlink="http://www.w3.org/1999/xlink" xmlns:a="http://ns.adobe.com/AdobeSVGViewerExtensions/3.0/"
	 x="0px" y="0px" width="69.5px" height="71.1px" viewBox="0 0 69.5 71.1" style="enable-background:new 0 0 69.5 71.1;"
	 xml:space="preserve">
<style type="text/css">
	.st0{clip-path:url(#SVGID_2_);fill:#EFE9A2;}
	.st1{clip-path:url(#SVGID_2_);}
	.st2{fill:#808285;}
	.st3{clip-path:url(#SVGID_4_);fill:#EFE9A2;}
	.st4{clip-path:url(#SVGID_4_);}
</style>
<defs>
</defs>
<g>
	<g>
		<defs>
			<circle id="SVGID_1_" cx="34.8" cy="36.4" r="34.8"/>
		</defs>
		<clipPath id="SVGID_2_">
			<use xlink:href="#SVGID_1_"  style="overflow:visible;"/>
		</clipPath>
		<circle class="st0" cx="34.8" cy="36.4" r="34.8"/>
		<g class="st1">
			<g>
				<g>
					<path class="st2" d="M55.4,3c0.1,0,0.2,0,0.3,0c0-0.3,0-0.5,0-0.8c0-0.6,0.2-1.6-0.1-2.2c0-0.1-0.2-0.1-0.2,0
						c-0.3,0.5-0.1,1.5-0.1,2.1C55.4,2.4,55.4,2.7,55.4,3z"/>
				</g>
				<g>
					<path class="st2" d="M52,3.9c0.1,0,0.2-0.1,0.3-0.1C52.2,3.5,52,3.2,51.9,3c-0.3-0.6-0.5-1.5-1-2c-0.1-0.1-0.2,0-0.2,0.1
						c0,0.6,0.6,1.4,0.8,1.9C51.7,3.3,51.8,3.6,52,3.9z"/>
				</g>
				<g>
					<path class="st2" d="M53.1,3.4c0.1,0,0.2-0.1,0.3-0.1c-0.1-0.3-0.2-0.5-0.2-0.8C53,2,52.9,1,52.5,0.5c-0.1-0.1-0.2,0-0.2,0.1
						c-0.1,0.6,0.4,1.5,0.5,2C52.9,2.9,53,3.2,53.1,3.4z"/>
				</g>
				<g>
					<path class="st2" d="M50.9,4.5c0.1-0.1,0.2-0.1,0.3-0.2c-0.2-0.2-0.3-0.5-0.5-0.7c-0.3-0.5-0.7-1.5-1.2-1.8
						c-0.1,0-0.2,0-0.2,0.1c0.1,0.6,0.7,1.3,1.1,1.8C50.6,4,50.8,4.2,50.9,4.5z"/>
				</g>
				<g>
					<path class="st2" d="M54.2,3.1c0.1,0,0.2,0,0.3-0.1c0-0.3-0.1-0.5-0.1-0.8c-0.1-0.6-0.1-1.6-0.4-2.1c0-0.1-0.2-0.1-0.2,0
						c-0.2,0.6,0.1,1.5,0.2,2.1C54.1,2.6,54.2,2.8,54.2,3.1z"/>
				</g>
				<g>
					<path class="st2" d="M47,7.7c0.3,0.1,0.5,0.2,0.8,0.4c0-0.1,0.1-0.2,0.1-0.3c-0.2-0.1-0.5-0.2-0.7-0.3c-0.6-0.3-1.4-0.9-2-0.9
						c-0.1,0-0.1,0.1-0.1,0.2C45.5,7.2,46.5,7.4,47,7.7z"/>
				</g>
				<g>
					<path class="st2" d="M46.5,8.9c0.3,0.1,0.5,0.2,0.8,0.2c0-0.1,0.1-0.2,0.1-0.3c-0.2-0.1-0.5-0.1-0.7-0.2
						c-0.6-0.2-1.5-0.7-2.1-0.6c-0.1,0-0.1,0.1-0.1,0.2C45,8.6,46,8.7,46.5,8.9z"/>
				</g>
				<g>
					<path class="st2" d="M48.4,5.4c0.2,0.2,0.4,0.4,0.6,0.6c0.1-0.1,0.2-0.2,0.2-0.2c-0.2-0.2-0.4-0.3-0.6-0.5
						C48.3,4.8,47.6,4,47,3.9c-0.1,0-0.2,0.1-0.1,0.1C47.1,4.6,48,5.1,48.4,5.4z"/>
				</g>
				<g>
					<path class="st2" d="M47.6,6.5c0.2,0.2,0.5,0.3,0.7,0.5c0.1-0.1,0.1-0.2,0.2-0.3c-0.2-0.1-0.4-0.3-0.6-0.4
						c-0.5-0.3-1.2-1-1.9-1.1c-0.1,0-0.1,0.1-0.1,0.2C46.2,5.8,47.1,6.2,47.6,6.5z"/>
				</g>
				<g>
					<path class="st2" d="M49.4,4.5c0.2,0.2,0.4,0.4,0.6,0.7C50,5.1,50.1,5,50.2,5c-0.2-0.2-0.4-0.4-0.5-0.6
						c-0.4-0.5-0.9-1.3-1.5-1.6c-0.1,0-0.2,0-0.1,0.1C48.2,3.4,49,4.1,49.4,4.5z"/>
				</g>
				<g>
					<path class="st2" d="M63,6.4c0.1,0.1,0.1,0.2,0.2,0.3c0.1-0.1,0.2-0.1,0.3-0.2c0.5-0.4,1.4-0.8,1.8-1.3c0-0.1,0-0.2-0.1-0.2
						c-0.6,0.1-1.3,0.8-1.8,1.1C63.2,6.3,63.1,6.3,63,6.4z"/>
				</g>
				<g>
					<path class="st2" d="M64.2,8.6c0,0.1,0.1,0.2,0.1,0.3c0.1,0,0.2-0.1,0.3-0.1c0.6-0.2,1.6-0.3,2-0.8c0.1-0.1,0-0.2-0.1-0.2
						c-0.6-0.1-1.5,0.4-2,0.6C64.5,8.6,64.4,8.6,64.2,8.6z"/>
				</g>
				<g>
					<path class="st2" d="M63.7,7.5c0.1,0.1,0.1,0.2,0.2,0.3c0.1,0,0.2-0.1,0.3-0.1c0.6-0.3,1.5-0.6,1.9-1c0.1-0.1,0-0.2-0.1-0.2
						c-0.6,0-1.4,0.6-1.9,0.9C63.9,7.4,63.8,7.4,63.7,7.5z"/>
				</g>
				<g>
					<path class="st2" d="M65.1,11.1c-0.2,0-0.3,0-0.5,0c0,0.1,0,0.2,0,0.3c0.1,0,0.3,0,0.4,0c0.6,0,1.6,0.1,2.2-0.2
						c0.1,0,0.1-0.2,0-0.2C66.6,10.9,65.7,11.1,65.1,11.1z"/>
				</g>
				<g>
					<path class="st2" d="M57,3.2c0-0.3,0.1-0.6,0.1-0.8c0.1-0.6,0.4-1.6,0.2-2.2c0-0.1-0.1-0.1-0.2,0c-0.3,0.5-0.3,1.5-0.3,2.1
						c0,0.3-0.1,0.6-0.1,0.9C56.7,3.2,56.8,3.2,57,3.2z"/>
				</g>
				<g>
					<path class="st2" d="M64.9,9.8c-0.1,0-0.2,0-0.4,0.1c0,0.1,0,0.2,0,0.3c0.1,0,0.2,0,0.3-0.1C65.5,10,66.5,10,67,9.7
						c0.1,0,0-0.2,0-0.2C66.4,9.3,65.5,9.7,64.9,9.8z"/>
				</g>
				<g>
					<path class="st2" d="M44.2,9.8c0.5,0.4,1.5,0.3,2.1,0.4c0.3,0,0.5,0.1,0.8,0.1c0-0.1,0-0.2,0.1-0.3c-0.2,0-0.5-0.1-0.7-0.1
						c-0.6-0.1-1.6-0.5-2.2-0.3C44.1,9.6,44.1,9.7,44.2,9.8z"/>
				</g>
				<g>
					<path class="st2" d="M59.3,3.8c0.1-0.2,0.2-0.5,0.3-0.7c0.2-0.6,0.8-1.4,0.8-2c0-0.1-0.1-0.1-0.2-0.1c-0.5,0.4-0.7,1.4-0.9,1.9
						c-0.1,0.3-0.2,0.5-0.3,0.8C59,3.7,59.2,3.8,59.3,3.8z"/>
				</g>
				<g>
					<path class="st2" d="M58.1,3.5c0.1-0.3,0.1-0.5,0.2-0.8C58.5,2,59,1.1,58.9,0.5c0-0.1-0.1-0.1-0.2-0.1c-0.4,0.5-0.5,1.4-0.6,2
						c-0.1,0.3-0.2,0.6-0.2,0.9C57.9,3.4,58,3.4,58.1,3.5z"/>
				</g>
				<g>
					<path class="st2" d="M60.4,4.3c0.1-0.2,0.2-0.4,0.3-0.5c0.3-0.5,1-1.3,1.1-1.9c0-0.1-0.1-0.1-0.2-0.1c-0.5,0.3-0.9,1.2-1.2,1.8
						c-0.1,0.2-0.3,0.4-0.4,0.7C60.2,4.2,60.3,4.2,60.4,4.3z"/>
				</g>
				<g>
					<path class="st2" d="M61.2,4.7c0.1,0.1,0.2,0.1,0.3,0.2c0.1-0.1,0.2-0.2,0.3-0.4c0.4-0.5,1.2-1.1,1.3-1.7
						c0-0.1-0.1-0.2-0.1-0.1c-0.6,0.3-1,1.1-1.4,1.6C61.4,4.4,61.3,4.6,61.2,4.7z"/>
				</g>
				<g>
					<path class="st2" d="M62.5,5.1c-0.1,0.1-0.2,0.2-0.4,0.3c0.1,0.1,0.2,0.2,0.2,0.2c0.1-0.1,0.2-0.2,0.3-0.3
						c0.5-0.4,1.3-1,1.6-1.5c0-0.1-0.1-0.2-0.1-0.1C63.5,4,63,4.7,62.5,5.1z"/>
				</g>
				<g>
					<path class="st2" d="M55.2,20.8c-0.1,0-0.2,0-0.3,0c0,0.1,0,0.2,0,0.3c0,0.6-0.3,1.6-0.1,2.2c0,0.1,0.2,0.1,0.2,0
						c0.3-0.5,0.2-1.5,0.2-2.1C55.2,21,55.2,20.9,55.2,20.8z"/>
				</g>
				<g>
					<path class="st2" d="M61.4,19.2c-0.1-0.1-0.2-0.3-0.3-0.4c-0.1,0.1-0.2,0.1-0.3,0.2c0.1,0.1,0.2,0.2,0.3,0.4
						c0.4,0.5,0.8,1.4,1.4,1.7c0.1,0,0.2,0,0.2-0.1C62.4,20.3,61.7,19.7,61.4,19.2z"/>
				</g>
				<g>
					<path class="st2" d="M62.4,18.3c-0.1-0.1-0.3-0.3-0.4-0.4c-0.1,0.1-0.2,0.2-0.2,0.2c0.1,0.1,0.2,0.2,0.3,0.3
						c0.4,0.4,1,1.3,1.6,1.5c0.1,0,0.2-0.1,0.1-0.1C63.6,19.3,62.8,18.7,62.4,18.3z"/>
				</g>
				<g>
					<path class="st2" d="M60,19.5c-0.1,0.1-0.2,0.1-0.3,0.2c0.1,0.1,0.1,0.3,0.2,0.4c0.3,0.5,0.6,1.5,1.1,1.9c0.1,0,0.2,0,0.2-0.1
						c0-0.6-0.7-1.4-0.9-1.9C60.2,19.8,60.1,19.6,60,19.5z"/>
				</g>
				<g>
					<path class="st2" d="M57.7,20.4c-0.1,0-0.2,0.1-0.3,0.1c0,0.1,0.1,0.2,0.1,0.4c0.1,0.6,0.2,1.6,0.5,2.1c0,0.1,0.2,0,0.2,0
						c0.1-0.6-0.3-1.5-0.4-2.1C57.8,20.7,57.7,20.6,57.7,20.4z"/>
				</g>
				<g>
					<path class="st2" d="M58.9,20c-0.1,0-0.2,0.1-0.3,0.1c0,0.1,0.1,0.3,0.1,0.4c0.2,0.6,0.4,1.6,0.8,2c0.1,0.1,0.2,0,0.2-0.1
						c0.1-0.6-0.5-1.4-0.7-2C59,20.3,58.9,20.2,58.9,20z"/>
				</g>
				<g>
					<path class="st2" d="M64.9,13.7c-0.2,0-0.4-0.1-0.5-0.1c0,0.1-0.1,0.2-0.1,0.3c0.2,0,0.3,0.1,0.5,0.1c0.6,0.1,1.5,0.6,2.1,0.4
						c0.1,0,0.1-0.1,0-0.2C66.4,13.9,65.4,13.9,64.9,13.7z"/>
				</g>
				<g>
					<path class="st2" d="M56.4,20.7c-0.1,0-0.2,0-0.3,0c0,0.1,0,0.2,0,0.3c0.1,0.6-0.1,1.6,0.2,2.2c0,0.1,0.2,0.1,0.2,0
						c0.2-0.6,0-1.5-0.1-2.1C56.5,21,56.5,20.8,56.4,20.7z"/>
				</g>
				<g>
					<path class="st2" d="M65.1,12.4c-0.2,0-0.3,0-0.5,0c0,0.1,0,0.2,0,0.3c0.1,0,0.3,0,0.4,0c0.6,0.1,1.6,0.3,2.2,0.1
						c0.1,0,0.1-0.1,0-0.2C66.6,12.4,65.7,12.5,65.1,12.4z"/>
				</g>
				<g>
					<path class="st2" d="M63.9,16.2c-0.2-0.1-0.3-0.2-0.5-0.3c-0.1,0.1-0.1,0.2-0.2,0.3c0.1,0.1,0.3,0.2,0.4,0.2
						c0.5,0.3,1.3,1,1.9,1c0.1,0,0.1-0.1,0.1-0.2C65.4,16.8,64.5,16.5,63.9,16.2z"/>
				</g>
				<g>
					<path class="st2" d="M64.5,15c-0.2-0.1-0.4-0.1-0.5-0.2c0,0.1-0.1,0.2-0.1,0.3c0.2,0.1,0.3,0.1,0.5,0.2
						c0.6,0.2,1.4,0.8,2.1,0.7c0.1,0,0.1-0.1,0.1-0.2C66,15.4,65,15.2,64.5,15z"/>
				</g>
				<g>
					<path class="st2" d="M63.2,17.3c-0.1-0.1-0.3-0.2-0.4-0.3c-0.1,0.1-0.1,0.2-0.2,0.3c0.1,0.1,0.3,0.2,0.4,0.3
						c0.5,0.4,1.2,1.1,1.8,1.3c0.1,0,0.2-0.1,0.1-0.2C64.6,18.1,63.7,17.7,63.2,17.3z"/>
				</g>
				<g>
					<path class="st2" d="M48,16.2c0-0.1-0.1-0.1-0.1-0.2c0,0-0.1-0.1-0.1-0.1c-0.2,0.1-0.3,0.2-0.5,0.3c-0.5,0.3-1.5,0.7-1.8,1.2
						c0,0.1,0,0.2,0.1,0.2c0.6,0,1.3-0.7,1.8-1C47.7,16.5,47.9,16.4,48,16.2z"/>
				</g>
				<g>
					<path class="st2" d="M47.5,15.1c0-0.1-0.1-0.2-0.1-0.3C47.2,14.9,47,15,46.8,15c-0.6,0.2-1.6,0.4-2,0.9c-0.1,0.1,0,0.2,0.1,0.2
						c0.6,0,1.4-0.5,2-0.7C47.1,15.3,47.3,15.2,47.5,15.1z"/>
				</g>
				<g>
					<path class="st2" d="M53.6,20.6c0,0.1,0,0.1,0,0.2c-0.1,0.6-0.5,1.5-0.4,2.2c0,0.1,0.1,0.1,0.2,0c0.4-0.5,0.4-1.5,0.5-2
						c0-0.1,0-0.2,0.1-0.3C53.8,20.7,53.7,20.6,53.6,20.6z"/>
				</g>
				<g>
					<path class="st2" d="M47.1,14c0-0.1,0-0.2-0.1-0.3c-0.2,0.1-0.4,0.1-0.6,0.2c-0.6,0.2-1.6,0.2-2.1,0.6c-0.1,0.1,0,0.2,0,0.2
						c0.6,0.1,1.5-0.3,2.1-0.5C46.7,14.1,46.9,14,47.1,14z"/>
				</g>
				<g>
					<path class="st2" d="M46.2,12.8c0.3,0,0.5-0.1,0.8-0.1c0-0.1,0-0.2,0-0.3c-0.2,0-0.5,0.1-0.7,0.1c-0.6,0.1-1.6,0-2.2,0.3
						c-0.1,0-0.1,0.2,0,0.2C44.7,13.2,45.6,12.9,46.2,12.8z"/>
				</g>
				<g>
					<path class="st2" d="M48.7,17.3c-0.1-0.1-0.1-0.2-0.2-0.3c-0.1,0.1-0.3,0.2-0.4,0.3c-0.5,0.4-1.4,0.9-1.7,1.4
						c0,0.1,0,0.2,0.1,0.2c0.6-0.1,1.2-0.9,1.7-1.3C48.4,17.5,48.6,17.4,48.7,17.3z"/>
				</g>
				<g>
					<path class="st2" d="M46.1,11.5c0.3,0,0.5,0,0.8,0c0-0.1,0-0.2,0-0.3c-0.2,0-0.5,0-0.7,0c-0.6,0-1.6-0.2-2.2,0
						c-0.1,0-0.1,0.2,0,0.2C44.6,11.7,45.5,11.5,46.1,11.5z"/>
				</g>
				<g>
					<path class="st2" d="M51.2,19.7c0,0,0,0.1-0.1,0.1c-0.3,0.5-0.9,1.3-0.9,2c0,0.1,0.1,0.1,0.2,0.1c0.5-0.4,0.8-1.3,1-1.8
						c0-0.1,0.1-0.1,0.1-0.2C51.3,19.9,51.2,19.8,51.2,19.7z"/>
				</g>
				<g>
					<path class="st2" d="M49.5,18.3c-0.1-0.1-0.2-0.2-0.2-0.3c-0.1,0.1-0.2,0.2-0.3,0.3c-0.4,0.4-1.2,1-1.4,1.6
						c0,0.1,0.1,0.2,0.1,0.1c0.6-0.2,1.1-1,1.5-1.5C49.3,18.5,49.4,18.4,49.5,18.3z"/>
				</g>
				<g>
					<path class="st2" d="M52.3,20.3c0,0,0,0.1,0,0.1c-0.2,0.6-0.7,1.5-0.7,2.1c0,0.1,0.1,0.1,0.2,0.1c0.4-0.4,0.6-1.4,0.8-2
						c0-0.1,0-0.1,0.1-0.2C52.5,20.4,52.4,20.3,52.3,20.3z"/>
				</g>
				<g>
					<path class="st2" d="M50.4,19.2c-0.1-0.1-0.2-0.1-0.3-0.2C50.1,19,50,19.1,50,19.2c-0.4,0.5-1.1,1.2-1.2,1.8
						c0,0.1,0.1,0.2,0.2,0.1c0.5-0.3,0.9-1.2,1.3-1.7C50.3,19.4,50.3,19.3,50.4,19.2z"/>
				</g>
			</g>
			<g>
				<path class="st2" d="M55.2,19.6c-1.1,0-2.1-0.2-2.9-0.6c-1.3-0.6-2.5-1.8-3.4-3.5c-1.5-2.6-1.1-6.5,0.9-8.7
					c1.3-1.4,3.9-2.9,6.1-2.7c1.9,0.2,4,1,4.8,1.6c1.5,1.1,2.6,3.1,2.7,4.8c0.3,4.4-2.4,8-6.5,8.9C56.4,19.5,55.8,19.6,55.2,19.6z
					 M55.4,5.1c-1.8,0-3.9,1.2-4.9,2.4c-1.7,2-2.1,5.3-0.8,7.6c0.9,1.5,1.9,2.6,3,3.1c0.6,0.3,1.5,0.5,2.5,0.5
					c0.5,0,1.1-0.1,1.5-0.2c3.6-0.8,5.9-3.9,5.7-7.8c-0.1-1.4-1.1-3.1-2.3-4.1c-0.7-0.5-2.5-1.3-4.3-1.4C55.7,5.1,55.5,5.1,55.4,5.1
					z"/>
			</g>
		</g>
		<g class="st1">
			<g>
				<path class="st2" d="M34.8,54.6L34.8,54.6L34.8,54.6L34.8,54.6C34.7,54.6,34.7,54.6,34.8,54.6l-0.2,0l0,0c-0.1,0-0.1,0-0.2,0
					c-8.2-0.2-14.7-6.8-14.7-15.1c0-2.7,0.6-4.9,2.2-7.8c4.9-8.9,12.2-13.3,12.5-13.5c0.2-0.1,0.3-0.1,0.5-0.1c0.1,0,0.2,0,0.3,0.1
					c0.3,0.2,7.6,4.6,12.5,13.5c1.6,2.9,2.2,5.1,2.2,7.8C49.9,47.8,43.1,54.6,34.8,54.6z M34.8,53.1c0.1,0,0.1,0,0.2,0
					c7.4-0.1,13.4-6.2,13.4-13.6c0-2.5-0.6-4.4-2-7.1c-4.1-7.4-10-11.7-11.6-12.7c-1.5,1-7.5,5.3-11.6,12.7c-1.5,2.7-2,4.6-2,7.1
					c0,7.5,5.8,13.4,13.3,13.6c0,0,0,0,0.1,0c0,0,0.1,0,0.1,0l0,0C34.6,53.1,34.7,53.1,34.8,53.1z"/>
			</g>
			<g>
				<path class="st2" d="M29.5,49.6c-0.1,0-0.2,0-0.4-0.1c-2.2-1.2-3.6-3-4.5-5.9c-1-3.1-0.7-7.2,0.8-10.2c0.2-0.4,0.6-0.5,1-0.3
					c0.4,0.2,0.5,0.6,0.3,1c-1.3,2.7-1.6,6.3-0.7,9.1c0.8,2.5,1.9,4,3.8,5c0.4,0.2,0.5,0.6,0.3,1C30,49.5,29.7,49.6,29.5,49.6z"/>
			</g>
			<g>
				<path class="st2" d="M32.9,49.9c0,0.6-0.4,1-1,1l0,0c-0.6,0-1-0.4-1-1l0,0c0-0.6,0.4-1,1-1l0,0C32.5,48.9,32.9,49.4,32.9,49.9
					L32.9,49.9z"/>
			</g>
		</g>
	</g>
</g>
</svg>
