<?xml version="1.0" encoding="iso-8859-1"?>
<!-- Generator: Adobe Illustrator 19.1.0, SVG Export Plug-In . SVG Version: 6.00 Build 0)  -->
<svg version="1.1" id="Layer_1" xmlns="http://www.w3.org/2000/svg" xmlns:xlink="http://www.w3.org/1999/xlink" x="0px" y="0px"
	 viewBox="0 0 69 69" style="enable-background:new 0 0 69 69;" xml:space="preserve">
<g>
	<defs>
		<circle id="SVGID_1_" cx="34.33" cy="34.38" r="34.5"/>
	</defs>
	<clipPath id="SVGID_2_">
		<use xlink:href="#SVGID_1_"  style="overflow:visible;"/>
	</clipPath>
	<circle style="clip-path:url(#SVGID_2_);fill:#EFE9A2;" cx="34.33" cy="34.38" r="34.5"/>
	<g style="clip-path:url(#SVGID_2_);">
		<g>
			<g>
				<path style="fill:#808285;" d="M54.989,1.283c0.114,0,0.228,0.004,0.341,0.011c-0.004-0.262-0.008-0.523-0.011-0.785
					c-0.008-0.613,0.173-1.603-0.096-2.169c-0.034-0.072-0.156-0.072-0.19,0c-0.258,0.546-0.064,1.501-0.056,2.088
					C54.98,0.714,54.985,0.998,54.989,1.283z"/>
			</g>
			<g>
				<path style="fill:#808285;" d="M51.548,2.156c0.102-0.049,0.205-0.098,0.309-0.144c-0.116-0.251-0.232-0.502-0.348-0.753
					c-0.256-0.556-0.494-1.535-0.97-1.942c-0.06-0.052-0.172-0.002-0.174,0.077c-0.014,0.604,0.552,1.397,0.798,1.93
					C51.291,1.602,51.42,1.879,51.548,2.156z"/>
			</g>
			<g>
				<path style="fill:#808285;" d="M52.646,1.703c0.108-0.037,0.216-0.071,0.324-0.103c-0.077-0.256-0.155-0.511-0.231-0.767
					c-0.176-0.587-0.275-1.589-0.69-2.058c-0.053-0.06-0.17-0.026-0.183,0.052c-0.098,0.596,0.352,1.46,0.522,2.023
					C52.474,1.134,52.56,1.418,52.646,1.703z"/>
			</g>
			<g>
				<path style="fill:#808285;" d="M50.512,2.733c0.095-0.06,0.191-0.119,0.289-0.177c-0.151-0.234-0.302-0.468-0.452-0.702
					c-0.331-0.515-0.703-1.451-1.23-1.788c-0.067-0.043-0.171,0.022-0.161,0.101c0.07,0.6,0.741,1.307,1.059,1.801
					C50.181,2.223,50.347,2.478,50.512,2.733z"/>
			</g>
			<g>
				<path style="fill:#808285;" d="M53.799,1.397c0.112-0.021,0.224-0.039,0.336-0.054c-0.039-0.254-0.079-0.508-0.118-0.762
					c-0.093-0.606-0.052-1.611-0.397-2.134c-0.044-0.066-0.165-0.05-0.188,0.026c-0.18,0.576,0.145,1.495,0.235,2.076
					C53.711,0.831,53.755,1.114,53.799,1.397z"/>
			</g>
			<g>
				<path style="fill:#808285;" d="M46.625,5.9c0.251,0.118,0.502,0.236,0.753,0.354c0.047-0.104,0.096-0.206,0.147-0.307
					c-0.226-0.106-0.452-0.212-0.678-0.319c-0.554-0.262-1.365-0.858-1.991-0.865c-0.08-0.001-0.133,0.109-0.083,0.171
					C45.15,5.405,46.094,5.65,46.625,5.9z"/>
			</g>
			<g>
				<path style="fill:#808285;" d="M46.159,7.129c0.267,0.083,0.533,0.165,0.8,0.247c0.033-0.109,0.068-0.217,0.104-0.324
					c-0.241-0.074-0.481-0.149-0.722-0.224c-0.585-0.182-1.471-0.66-2.092-0.579c-0.079,0.01-0.117,0.126-0.059,0.181
					C44.63,6.844,45.598,6.955,46.159,7.129z"/>
			</g>
			<g>
				<path style="fill:#808285;" d="M48.044,3.695c0.211,0.185,0.423,0.368,0.634,0.552c0.075-0.082,0.152-0.164,0.234-0.246
					c-0.193-0.169-0.386-0.338-0.579-0.507c-0.46-0.404-1.075-1.201-1.676-1.38c-0.076-0.023-0.158,0.068-0.127,0.141
					C46.763,2.813,47.602,3.308,48.044,3.695z"/>
			</g>
			<g>
				<path style="fill:#808285;" d="M47.258,4.748c0.231,0.151,0.463,0.301,0.694,0.452c0.061-0.095,0.124-0.189,0.19-0.281
					c-0.209-0.136-0.417-0.273-0.626-0.409c-0.512-0.336-1.232-1.04-1.851-1.133c-0.079-0.012-0.147,0.089-0.106,0.158
					C45.866,4.053,46.766,4.426,47.258,4.748z"/>
			</g>
			<g>
				<path style="fill:#808285;" d="M48.97,2.762c0.192,0.222,0.385,0.443,0.577,0.666c0.087-0.071,0.176-0.14,0.266-0.209
					c-0.177-0.205-0.353-0.41-0.53-0.615c-0.4-0.464-0.898-1.339-1.467-1.6c-0.072-0.033-0.166,0.045-0.146,0.122
					C47.824,1.71,48.586,2.317,48.97,2.762z"/>
			</g>
			<g>
				<path style="fill:#808285;" d="M62.512,4.665c0.069,0.09,0.137,0.18,0.203,0.273c0.094-0.066,0.189-0.131,0.283-0.197
					c0.504-0.349,1.426-0.753,1.744-1.292c0.04-0.069-0.028-0.17-0.106-0.158c-0.597,0.091-1.28,0.786-1.762,1.121
					C62.753,4.497,62.632,4.581,62.512,4.665z"/>
			</g>
			<g>
				<path style="fill:#808285;" d="M63.737,6.859c0.04,0.107,0.077,0.215,0.111,0.322c0.085-0.029,0.17-0.058,0.255-0.087
					c0.58-0.197,1.578-0.331,2.033-0.761c0.058-0.055,0.02-0.171-0.059-0.181c-0.599-0.077-1.447,0.403-2.003,0.592
					C63.961,6.782,63.849,6.821,63.737,6.859z"/>
			</g>
			<g>
				<path style="fill:#808285;" d="M63.205,5.713c0.056,0.099,0.11,0.199,0.162,0.3c0.089-0.045,0.177-0.09,0.266-0.134
					c0.547-0.276,1.517-0.547,1.907-1.037c0.05-0.062-0.004-0.172-0.083-0.171c-0.604,0.007-1.377,0.6-1.901,0.865
					C63.438,5.595,63.321,5.655,63.205,5.713z"/>
			</g>
			<g>
				<path style="fill:#808285;" d="M64.583,9.316c-0.149,0.007-0.299,0.015-0.448,0.022c-0.001,0.114-0.004,0.228-0.008,0.342
					c0.129-0.006,0.258-0.013,0.388-0.019c0.612-0.029,1.608,0.117,2.164-0.171c0.071-0.037,0.067-0.159-0.007-0.19
					C66.118,9.06,65.17,9.287,64.583,9.316z"/>
			</g>
			<g>
				<path style="fill:#808285;" d="M56.511,1.454c0.035-0.278,0.07-0.557,0.106-0.835c0.078-0.608,0.394-1.563,0.207-2.161
					c-0.024-0.076-0.145-0.093-0.188-0.026c-0.331,0.505-0.272,1.477-0.346,2.06c-0.038,0.301-0.076,0.603-0.114,0.904
					C56.288,1.414,56.399,1.434,56.511,1.454z"/>
			</g>
			<g>
				<path style="fill:#808285;" d="M64.418,8.012c-0.119,0.023-0.238,0.046-0.357,0.068c0.018,0.113,0.031,0.226,0.042,0.339
					c0.099-0.019,0.197-0.038,0.296-0.056C65,8.249,66.007,8.255,66.517,7.892c0.065-0.046,0.044-0.166-0.033-0.187
					C65.902,7.546,64.995,7.902,64.418,8.012z"/>
			</g>
			<g>
				<path style="fill:#808285;" d="M43.822,7.993c0.493,0.349,1.467,0.324,2.047,0.418c0.272,0.044,0.545,0.088,0.817,0.132
					c0.019-0.112,0.04-0.224,0.063-0.335c-0.247-0.04-0.494-0.08-0.741-0.12c-0.605-0.099-1.548-0.449-2.152-0.282
					C43.778,7.826,43.757,7.946,43.822,7.993z"/>
			</g>
			<g>
				<path style="fill:#808285;" d="M58.8,2.083c0.101-0.237,0.203-0.473,0.304-0.71c0.242-0.563,0.81-1.394,0.794-2.02
					c-0.002-0.08-0.113-0.129-0.174-0.077c-0.458,0.394-0.669,1.345-0.901,1.885c-0.116,0.27-0.231,0.54-0.347,0.81
					C58.587,2.008,58.695,2.045,58.8,2.083z"/>
			</g>
			<g>
				<path style="fill:#808285;" d="M57.666,1.722c0.074-0.271,0.147-0.542,0.221-0.812c0.161-0.591,0.608-1.493,0.506-2.111
					c-0.013-0.079-0.13-0.112-0.183-0.052C57.811-0.8,57.734,0.171,57.58,0.738c-0.081,0.299-0.162,0.599-0.243,0.898
					C57.447,1.664,57.557,1.692,57.666,1.722z"/>
			</g>
			<g>
				<path style="fill:#808285;" d="M59.917,2.545c0.109-0.181,0.219-0.362,0.328-0.542c0.318-0.524,0.996-1.268,1.068-1.89
					c0.009-0.079-0.094-0.144-0.161-0.101c-0.508,0.326-0.85,1.239-1.154,1.741c-0.131,0.217-0.261,0.434-0.393,0.651
					C59.713,2.451,59.817,2.498,59.917,2.545z"/>
			</g>
			<g>
				<path style="fill:#808285;" d="M60.705,2.961c0.107,0.065,0.202,0.127,0.285,0.188c0.099-0.122,0.198-0.243,0.298-0.365
					c0.388-0.474,1.163-1.117,1.321-1.723c0.02-0.077-0.073-0.156-0.146-0.122c-0.548,0.252-1.014,1.108-1.385,1.564
					C60.953,2.655,60.829,2.808,60.705,2.961z"/>
			</g>
			<g>
				<path style="fill:#808285;" d="M62.042,3.395C61.921,3.507,61.8,3.62,61.679,3.732c0.081,0.078,0.162,0.157,0.241,0.24
					c0.097-0.09,0.194-0.179,0.291-0.269c0.45-0.416,1.307-0.944,1.547-1.522c0.031-0.074-0.051-0.164-0.127-0.141
					C63.053,2.213,62.473,2.996,62.042,3.395z"/>
			</g>
			<g>
				<path style="fill:#808285;" d="M54.743,18.889c-0.113,0-0.227-0.002-0.341-0.005c-0.005,0.089-0.01,0.179-0.015,0.268
					c-0.035,0.612-0.284,1.587-0.056,2.17c0.029,0.074,0.151,0.083,0.19,0.013c0.295-0.526,0.169-1.492,0.202-2.079
					C54.73,19.133,54.737,19.011,54.743,18.889z"/>
			</g>
			<g>
				<path style="fill:#808285;" d="M60.878,17.347c-0.107-0.143-0.214-0.285-0.321-0.427c-0.089,0.069-0.179,0.138-0.271,0.204
					c0.09,0.12,0.179,0.24,0.268,0.359c0.366,0.491,0.802,1.398,1.352,1.698c0.07,0.038,0.169-0.033,0.154-0.112
					C61.948,18.476,61.23,17.818,60.878,17.347z"/>
			</g>
			<g>
				<path style="fill:#808285;" d="M61.866,16.481c-0.128-0.129-0.257-0.257-0.385-0.386c-0.079,0.081-0.159,0.161-0.241,0.239
					c0.108,0.109,0.216,0.218,0.324,0.326c0.431,0.435,0.989,1.273,1.575,1.493c0.075,0.028,0.162-0.057,0.137-0.132
					C63.083,17.45,62.28,16.898,61.866,16.481z"/>
			</g>
			<g>
				<path style="fill:#808285;" d="M59.527,17.61c-0.098,0.057-0.197,0.112-0.298,0.166c0.07,0.127,0.14,0.254,0.209,0.381
					c0.295,0.537,0.6,1.497,1.103,1.87c0.064,0.047,0.172-0.01,0.168-0.089c-0.028-0.603-0.648-1.355-0.931-1.87
					C59.695,17.915,59.611,17.763,59.527,17.61z"/>
			</g>
			<g>
				<path style="fill:#808285;" d="M57.23,18.561c-0.109,0.03-0.219,0.057-0.33,0.083c0.028,0.122,0.055,0.243,0.083,0.365
					c0.135,0.598,0.164,1.604,0.545,2.101c0.048,0.063,0.168,0.038,0.186-0.04c0.139-0.588-0.249-1.481-0.379-2.054
					C57.3,18.865,57.265,18.713,57.23,18.561z"/>
			</g>
			<g>
				<path style="fill:#808285;" d="M58.411,18.159c-0.104,0.043-0.211,0.084-0.318,0.124c0.049,0.129,0.098,0.257,0.147,0.386
					c0.217,0.573,0.386,1.565,0.832,2.005c0.057,0.056,0.171,0.014,0.179-0.065c0.056-0.601-0.453-1.432-0.661-1.981
					C58.53,18.471,58.471,18.315,58.411,18.159z"/>
			</g>
			<g>
				<path style="fill:#808285;" d="M64.365,11.929c-0.178-0.042-0.355-0.083-0.533-0.125c-0.027,0.111-0.055,0.221-0.086,0.33
					c0.153,0.036,0.305,0.071,0.458,0.107c0.596,0.141,1.513,0.556,2.127,0.432c0.078-0.016,0.108-0.134,0.046-0.185
					C65.911,12.106,64.937,12.063,64.365,11.929z"/>
			</g>
			<g>
				<path style="fill:#808285;" d="M56.002,18.81c-0.111,0.014-0.224,0.026-0.339,0.037c0.009,0.108,0.018,0.216,0.027,0.324
					c0.051,0.611-0.061,1.611,0.247,2.157c0.039,0.069,0.161,0.061,0.19-0.013c0.219-0.562-0.041-1.501-0.09-2.087
					C56.025,19.088,56.014,18.949,56.002,18.81z"/>
			</g>
			<g>
				<path style="fill:#808285;" d="M64.566,10.63c-0.17-0.016-0.34-0.031-0.51-0.046c-0.014,0.113-0.029,0.226-0.046,0.338
					c0.147,0.013,0.294,0.027,0.441,0.04c0.61,0.056,1.576,0.34,2.167,0.131c0.075-0.026,0.088-0.148,0.02-0.189
					C66.121,10.59,65.151,10.683,64.566,10.63z"/>
			</g>
			<g>
				<path style="fill:#808285;" d="M63.436,14.38c-0.163-0.091-0.327-0.182-0.49-0.274c-0.054,0.1-0.109,0.199-0.167,0.297
					c0.139,0.078,0.278,0.155,0.417,0.233c0.534,0.3,1.302,0.951,1.926,1.001c0.079,0.006,0.141-0.099,0.095-0.165
					C64.872,14.977,63.948,14.667,63.436,14.38z"/>
			</g>
			<g>
				<path style="fill:#808285;" d="M63.986,13.187c-0.174-0.068-0.349-0.135-0.523-0.203c-0.041,0.106-0.082,0.212-0.127,0.316
					c0.149,0.058,0.298,0.116,0.447,0.174c0.571,0.222,1.421,0.761,2.047,0.724c0.079-0.005,0.125-0.118,0.071-0.176
					C65.492,13.578,64.534,13.4,63.986,13.187z"/>
			</g>
			<g>
				<path style="fill:#808285;" d="M62.724,15.486c-0.147-0.112-0.295-0.223-0.443-0.334c-0.067,0.091-0.135,0.182-0.205,0.27
					c0.125,0.095,0.249,0.189,0.374,0.284c0.488,0.371,1.157,1.123,1.768,1.26c0.078,0.017,0.153-0.079,0.117-0.15
					C64.064,16.276,63.192,15.841,62.724,15.486z"/>
			</g>
			<g>
				<path style="fill:#808285;" d="M47.649,14.416c-0.03-0.052-0.06-0.103-0.09-0.155c-0.026-0.047-0.05-0.095-0.076-0.142
					c-0.154,0.092-0.307,0.183-0.461,0.275c-0.527,0.313-1.475,0.652-1.83,1.167c-0.045,0.066,0.016,0.171,0.095,0.165
					c0.602-0.049,1.332-0.695,1.836-0.995C47.299,14.626,47.473,14.521,47.649,14.416z"/>
			</g>
			<g>
				<path style="fill:#808285;" d="M47.114,13.313c-0.041-0.106-0.08-0.213-0.116-0.321c-0.176,0.074-0.353,0.149-0.529,0.222
					c-0.565,0.237-1.551,0.44-1.975,0.901c-0.054,0.059-0.008,0.172,0.071,0.176c0.603,0.035,1.415-0.503,1.957-0.73
					C46.719,13.479,46.917,13.396,47.114,13.313z"/>
			</g>
			<g>
				<path style="fill:#808285;" d="M53.138,18.762c-0.013,0.063-0.025,0.126-0.038,0.189c-0.12,0.601-0.503,1.532-0.357,2.141
					c0.018,0.077,0.138,0.103,0.186,0.04c0.366-0.48,0.375-1.454,0.489-2.031c0.019-0.097,0.038-0.194,0.057-0.29
					C53.362,18.796,53.249,18.78,53.138,18.762z"/>
			</g>
			<g>
				<path style="fill:#808285;" d="M46.761,12.143c-0.025-0.111-0.047-0.222-0.067-0.335c-0.203,0.054-0.406,0.107-0.609,0.161
					c-0.593,0.156-1.597,0.22-2.081,0.618c-0.061,0.051-0.032,0.169,0.046,0.185c0.592,0.118,1.472-0.301,2.04-0.451
					C46.313,12.262,46.537,12.203,46.761,12.143z"/>
			</g>
			<g>
				<path style="fill:#808285;" d="M45.833,11.032c0.249-0.03,0.499-0.06,0.748-0.09c-0.009-0.113-0.017-0.227-0.022-0.34
					c-0.227,0.027-0.454,0.054-0.682,0.081c-0.608,0.072-1.612-0.005-2.147,0.322c-0.068,0.042-0.055,0.163,0.02,0.189
					C44.321,11.394,45.25,11.102,45.833,11.032z"/>
			</g>
			<g>
				<path style="fill:#808285;" d="M48.31,15.458c-0.065-0.093-0.129-0.187-0.192-0.281c-0.128,0.103-0.256,0.205-0.384,0.308
					c-0.478,0.383-1.37,0.85-1.65,1.411c-0.036,0.071,0.039,0.167,0.117,0.15c0.589-0.133,1.222-0.873,1.68-1.241
					C48.025,15.689,48.167,15.573,48.31,15.458z"/>
			</g>
			<g>
				<path style="fill:#808285;" d="M45.759,9.72c0.266,0.006,0.533,0.011,0.799,0.016c0.005-0.113,0.012-0.227,0.021-0.34
					c-0.243-0.005-0.485-0.01-0.728-0.015c-0.613-0.014-1.596-0.229-2.171,0.02c-0.073,0.032-0.078,0.154-0.007,0.19
					C44.211,9.868,45.172,9.708,45.759,9.72z"/>
			</g>
			<g>
				<path style="fill:#808285;" d="M50.745,17.881c-0.025,0.048-0.049,0.096-0.074,0.144c-0.281,0.545-0.905,1.334-0.933,1.96
					c-0.004,0.08,0.104,0.137,0.168,0.089c0.484-0.361,0.761-1.295,1.03-1.817c0.034-0.067,0.069-0.134,0.103-0.201
					C50.939,18,50.841,17.942,50.745,17.881z"/>
			</g>
			<g>
				<path style="fill:#808285;" d="M49.083,16.44c-0.076-0.085-0.15-0.172-0.222-0.26c-0.09,0.095-0.179,0.191-0.269,0.286
					c-0.42,0.446-1.238,1.033-1.437,1.626c-0.025,0.075,0.062,0.16,0.137,0.132c0.565-0.213,1.089-1.035,1.491-1.463
					C48.882,16.655,48.982,16.547,49.083,16.44z"/>
			</g>
			<g>
				<path style="fill:#808285;" d="M51.896,18.449c-0.014,0.041-0.029,0.082-0.043,0.124c-0.202,0.578-0.711,1.447-0.652,2.071
					c0.008,0.079,0.122,0.121,0.179,0.065c0.429-0.425,0.574-1.388,0.767-1.943c0.024-0.07,0.049-0.141,0.073-0.211
					C52.11,18.522,52.002,18.487,51.896,18.449z"/>
			</g>
			<g>
				<path style="fill:#808285;" d="M49.987,17.327c-0.087-0.073-0.173-0.149-0.257-0.226c-0.051,0.072-0.102,0.145-0.153,0.217
					c-0.354,0.5-1.082,1.195-1.197,1.811c-0.015,0.078,0.084,0.15,0.154,0.112c0.53-0.29,0.934-1.176,1.273-1.656
					C49.867,17.499,49.927,17.413,49.987,17.327z"/>
			</g>
		</g>
		<g>
			<path style="fill:#808285;" d="M54.77,17.717c-1.102,0-2.131-0.195-2.896-0.55c-1.321-0.613-2.44-1.756-3.42-3.495
				c-1.467-2.601-1.074-6.416,0.895-8.685c1.246-1.435,3.825-2.883,6.094-2.666c1.855,0.182,3.927,0.989,4.783,1.632
				c1.505,1.13,2.625,3.101,2.723,4.794c0.255,4.357-2.341,7.892-6.459,8.796C55.971,17.657,55.376,17.717,54.77,17.717z
				 M54.97,3.31c-1.834,0-3.871,1.206-4.856,2.34c-1.707,1.967-2.048,5.272-0.778,7.525c0.86,1.526,1.858,2.56,2.964,3.073
				c0.625,0.29,1.525,0.456,2.47,0.456c0.534,0,1.054-0.052,1.504-0.151c3.613-0.793,5.89-3.907,5.665-7.748
				c-0.081-1.395-1.057-3.095-2.321-4.044c-0.651-0.489-2.499-1.259-4.274-1.434C55.221,3.316,55.096,3.31,54.97,3.31z"/>
		</g>
	</g>
	<g style="clip-path:url(#SVGID_2_);">
		<g>
			<path style="fill:#808285;" d="M53.09,84.557H18.744c-0.391,0-0.709-0.317-0.709-0.709V38.697c0-0.211,0.092-0.401,0.239-0.53
				c0.024-0.028,0.051-0.054,0.08-0.078l17.11-14.213c0.263-0.218,0.643-0.218,0.906,0l17.11,14.213
				c0.028,0.024,0.055,0.049,0.079,0.076c0.147,0.13,0.24,0.32,0.24,0.532v45.151C53.799,84.24,53.481,84.557,53.09,84.557z
				 M19.452,83.14h32.929V39.101c-0.028-0.041-0.053-0.085-0.072-0.132c-0.002-0.005-0.004-0.01-0.006-0.015L35.917,25.342
				L19.531,38.954c-0.002,0.005-0.004,0.01-0.006,0.015c-0.02,0.047-0.044,0.092-0.072,0.133V83.14z"/>
		</g>
		<g>
			<path style="fill:#808285;" d="M15.336,43.472c-0.506,0-1.008-0.215-1.358-0.633c-0.629-0.75-0.532-1.867,0.218-2.496
				l20.581-17.279c0.75-0.63,1.868-0.531,2.496,0.218c0.629,0.75,0.532,1.867-0.218,2.496L16.474,43.057
				C16.143,43.336,15.738,43.472,15.336,43.472z"/>
		</g>
		<g>
			<path style="fill:#808285;" d="M56.497,43.472c-0.402,0-0.806-0.136-1.138-0.415L34.778,25.778
				c-0.75-0.629-0.847-1.746-0.218-2.496c0.629-0.75,1.747-0.847,2.496-0.218l20.581,17.279c0.75,0.629,0.847,1.746,0.218,2.496
				C57.505,43.257,57.003,43.472,56.497,43.472z"/>
		</g>
		<g>
			<path style="fill:#808285;" d="M46.71,84.557H24.231c-0.391,0-0.709-0.317-0.709-0.709V59.347c0-0.012,0-0.024,0.001-0.036
				c-0.001-0.012-0.001-0.025-0.001-0.038c0-2.732,5.626-6.199,11.948-6.199s11.948,3.466,11.948,6.199c0,0.01,0,0.021-0.001,0.033
				c0.001,0.013,0.001,0.027,0.001,0.04v24.502C47.419,84.24,47.102,84.557,46.71,84.557z M24.94,83.14h21.062V59.466
				c-0.009-0.052-0.013-0.105-0.01-0.159c0.001-0.019,0.005-0.048,0.009-0.076c-0.087-1.449-4.506-4.738-10.53-4.738
				c-6.021,0-10.44,3.287-10.53,4.737c0.004,0.026,0.007,0.052,0.008,0.078c0.003,0.055,0,0.109-0.01,0.163V83.14z"/>
		</g>
		<g>
			<path style="fill:#808285;" d="M27.281,44.475c0,0.081-0.033,0.138-0.13,0.138H25.12v1.624h1.552
				c0.081,0,0.129,0.048,0.129,0.138v0.804c0,0.089-0.048,0.138-0.129,0.138H25.12v1.64h2.031c0.098,0,0.13,0.041,0.13,0.13V49.9
				c0,0.082-0.033,0.13-0.13,0.13h-2.988c-0.073,0-0.122-0.048-0.122-0.13v-6.237c0-0.081,0.048-0.129,0.122-0.129h2.988
				c0.098,0,0.13,0.048,0.13,0.129V44.475z"/>
			<path style="fill:#808285;" d="M29.926,43.533c0.763,0,1.169,0.406,1.169,1.169v0.861c0,0.081-0.04,0.13-0.129,0.13h-0.845
				c-0.081,0-0.129-0.049-0.129-0.13V44.93c0-0.211-0.106-0.325-0.325-0.325h-0.39c-0.203,0-0.325,0.114-0.325,0.325v1.12
				l1.932,0.633c0.138,0.057,0.211,0.147,0.211,0.301v1.876c0,0.763-0.406,1.17-1.169,1.17h-0.91c-0.755,0-1.169-0.406-1.169-1.17
				v-0.853c0-0.089,0.048-0.13,0.129-0.13h0.845c0.089,0,0.13,0.041,0.13,0.13v0.626c0,0.219,0.122,0.325,0.325,0.325h0.39
				c0.211,0,0.325-0.105,0.325-0.325v-1.08l-1.925-0.633c-0.147-0.049-0.219-0.146-0.219-0.3v-1.917
				c0-0.763,0.414-1.169,1.169-1.169H29.926z"/>
			<path style="fill:#808285;" d="M35.163,45.58c0,0.081-0.048,0.129-0.13,0.129h-0.812c-0.089,0-0.13-0.048-0.13-0.129v-0.65
				c0-0.211-0.114-0.325-0.325-0.325h-0.422c-0.219,0-0.325,0.114-0.325,0.325v3.703c0,0.219,0.114,0.325,0.325,0.325h0.422
				c0.211,0,0.325-0.105,0.325-0.325v-0.65c0-0.081,0.041-0.13,0.13-0.13h0.812c0.082,0,0.13,0.049,0.13,0.13v0.877
				c0,0.763-0.414,1.17-1.17,1.17h-0.909c-0.763,0-1.177-0.406-1.177-1.17v-4.158c0-0.763,0.414-1.169,1.177-1.169h0.909
				c0.756,0,1.17,0.406,1.17,1.169V45.58z"/>
			<path style="fill:#808285;" d="M35.973,44.702c0-0.763,0.406-1.169,1.169-1.169h0.91c0.763,0,1.169,0.406,1.169,1.169v4.158
				c0,0.763-0.406,1.17-1.169,1.17h-0.91c-0.763,0-1.169-0.406-1.169-1.17V44.702z M37.849,48.982c0.211,0,0.325-0.105,0.325-0.325
				v-3.752c0-0.211-0.114-0.325-0.325-0.325h-0.471c-0.211,0-0.325,0.114-0.325,0.325v3.752c0,0.219,0.114,0.325,0.325,0.325H37.849
				z"/>
			<path style="fill:#808285;" d="M41.137,48.958h1.932c0.089,0,0.13,0.048,0.13,0.13V49.9c0,0.089-0.041,0.13-0.13,0.13h-2.907
				c-0.081,0-0.129-0.041-0.129-0.13v-6.237c0-0.081,0.048-0.129,0.129-0.129h0.845c0.089,0,0.13,0.048,0.13,0.129V48.958z"/>
			<path style="fill:#808285;" d="M46.901,50.03c-0.073,0-0.114-0.041-0.13-0.113l-0.227-1.186h-1.446l-0.219,1.186
				c-0.016,0.073-0.057,0.113-0.13,0.113H43.88c-0.089,0-0.13-0.048-0.106-0.138l1.348-6.245c0.016-0.082,0.065-0.114,0.138-0.114
				h1.129c0.073,0,0.122,0.032,0.138,0.114l1.348,6.245c0.016,0.089-0.017,0.138-0.114,0.138H46.901z M45.821,44.954l-0.52,2.834
				h1.04L45.821,44.954z"/>
		</g>
	</g>
</g>
</svg>
