<!-- Generator: Adobe Illustrator 19.2.0, SVG Export Plug-In  -->
<svg version="1.1"
	 xmlns="http://www.w3.org/2000/svg" xmlns:xlink="http://www.w3.org/1999/xlink" xmlns:a="http://ns.adobe.com/AdobeSVGViewerExtensions/3.0/"
	 x="0px" y="0px" width="230.596px" height="45.654px" viewBox="0 0 230.596 45.654"
	 style="enable-background:new 0 0 230.596 45.654;" xml:space="preserve">
<defs>
</defs>
<g>
	<path style="fill:#FFFFFF;" d="M0,1.119l7.309,21.646L0,45.654h230.596l-7.687-22.578L229.896,0"/>
</g>
<g>
	<path style="fill:#E9A660;" d="M24.073,13.774h6.339c0.779,0,1.521,0.101,2.225,0.303c0.705,0.203,1.36,0.487,1.968,0.854
		c0.606,0.367,1.157,0.808,1.651,1.32c0.495,0.514,0.916,1.085,1.265,1.714c0.349,0.63,0.616,1.306,0.804,2.029
		c0.188,0.723,0.281,1.474,0.281,2.253c0,0.795-0.094,1.555-0.281,2.282c-0.188,0.727-0.455,1.408-0.804,2.045
		s-0.77,1.216-1.265,1.736c-0.494,0.521-1.045,0.967-1.651,1.338c-0.607,0.371-1.263,0.657-1.968,0.859
		c-0.704,0.202-1.445,0.304-2.225,0.304h-6.339v-1.934h1.618v-13.16h-1.618V13.774z M27.894,15.718v13.16h2.652
		c0.786,0,1.526-0.172,2.22-0.517c0.692-0.345,1.298-0.814,1.815-1.41c0.517-0.596,0.925-1.297,1.225-2.102
		c0.3-0.806,0.449-1.673,0.449-2.603c0-0.914-0.149-1.768-0.449-2.562c-0.3-0.794-0.708-1.485-1.225-2.073
		c-0.518-0.588-1.123-1.051-1.815-1.388c-0.693-0.338-1.434-0.506-2.22-0.506H27.894z"/>
	<path style="fill:#E9A660;" d="M50.685,31.149c-1.177,0-2.252-0.219-3.226-0.657c-0.975-0.438-1.844-1.062-2.608-1.871
		c-0.764-0.81-1.345-1.769-1.741-2.877c-0.397-1.109-0.596-2.26-0.596-3.451c0-1.229,0.2-2.383,0.601-3.461
		c0.401-1.079,0.963-2.018,1.687-2.815c0.723-0.799,1.584-1.428,2.585-1.889c1-0.461,2.1-0.691,3.299-0.691
		c1.206,0,2.311,0.23,3.315,0.691c1.004,0.461,1.865,1.09,2.585,1.889c0.719,0.798,1.277,1.736,1.675,2.815
		c0.396,1.078,0.595,2.232,0.595,3.461c0,1.229-0.2,2.381-0.601,3.456c-0.401,1.075-0.963,2.014-1.687,2.815
		c-0.723,0.802-1.584,1.434-2.585,1.894C52.983,30.918,51.883,31.149,50.685,31.149z M50.685,29.059
		c0.892,0,1.698-0.184,2.422-0.551c0.723-0.367,1.339-0.86,1.849-1.479s0.902-1.335,1.18-2.152c0.277-0.816,0.416-1.678,0.416-2.585
		c0-0.929-0.151-1.826-0.455-2.691s-0.727-1.598-1.27-2.197c-0.544-0.6-1.175-1.062-1.895-1.388
		c-0.719-0.326-1.469-0.489-2.247-0.489c-0.893,0-1.701,0.184-2.428,0.551c-0.728,0.367-1.346,0.859-1.854,1.478
		c-0.51,0.618-0.903,1.338-1.181,2.158s-0.416,1.681-0.416,2.579c0,1.05,0.154,1.984,0.461,2.805c0.308,0.82,0.714,1.502,1.22,2.045
		c0.506,0.544,1.108,0.999,1.81,1.366C48.997,28.875,49.793,29.059,50.685,29.059z"/>
	<path style="fill:#E9A660;" d="M74.104,13.774h5.529v1.944h-1.449v15.094h-2.878l-7.923-14.128v12.194h1.753v1.934h-5.529v-1.934
		h1.573v-13.16h-1.618v-1.967h4.585l7.777,13.992l0.091-0.539V15.718h-1.911V13.774z"/>
	<path style="fill:#E9A660;" d="M94.198,28.878h1.416l-1.349-3.866h-6.552l-1.315,3.866h1.753v1.934h-5.529v-1.934h1.483
		l5.305-15.104h3.316l5.293,15.104h1.709v1.934h-5.53V28.878z M88.354,23.147h5.26l-2.652-7.62L88.354,23.147z"/>
	<path style="fill:#E9A660;" d="M105.166,28.878h1.562V15.616h-3.889v2.652h-2.304v-4.495h15.195v4.495h-2.305v-2.652h-4.495v13.262
		h1.753v1.934h-5.518V28.878z"/>
	<path style="fill:#E9A660;" d="M120.099,13.774h12.205v4.821H130v-2.877h-6.08v5.45h5.113v1.934h-5.113v5.776H130v-2.877h2.304
		v4.811h-12.205v-1.934h1.618v-13.16h-1.618V13.774z"/>
	<path style="fill:#E9A660;" d="M154.734,13.774h5.529v1.944h-1.449v15.094h-2.878l-7.923-14.128v12.194h1.753v1.934h-5.529v-1.934
		h1.573v-13.16h-1.618v-1.967h4.585l7.777,13.992l0.091-0.539V15.718h-1.911V13.774z"/>
	<path style="fill:#E9A660;" d="M172.118,31.149c-1.177,0-2.252-0.219-3.226-0.657c-0.975-0.438-1.844-1.062-2.608-1.871
		c-0.764-0.81-1.345-1.769-1.741-2.877c-0.397-1.109-0.596-2.26-0.596-3.451c0-1.229,0.2-2.383,0.601-3.461
		c0.401-1.079,0.963-2.018,1.687-2.815c0.723-0.799,1.584-1.428,2.585-1.889c1-0.461,2.1-0.691,3.299-0.691
		c1.206,0,2.311,0.23,3.315,0.691c1.004,0.461,1.865,1.09,2.585,1.889c0.719,0.798,1.277,1.736,1.675,2.815
		c0.396,1.078,0.595,2.232,0.595,3.461c0,1.229-0.2,2.381-0.601,3.456c-0.401,1.075-0.963,2.014-1.687,2.815
		c-0.723,0.802-1.584,1.434-2.585,1.894C174.416,30.918,173.317,31.149,172.118,31.149z M172.118,29.059
		c0.892,0,1.698-0.184,2.422-0.551c0.723-0.367,1.339-0.86,1.849-1.479s0.902-1.335,1.18-2.152c0.277-0.816,0.416-1.678,0.416-2.585
		c0-0.929-0.151-1.826-0.455-2.691s-0.727-1.598-1.27-2.197c-0.544-0.6-1.175-1.062-1.895-1.388
		c-0.719-0.326-1.469-0.489-2.247-0.489c-0.893,0-1.701,0.184-2.428,0.551c-0.728,0.367-1.346,0.859-1.854,1.478
		c-0.51,0.618-0.903,1.338-1.181,2.158s-0.416,1.681-0.416,2.579c0,1.05,0.154,1.984,0.461,2.805c0.308,0.82,0.714,1.502,1.22,2.045
		c0.506,0.544,1.108,0.999,1.81,1.366C170.43,28.875,171.226,29.059,172.118,29.059z"/>
	<path style="fill:#E9A660;" d="M206.519,13.774h5.53v1.944h-1.484l-4.866,15.094h-3.439l-4.619-14.847l-4.26,14.847h-3.405
		l-4.968-15.094h-1.506v-1.944h5.529v1.944h-1.483l4.125,13.093l4.35-15.037h3.36l4.631,15.037l4.203-13.093h-1.697V13.774z"/>
</g>
</svg>
