<!-- Generator: Adobe Illustrator 21.0.0, SVG Export Plug-In  -->
<svg version="1.1"
	 xmlns="http://www.w3.org/2000/svg" xmlns:xlink="http://www.w3.org/1999/xlink" xmlns:a="http://ns.adobe.com/AdobeSVGViewerExtensions/3.0/"
	 x="0px" y="0px" width="43.1px" height="64.5px" viewBox="0 0 43.1 64.5" style="enable-background:new 0 0 43.1 64.5;"
	 xml:space="preserve">
<style type="text/css">
	.st0{fill:#F09554;}
	.st1{fill:#FFFFFF;}
</style>
<defs>
</defs>
<g>
	<g>
		<path class="st0" d="M21.5,0C9.6,0,0,9.6,0,21.5c0,9.2,5.8,17,14,20.1l2.2,6.6l5.3,16.3l5.4-16.4l2.2-6.6c8.1-3.1,14-10.9,14-20.1
			C43,9.6,33.4,0,21.5,0L21.5,0z"/>
	</g>
	<g>
		<path class="st1" d="M21.5,13.1c-4.1,0-7.5,3.4-7.5,7.5v0.1l0,0v0.1c0,4.1,3.4,7.5,7.5,7.5s7.5-3.4,7.5-7.5v-0.1v-0.1
			C29,16.5,25.7,13.1,21.5,13.1z"/>
		<path class="st1" d="M28.2,10.1l-0.8-0.5l-1.6,2.8c0.3,0.2,0.5,0.3,0.8,0.5L28.2,10.1z"/>
		<path class="st1" d="M28.3,14.5l2.3-2.4l-0.7-0.7l-2.3,2.4C27.9,14,28.1,14.3,28.3,14.5z"/>
		<path class="st1" d="M29.7,16.4l2.8-1.6L32,14l-2.8,1.7C29.4,15.9,29.6,16.1,29.7,16.4z"/>
		<path class="st1" d="M30.6,18.6l3.1-0.8l-0.2-0.9l-3.1,0.9C30.4,18,30.5,18.3,30.6,18.6z"/>
		<path class="st1" d="M12.7,17.6l-3.1-0.8l-0.2,0.9l3.1,0.7C12.5,18.2,12.6,17.9,12.7,17.6z"/>
		<path class="st1" d="M13.6,15.9c0.1-0.1,0.2-0.3,0.3-0.4L11,13.9l-0.5,0.8l2.9,1.5C13.4,16.2,13.5,16.1,13.6,15.9z"/>
		<path class="st1" d="M15.3,13.6l-2.2-2.2l-0.7,0.7l2.3,2.2C14.9,14.1,15.1,13.8,15.3,13.6z"/>
		<path class="st1" d="M17.1,12.1C17.2,12.1,17.2,12.1,17.1,12.1l-1.4-2.5l-0.8,0.5l1.5,2.5C16.7,12.4,16.9,12.2,17.1,12.1z"/>
		<path class="st1" d="M19.6,11.3l-0.8-2.8l-0.9,0.2l0.8,2.7C18.9,11.4,19.2,11.3,19.6,11.3z"/>
		<path class="st1" d="M22,11.2v-3h-1l0.1,3C21.4,11.2,21.7,11.2,22,11.2z"/>
		<path class="st1" d="M25.2,8.7l-0.9-0.2l-0.7,3c0.3,0.1,0.6,0.2,0.9,0.3L25.2,8.7z"/>
		<path class="st1" d="M14.9,31.4l0.8,0.5l1.6-2.8c-0.3-0.2-0.5-0.3-0.8-0.5L14.9,31.4z"/>
		<path class="st1" d="M14.7,27l-2.3,2.4l0.7,0.7l2.3-2.4C15.1,27.4,14.9,27.2,14.7,27z"/>
		<path class="st1" d="M13.3,25.1l-2.8,1.6l0.5,0.8l2.8-1.7C13.6,25.6,13.5,25.3,13.3,25.1z"/>
		<path class="st1" d="M12.4,22.9l-3.1,0.8l0.2,0.9l3.1-0.9C12.6,23.4,12.5,23.2,12.4,22.9z"/>
		<path class="st1" d="M30.3,23.8l3.1,0.8l0.2-0.9L30.5,23C30.5,23.3,30.4,23.6,30.3,23.8z"/>
		<path class="st1" d="M31,20.3c0,0.3,0,0.6,0,0.9h3.2v-0.9H31z"/>
		<path class="st1" d="M12.1,20.2l-3.2,0.1c0,0.3,0,0.6,0,0.9h3.2V20.2z"/>
		<path class="st1" d="M29.5,25.5c-0.1,0.1-0.2,0.3-0.3,0.4l2.9,1.6l0.5-0.8l-2.9-1.5C29.6,25.3,29.5,25.4,29.5,25.5z"/>
		<path class="st1" d="M27.8,27.9l2.2,2.2l0.7-0.7l-2.3-2.2C28.2,27.4,28,27.6,27.8,27.9z"/>
		<path class="st1" d="M25.9,29.4L25.9,29.4l1.4,2.5l0.8-0.5l-1.5-2.5C26.4,29.1,26.2,29.2,25.9,29.4z"/>
		<path class="st1" d="M23.5,30.2l0.8,2.8l0.9-0.2l-0.8-2.7C24.1,30.1,23.8,30.2,23.5,30.2z"/>
		<path class="st1" d="M21,30.3v3h1l-0.1-3C21.6,30.3,21.3,30.3,21,30.3z"/>
		<path class="st1" d="M17.8,32.8l0.9,0.2l0.7-3c-0.3-0.1-0.6-0.2-0.9-0.3L17.8,32.8z"/>
	</g>
</g>
</svg>
